<svg xmlns="http://www.w3.org/2000/svg" xmlns:xlink="http://www.w3.org/1999/xlink" contentStyleType="text/css" data-diagram-type="SEQUENCE" height="1735px" preserveAspectRatio="none" style="width:1571px;height:1735px;background:#FFFFFF;" version="1.1" viewBox="0 0 1571 1735" width="1571px" zoomAndPan="magnify"><title>Secret Flow: From .env to Fritzbox Connection
(Option A: Per-Device Credentials)</title><defs/><g><text fill="#000000" font-family="Verdana" font-size="22" font-weight="bold" lengthAdjust="spacing" textLength="576.8555" x="495.6333" y="35.4209">Secret Flow: From .env to Fritzbox Connection</text><text fill="#000000" font-family="Verdana" font-size="22" font-weight="bold" lengthAdjust="spacing" textLength="428.0332" x="570.0444" y="61.0303">(Option A: Per-Device Credentials)</text><g><title>.env</title><rect fill="#FFFFFF" height="1407.3047" style="stroke:#000000;stroke-width:1;" width="10" x="270.8599" y="228.7813"/></g><g><title>docker-compose</title><rect fill="#FFFFFF" height="1061.1797" style="stroke:#000000;stroke-width:1;" width="10" x="452.4429" y="574.9063"/></g><g><title>Docker</title><rect fill="#FFFFFF" height="973.7813" style="stroke:#000000;stroke-width:1;" width="10" x="670.6157" y="662.3047"/></g><g><title>config.py</title><rect fill="#FFFFFF" height="803.5859" style="stroke:#000000;stroke-width:1;" width="10" x="818.0356" y="832.5"/></g><g><title>fritz_monitor</title><rect fill="#FFFFFF" height="348.4609" style="stroke:#000000;stroke-width:1;" width="10" x="1054.2593" y="1258.4922"/></g><g><title>Fritzbox 1</title><rect fill="#FFFFFF" height="29.1328" style="stroke:#000000;stroke-width:1;" width="10" x="1215.333" y="1389.0234"/></g><g><title>Fritzbox 2</title><rect fill="#FFFFFF" height="29.1328" style="stroke:#000000;stroke-width:1;" width="10" x="1352.8486" y="1447.2891"/></g><g><title>Fritzbox 2</title><rect fill="#FFFFFF" height="139.5313" style="stroke:#000000;stroke-width:1;" width="10" x="1352.8486" y="1505.5547"/></g><g><title>Developer</title><rect fill="#000000" fill-opacity="0.00000" height="1499.5703" width="8" x="45.0015" y="154.5156"/><line style="stroke:#000000;stroke-width:1;stroke-dasharray:5,5;" x1="49" x2="49" y1="154.5156" y2="1654.0859"/></g><g><title>.env</title><rect fill="#000000" fill-opacity="0.00000" height="1499.5703" width="8" x="271.8599" y="154.5156"/><line style="stroke:#000000;stroke-width:1;stroke-dasharray:5,5;" x1="275.749" x2="275.749" y1="154.5156" y2="1654.0859"/></g><g><title>docker-compose</title><rect fill="#000000" fill-opacity="0.00000" height="1499.5703" width="8" x="453.4429" y="154.5156"/><line style="stroke:#000000;stroke-width:1;stroke-dasharray:5,5;" x1="456.4741" x2="456.4741" y1="154.5156" y2="1654.0859"/></g><g><title>Docker</title><rect fill="#000000" fill-opacity="0.00000" height="1499.5703" width="8" x="671.6157" y="154.5156"/><line style="stroke:#000000;stroke-width:1;stroke-dasharray:5,5;" x1="675.4087" x2="675.4087" y1="154.5156" y2="1654.0859"/></g><g><title>config.py</title><rect fill="#000000" fill-opacity="0.00000" height="1499.5703" width="8" x="819.0356" y="154.5156"/><line style="stroke:#000000;stroke-width:1;stroke-dasharray:5,5;" x1="822.8042" x2="822.8042" y1="154.5156" y2="1654.0859"/></g><g><title>fritz_monitor</title><rect fill="#000000" fill-opacity="0.00000" height="1499.5703" width="8" x="1055.2593" y="154.5156"/><line style="stroke:#000000;stroke-width:1;stroke-dasharray:5,5;" x1="1058.665" x2="1058.665" y1="154.5156" y2="1654.0859"/></g><g><title>Fritzbox 1</title><rect fill="#000000" fill-opacity="0.00000" height="1499.5703" width="8" x="1216.333" y="154.5156"/><line style="stroke:#000000;stroke-width:1;stroke-dasharray:5,5;" x1="1219.5752" x2="1219.5752" y1="154.5156" y2="1654.0859"/></g><g><title>Fritzbox 2</title><rect fill="#000000" fill-opacity="0.00000" height="1499.5703" width="8" x="1353.8486" y="154.5156"/><line style="stroke:#000000;stroke-width:1;stroke-dasharray:5,5;" x1="1357.0908" x2="1357.0908" y1="154.5156" y2="1654.0859"/></g><g><title>Fritzbox 3</title><rect fill="#000000" fill-opacity="0.00000" height="1499.5703" width="8" x="1491.3643" y="154.5156"/><line style="stroke:#000000;stroke-width:1;stroke-dasharray:5,5;" x1="1494.6064" x2="1494.6064" y1="154.5156" y2="1654.0859"/></g><g class="participant participant-head" data-participant="dev"><text fill="#000000" font-family="Verdana" font-size="14" lengthAdjust="spacing" textLength="72.0029" x="10" y="151.2139">Developer</text><ellipse cx="49.0015" cy="86.2188" fill="#FFFFFF" rx="8" ry="8" style="stroke:#000000;stroke-width:1;"/><path d="M49.0015,94.2188 L49.0015,121.2188 M36.0015,102.2188 L62.0015,102.2188 M49.0015,121.2188 L36.0015,136.2188 M49.0015,121.2188 L62.0015,136.2188" fill="none" style="stroke:#000000;stroke-width:1;"/></g><g class="participant participant-tail" data-participant="dev"><text fill="#000000" font-family="Verdana" font-size="14" lengthAdjust="spacing" textLength="72.0029" x="10" y="1666.0811">Developer</text><ellipse cx="49.0015" cy="1678.3828" fill="#FFFFFF" rx="8" ry="8" style="stroke:#000000;stroke-width:1;"/><path d="M49.0015,1686.3828 L49.0015,1713.3828 M36.0015,1694.3828 L62.0015,1694.3828 M49.0015,1713.3828 L36.0015,1728.3828 M49.0015,1713.3828 L62.0015,1728.3828" fill="none" style="stroke:#000000;stroke-width:1;"/></g><g class="participant participant-head" data-participant="env"><rect fill="#FFFFFF" height="46.5938" rx="2.5" ry="2.5" style="stroke:#000000;stroke-width:1;" width="44.2217" x="253.749" y="106.9219"/><text fill="#000000" font-family="Verdana" font-size="14" lengthAdjust="spacing" textLength="30.2217" x="260.749" y="126.917">.env</text><text fill="#000000" font-family="Verdana" font-size="14" lengthAdjust="spacing" textLength="24.4453" x="263.6372" y="143.2139">File</text></g><g class="participant participant-tail" data-participant="env"><rect fill="#FFFFFF" height="46.5938" rx="2.5" ry="2.5" style="stroke:#000000;stroke-width:1;" width="44.2217" x="253.749" y="1653.0859"/><text fill="#000000" font-family="Verdana" font-size="14" lengthAdjust="spacing" textLength="30.2217" x="260.749" y="1673.0811">.env</text><text fill="#000000" font-family="Verdana" font-size="14" lengthAdjust="spacing" textLength="24.4453" x="263.6372" y="1689.3779">File</text></g><g class="participant participant-head" data-participant="compose"><rect fill="#FFFFFF" height="30.2969" rx="2.5" ry="2.5" style="stroke:#000000;stroke-width:1;" width="129.9375" x="392.4741" y="123.2188"/><text fill="#000000" font-family="Verdana" font-size="14" lengthAdjust="spacing" textLength="115.9375" x="399.4741" y="143.2139">docker-compose</text></g><g class="participant participant-tail" data-participant="compose"><rect fill="#FFFFFF" height="30.2969" rx="2.5" ry="2.5" style="stroke:#000000;stroke-width:1;" width="129.9375" x="392.4741" y="1653.0859"/><text fill="#000000" font-family="Verdana" font-size="14" lengthAdjust="spacing" textLength="115.9375" x="399.4741" y="1673.0811">docker-compose</text></g><g class="participant participant-head" data-participant="docker"><rect fill="#FFFFFF" height="46.5938" rx="2.5" ry="2.5" style="stroke:#000000;stroke-width:1;" width="82.4141" x="634.4087" y="106.9219"/><text fill="#000000" font-family="Verdana" font-size="14" lengthAdjust="spacing" textLength="49.5195" x="650.856" y="126.917">Docker</text><text fill="#000000" font-family="Verdana" font-size="14" lengthAdjust="spacing" textLength="68.4141" x="641.4087" y="143.2139">Container</text></g><g class="participant participant-tail" data-participant="docker"><rect fill="#FFFFFF" height="46.5938" rx="2.5" ry="2.5" style="stroke:#000000;stroke-width:1;" width="82.4141" x="634.4087" y="1653.0859"/><text fill="#000000" font-family="Verdana" font-size="14" lengthAdjust="spacing" textLength="49.5195" x="650.856" y="1673.0811">Docker</text><text fill="#000000" font-family="Verdana" font-size="14" lengthAdjust="spacing" textLength="68.4141" x="641.4087" y="1689.3779">Container</text></g><g class="participant participant-head" data-participant="config"><rect fill="#FFFFFF" height="46.5938" rx="2.5" ry="2.5" style="stroke:#000000;stroke-width:1;" width="78.4629" x="783.8042" y="106.9219"/><text fill="#000000" font-family="Verdana" font-size="14" lengthAdjust="spacing" textLength="64.4629" x="790.8042" y="126.917">config.py</text><text fill="#000000" font-family="Verdana" font-size="14" lengthAdjust="spacing" textLength="57.4219" x="794.3247" y="143.2139">Settings</text></g><g class="participant participant-tail" data-participant="config"><rect fill="#FFFFFF" height="46.5938" rx="2.5" ry="2.5" style="stroke:#000000;stroke-width:1;" width="78.4629" x="783.8042" y="1653.0859"/><text fill="#000000" font-family="Verdana" font-size="14" lengthAdjust="spacing" textLength="64.4629" x="790.8042" y="1673.0811">config.py</text><text fill="#000000" font-family="Verdana" font-size="14" lengthAdjust="spacing" textLength="57.4219" x="794.3247" y="1689.3779">Settings</text></g><g class="participant participant-head" data-participant="service"><rect fill="#FFFFFF" height="30.2969" rx="2.5" ry="2.5" style="stroke:#000000;stroke-width:1;" width="103.1885" x="1007.665" y="123.2188"/><text fill="#000000" font-family="Verdana" font-size="14" lengthAdjust="spacing" textLength="89.1885" x="1014.665" y="143.2139">fritz_monitor</text></g><g class="participant participant-tail" data-participant="service"><rect fill="#FFFFFF" height="30.2969" rx="2.5" ry="2.5" style="stroke:#000000;stroke-width:1;" width="103.1885" x="1007.665" y="1653.0859"/><text fill="#000000" font-family="Verdana" font-size="14" lengthAdjust="spacing" textLength="89.1885" x="1014.665" y="1673.0811">fritz_monitor</text></g><g class="participant participant-head" data-participant="fritz1"><rect fill="#FFFFFF" height="46.5938" rx="2.5" ry="2.5" style="stroke:#000000;stroke-width:1;" width="107.5156" x="1166.5752" y="106.9219"/><text fill="#000000" font-family="Verdana" font-size="14" lengthAdjust="spacing" textLength="69.6309" x="1185.5176" y="126.917">Fritzbox 1</text><text fill="#000000" font-family="Verdana" font-size="14" lengthAdjust="spacing" textLength="93.5156" x="1173.5752" y="143.2139">192.168.10.1</text></g><g class="participant participant-tail" data-participant="fritz1"><rect fill="#FFFFFF" height="46.5938" rx="2.5" ry="2.5" style="stroke:#000000;stroke-width:1;" width="107.5156" x="1166.5752" y="1653.0859"/><text fill="#000000" font-family="Verdana" font-size="14" lengthAdjust="spacing" textLength="69.6309" x="1185.5176" y="1673.0811">Fritzbox 1</text><text fill="#000000" font-family="Verdana" font-size="14" lengthAdjust="spacing" textLength="93.5156" x="1173.5752" y="1689.3779">192.168.10.1</text></g><g class="participant participant-head" data-participant="fritz2"><rect fill="#FFFFFF" height="46.5938" rx="2.5" ry="2.5" style="stroke:#000000;stroke-width:1;" width="107.5156" x="1304.0908" y="106.9219"/><text fill="#000000" font-family="Verdana" font-size="14" lengthAdjust="spacing" textLength="69.6309" x="1323.0332" y="126.917">Fritzbox 2</text><text fill="#000000" font-family="Verdana" font-size="14" lengthAdjust="spacing" textLength="93.5156" x="1311.0908" y="143.2139">192.168.20.1</text></g><g class="participant participant-tail" data-participant="fritz2"><rect fill="#FFFFFF" height="46.5938" rx="2.5" ry="2.5" style="stroke:#000000;stroke-width:1;" width="107.5156" x="1304.0908" y="1653.0859"/><text fill="#000000" font-family="Verdana" font-size="14" lengthAdjust="spacing" textLength="69.6309" x="1323.0332" y="1673.0811">Fritzbox 2</text><text fill="#000000" font-family="Verdana" font-size="14" lengthAdjust="spacing" textLength="93.5156" x="1311.0908" y="1689.3779">192.168.20.1</text></g><g class="participant participant-head" data-participant="fritz3"><rect fill="#FFFFFF" height="46.5938" rx="2.5" ry="2.5" style="stroke:#000000;stroke-width:1;" width="107.5156" x="1441.6064" y="106.9219"/><text fill="#000000" font-family="Verdana" font-size="14" lengthAdjust="spacing" textLength="69.6309" x="1460.5488" y="126.917">Fritzbox 3</text><text fill="#000000" font-family="Verdana" font-size="14" lengthAdjust="spacing" textLength="93.5156" x="1448.6064" y="143.2139">192.168.30.1</text></g><g class="participant participant-tail" data-participant="fritz3"><rect fill="#FFFFFF" height="46.5938" rx="2.5" ry="2.5" style="stroke:#000000;stroke-width:1;" width="107.5156" x="1441.6064" y="1653.0859"/><text fill="#000000" font-family="Verdana" font-size="14" lengthAdjust="spacing" textLength="69.6309" x="1460.5488" y="1673.0811">Fritzbox 3</text><text fill="#000000" font-family="Verdana" font-size="14" lengthAdjust="spacing" textLength="93.5156" x="1448.6064" y="1689.3779">192.168.30.1</text></g><g><title>.env</title><rect fill="#FFFFFF" height="1407.3047" style="stroke:#000000;stroke-width:1;" width="10" x="270.8599" y="228.7813"/></g><g><title>docker-compose</title><rect fill="#FFFFFF" height="1061.1797" style="stroke:#000000;stroke-width:1;" width="10" x="452.4429" y="574.9063"/></g><g><title>Docker</title><rect fill="#FFFFFF" height="973.7813" style="stroke:#000000;stroke-width:1;" width="10" x="670.6157" y="662.3047"/></g><g><title>config.py</title><rect fill="#FFFFFF" height="803.5859" style="stroke:#000000;stroke-width:1;" width="10" x="818.0356" y="832.5"/></g><g><title>fritz_monitor</title><rect fill="#FFFFFF" height="348.4609" style="stroke:#000000;stroke-width:1;" width="10" x="1054.2593" y="1258.4922"/></g><g><title>Fritzbox 1</title><rect fill="#FFFFFF" height="29.1328" style="stroke:#000000;stroke-width:1;" width="10" x="1215.333" y="1389.0234"/></g><g><title>Fritzbox 2</title><rect fill="#FFFFFF" height="29.1328" style="stroke:#000000;stroke-width:1;" width="10" x="1352.8486" y="1447.2891"/></g><g><title>Fritzbox 2</title><rect fill="#FFFFFF" height="139.5313" style="stroke:#000000;stroke-width:1;" width="10" x="1352.8486" y="1505.5547"/></g><rect fill="#FFFFFF" height="3" style="stroke:#FFFFFF;stroke-width:1;" width="1559.1221" x="5" y="185.082"/><line style="stroke:#000000;stroke-width:0.5;" x1="5" x2="1564.1221" y1="185.082" y2="185.082"/><line style="stroke:#000000;stroke-width:0.5;" x1="5" x2="1564.1221" y1="188.082" y2="188.082"/><rect fill="#FFFFFF" height="23.1328" style="stroke:#000000;stroke-width:1;" width="108.4531" x="730.3345" y="174.5156"/><text fill="#000000" font-family="Verdana" font-size="13" font-weight="bold" lengthAdjust="spacing" textLength="89.9272" x="736.3345" y="190.5825">Initial Setup</text><g class="message" data-participant-1="dev" data-participant-2="env"><polygon fill="#000000" points="258.8599,224.7813,268.8599,228.7813,258.8599,232.7813,262.8599,228.7813" style="stroke:#000000;stroke-width:1;"/><line style="stroke:#000000;stroke-width:1;" x1="49.0015" x2="264.8599" y1="228.7813" y2="228.7813"/><text fill="#000000" font-family="Verdana" font-size="13" lengthAdjust="spacing" textLength="202.8584" x="56.0015" y="223.7153">Create .env from .env.example</text></g><path d="M285,241.7813 L285,417.7813 L534,417.7813 L534,251.7813 L524,241.7813 L285,241.7813" fill="#FFFFFF" style="stroke:#000000;stroke-width:1;"/><path d="M524,241.7813 L524,251.7813 L534,251.7813 L524,241.7813" fill="#FFFFFF" style="stroke:#000000;stroke-width:1;"/><text fill="#000000" font-family="Verdana" font-size="13" lengthAdjust="spacing" textLength="220.4478" x="291" y="258.8481">FRITZBOX_1_HOST=192.168.10.1</text><text fill="#000000" font-family="Verdana" font-size="13" lengthAdjust="spacing" textLength="211.2056" x="291" y="273.981">FRITZBOX_1_USERNAME=admin</text><text fill="#000000" font-family="Verdana" font-size="13" lengthAdjust="spacing" textLength="228.0967" x="291" y="289.1138">FRITZBOX_1_PASSWORD=Secret1!</text><text fill="#000000" font-family="Verdana" font-size="13" lengthAdjust="spacing" textLength="4.1323" x="291" y="304.2466">&#160;</text><text fill="#000000" font-family="Verdana" font-size="13" lengthAdjust="spacing" textLength="220.4478" x="291" y="319.3794">FRITZBOX_2_HOST=192.168.20.1</text><text fill="#000000" font-family="Verdana" font-size="13" lengthAdjust="spacing" textLength="211.2056" x="291" y="334.5122">FRITZBOX_2_USERNAME=admin</text><text fill="#000000" font-family="Verdana" font-size="13" lengthAdjust="spacing" textLength="228.0967" x="291" y="349.645">FRITZBOX_2_PASSWORD=Secret2!</text><text fill="#000000" font-family="Verdana" font-size="13" lengthAdjust="spacing" textLength="4.1323" x="291" y="364.7778">&#160;</text><text fill="#000000" font-family="Verdana" font-size="13" lengthAdjust="spacing" textLength="220.4478" x="291" y="379.9106">FRITZBOX_3_HOST=192.168.30.1</text><text fill="#000000" font-family="Verdana" font-size="13" lengthAdjust="spacing" textLength="211.2056" x="291" y="395.0435">FRITZBOX_3_USERNAME=admin</text><text fill="#000000" font-family="Verdana" font-size="13" lengthAdjust="spacing" textLength="228.0967" x="291" y="410.1763">FRITZBOX_3_PASSWORD=Secret3!</text><g class="message" data-participant-1="env" data-participant-2="dev"><polygon fill="#000000" points="60.0015,440.375,50.0015,444.375,60.0015,448.375,56.0015,444.375" style="stroke:#000000;stroke-width:1;"/><line style="stroke:#000000;stroke-width:1;stroke-dasharray:2,2;" x1="54.0015" x2="269.8599" y1="444.375" y2="444.375"/><text fill="#000000" font-family="Verdana" font-size="13" lengthAdjust="spacing" textLength="63.667" x="66.0015" y="439.3091">&#9989; Created</text></g><g class="message" data-participant-1="dev" data-participant-2="env"><polygon fill="#000000" points="258.8599,469.5078,268.8599,473.5078,258.8599,477.5078,262.8599,473.5078" style="stroke:#000000;stroke-width:1;"/><line style="stroke:#000000;stroke-width:1;" x1="49.0015" x2="264.8599" y1="473.5078" y2="473.5078"/><text fill="#000000" font-family="Verdana" font-size="13" lengthAdjust="spacing" textLength="105.3965" x="56.0015" y="468.4419">chmod 600 .env</text></g><g class="message" data-participant-1="env" data-participant-2="dev"><polygon fill="#000000" points="60.0015,498.6406,50.0015,502.6406,60.0015,506.6406,56.0015,502.6406" style="stroke:#000000;stroke-width:1;"/><line style="stroke:#000000;stroke-width:1;stroke-dasharray:2,2;" x1="54.0015" x2="269.8599" y1="502.6406" y2="502.6406"/><text fill="#000000" font-family="Verdana" font-size="13" lengthAdjust="spacing" textLength="113.5151" x="66.0015" y="497.5747">&#9989; Permissions set</text></g><rect fill="#FFFFFF" height="3" style="stroke:#FFFFFF;stroke-width:1;" width="1559.1221" x="5" y="531.207"/><line style="stroke:#000000;stroke-width:0.5;" x1="5" x2="1564.1221" y1="531.207" y2="531.207"/><line style="stroke:#000000;stroke-width:0.5;" x1="5" x2="1564.1221" y1="534.207" y2="534.207"/><rect fill="#FFFFFF" height="23.1328" style="stroke:#000000;stroke-width:1;" width="150.2397" x="709.4412" y="520.6406"/><text fill="#000000" font-family="Verdana" font-size="13" font-weight="bold" lengthAdjust="spacing" textLength="131.7139" x="715.4412" y="536.7075">Container Startup</text><g class="message" data-participant-1="dev" data-participant-2="compose"><polygon fill="#000000" points="440.4429,570.9063,450.4429,574.9063,440.4429,578.9063,444.4429,574.9063" style="stroke:#000000;stroke-width:1;"/><line style="stroke:#000000;stroke-width:1;" x1="49.0015" x2="446.4429" y1="574.9063" y2="574.9063"/><text fill="#000000" font-family="Verdana" font-size="13" lengthAdjust="spacing" textLength="128.2798" x="56.0015" y="569.8403">docker-compose up</text></g><g class="message" data-participant-1="compose" data-participant-2="env"><polygon fill="#000000" points="291.8599,600.0391,281.8599,604.0391,291.8599,608.0391,287.8599,604.0391" style="stroke:#000000;stroke-width:1;"/><line style="stroke:#000000;stroke-width:1;" x1="285.8599" x2="451.4429" y1="604.0391" y2="604.0391"/><text fill="#000000" font-family="Verdana" font-size="13" lengthAdjust="spacing" textLength="87.6104" x="297.8599" y="598.9731">Read env_file</text></g><g class="message" data-participant-1="env" data-participant-2="compose"><polygon fill="#000000" points="440.4429,629.1719,450.4429,633.1719,440.4429,637.1719,444.4429,633.1719" style="stroke:#000000;stroke-width:1;"/><line style="stroke:#000000;stroke-width:1;stroke-dasharray:2,2;" x1="280.8599" x2="446.4429" y1="633.1719" y2="633.1719"/><text fill="#000000" font-family="Verdana" font-size="13" lengthAdjust="spacing" textLength="147.583" x="287.8599" y="628.106">Return key-value pairs</text></g><g class="message" data-participant-1="compose" data-participant-2="docker"><polygon fill="#000000" points="658.6157,658.3047,668.6157,662.3047,658.6157,666.3047,662.6157,662.3047" style="stroke:#000000;stroke-width:1;"/><line style="stroke:#000000;stroke-width:1;" x1="462.4429" x2="664.6157" y1="662.3047" y2="662.3047"/><text fill="#000000" font-family="Verdana" font-size="13" lengthAdjust="spacing" textLength="189.1729" x="469.4429" y="657.2388">Start container with env vars</text></g><path d="M685,675.3047 L685,806.3047 L934,806.3047 L934,685.3047 L924,675.3047 L685,675.3047" fill="#FFFFFF" style="stroke:#000000;stroke-width:1;"/><path d="M924,675.3047 L924,685.3047 L934,685.3047 L924,675.3047" fill="#FFFFFF" style="stroke:#000000;stroke-width:1;"/><text fill="#000000" font-family="Verdana" font-size="13" lengthAdjust="spacing" textLength="126.604" x="691" y="692.3716">Container receives:</text><text fill="#000000" font-family="Verdana" font-size="13" lengthAdjust="spacing" textLength="220.4478" x="691" y="707.5044">FRITZBOX_1_HOST=192.168.10.1</text><text fill="#000000" font-family="Verdana" font-size="13" lengthAdjust="spacing" textLength="211.2056" x="691" y="722.6372">FRITZBOX_1_USERNAME=admin</text><text fill="#000000" font-family="Verdana" font-size="13" lengthAdjust="spacing" textLength="228.0967" x="691" y="737.77">FRITZBOX_1_PASSWORD=Secret1!</text><text fill="#000000" font-family="Verdana" font-size="13" lengthAdjust="spacing" textLength="220.4478" x="691" y="752.9028">FRITZBOX_2_HOST=192.168.20.1</text><text fill="#000000" font-family="Verdana" font-size="13" lengthAdjust="spacing" textLength="12.397" x="691" y="768.0356">...</text><text fill="#000000" font-family="Verdana" font-size="13" lengthAdjust="spacing" textLength="4.1323" x="691" y="783.1685">&#160;</text><text fill="#000000" font-family="Verdana" font-size="13" lengthAdjust="spacing" textLength="174.1289" x="691" y="798.3013">&#9888;&#65039; Visible in docker inspect</text><g class="message" data-participant-1="docker" data-participant-2="config"><polygon fill="#000000" points="806.0356,828.5,816.0356,832.5,806.0356,836.5,810.0356,832.5" style="stroke:#000000;stroke-width:1;"/><line style="stroke:#000000;stroke-width:1;" x1="680.6157" x2="812.0356" y1="832.5" y2="832.5"/><text fill="#000000" font-family="Verdana" font-size="13" lengthAdjust="spacing" textLength="114.8481" x="687.6157" y="827.4341">Python app starts</text></g><rect fill="#FFFFFF" height="3" style="stroke:#FFFFFF;stroke-width:1;" width="1559.1221" x="5" y="861.0664"/><line style="stroke:#000000;stroke-width:0.5;" x1="5" x2="1564.1221" y1="861.0664" y2="861.0664"/><line style="stroke:#000000;stroke-width:0.5;" x1="5" x2="1564.1221" y1="864.0664" y2="864.0664"/><rect fill="#FFFFFF" height="23.1328" style="stroke:#000000;stroke-width:1;" width="181.8003" x="693.6609" y="850.5"/><text fill="#000000" font-family="Verdana" font-size="13" font-weight="bold" lengthAdjust="spacing" textLength="163.2744" x="699.6609" y="866.5669">Configuration Loading</text><g class="message" data-participant-1="config" data-participant-2="config"><line style="stroke:#000000;stroke-width:1;" x1="828.0356" x2="870.0356" y1="904.7656" y2="904.7656"/><line style="stroke:#000000;stroke-width:1;" x1="870.0356" x2="870.0356" y1="904.7656" y2="917.7656"/><line style="stroke:#000000;stroke-width:1;" x1="829.0356" x2="870.0356" y1="917.7656" y2="917.7656"/><polygon fill="#000000" points="839.0356,913.7656,829.0356,917.7656,839.0356,921.7656,835.0356,917.7656" style="stroke:#000000;stroke-width:1;"/><text fill="#000000" font-family="Verdana" font-size="13" lengthAdjust="spacing" textLength="128.5654" x="835.0356" y="899.6997">Settings.from_env()</text></g><path d="M833,930.7656 L833,1045.7656 L1233,1045.7656 L1233,940.7656 L1223,930.7656 L833,930.7656" fill="#FFFFFF" style="stroke:#000000;stroke-width:1;"/><path d="M1223,930.7656 L1223,940.7656 L1233,940.7656 L1223,930.7656" fill="#FFFFFF" style="stroke:#000000;stroke-width:1;"/><text fill="#000000" font-family="Verdana" font-size="13" lengthAdjust="spacing" textLength="108.8115" x="839" y="947.8325">Loop i = 1 to 10:</text><text fill="#000000" font-family="Verdana" font-size="13" lengthAdjust="spacing" textLength="272.6382" x="855.5293" y="962.9653">host = os.getenv(f"FRITZBOX_{i}_HOST")</text><text fill="#000000" font-family="Verdana" font-size="13" lengthAdjust="spacing" textLength="44.7637" x="855.5293" y="978.0981">if host:</text><text fill="#000000" font-family="Verdana" font-size="13" lengthAdjust="spacing" textLength="346.6582" x="872.0586" y="993.231">username = os.getenv(f"FRITZBOX_{i}_USERNAME")</text><text fill="#000000" font-family="Verdana" font-size="13" lengthAdjust="spacing" textLength="345.687" x="872.0586" y="1008.3638">password = os.getenv(f"FRITZBOX_{i}_PASSWORD")</text><text fill="#000000" font-family="Verdana" font-size="13" lengthAdjust="spacing" textLength="283.2896" x="872.0586" y="1023.4966">name = os.getenv(f"FRITZBOX_{i}_NAME")</text><text fill="#000000" font-family="Verdana" font-size="13" lengthAdjust="spacing" textLength="231.9624" x="872.0586" y="1038.6294">devices.append(FritzboxDevice(...))</text><g class="message" data-participant-1="config" data-participant-2="config"><line style="stroke:#000000;stroke-width:1;" x1="828.0356" x2="870.0356" y1="1072.8281" y2="1072.8281"/><line style="stroke:#000000;stroke-width:1;" x1="870.0356" x2="870.0356" y1="1072.8281" y2="1085.8281"/><line style="stroke:#000000;stroke-width:1;" x1="829.0356" x2="870.0356" y1="1085.8281" y2="1085.8281"/><polygon fill="#000000" points="839.0356,1081.8281,829.0356,1085.8281,839.0356,1089.8281,835.0356,1085.8281" style="stroke:#000000;stroke-width:1;"/><text fill="#000000" font-family="Verdana" font-size="13" lengthAdjust="spacing" textLength="145.0884" x="835.0356" y="1067.7622">Validate with Pydantic</text></g><g class="message" data-participant-1="config" data-participant-2="config"><line style="stroke:#000000;stroke-width:1;" x1="828.0356" x2="870.0356" y1="1114.9609" y2="1114.9609"/><line style="stroke:#000000;stroke-width:1;" x1="870.0356" x2="870.0356" y1="1114.9609" y2="1127.9609"/><line style="stroke:#000000;stroke-width:1;" x1="829.0356" x2="870.0356" y1="1127.9609" y2="1127.9609"/><polygon fill="#000000" points="839.0356,1123.9609,829.0356,1127.9609,839.0356,1131.9609,835.0356,1127.9609" style="stroke:#000000;stroke-width:1;"/><text fill="#000000" font-family="Verdana" font-size="13" lengthAdjust="spacing" textLength="93.6089" x="835.0356" y="1109.895">@lru_cache(1)</text></g><g class="message" data-participant-1="config" data-participant-2="docker"><polygon fill="#000000" points="691.6157,1153.0938,681.6157,1157.0938,691.6157,1161.0938,687.6157,1157.0938" style="stroke:#000000;stroke-width:1;"/><line style="stroke:#000000;stroke-width:1;stroke-dasharray:2,2;" x1="685.6157" x2="817.0356" y1="1157.0938" y2="1157.0938"/><text fill="#000000" font-family="Verdana" font-size="13" lengthAdjust="spacing" textLength="113.4199" x="697.6157" y="1152.0278">&#9989; Settings loaded</text></g><rect fill="#FFFFFF" height="3" style="stroke:#FFFFFF;stroke-width:1;" width="1559.1221" x="5" y="1185.6602"/><line style="stroke:#000000;stroke-width:0.5;" x1="5" x2="1564.1221" y1="1185.6602" y2="1185.6602"/><line style="stroke:#000000;stroke-width:0.5;" x1="5" x2="1564.1221" y1="1188.6602" y2="1188.6602"/><rect fill="#FFFFFF" height="23.1328" style="stroke:#000000;stroke-width:1;" width="107.6343" x="730.7439" y="1175.0938"/><text fill="#000000" font-family="Verdana" font-size="13" font-weight="bold" lengthAdjust="spacing" textLength="89.1084" x="736.7439" y="1191.1606">API Request</text><g class="message" data-participant-1="dev" data-participant-2="docker"><polygon fill="#000000" points="658.6157,1225.3594,668.6157,1229.3594,658.6157,1233.3594,662.6157,1229.3594" style="stroke:#000000;stroke-width:1;"/><line style="stroke:#000000;stroke-width:1;" x1="49.0015" x2="664.6157" y1="1229.3594" y2="1229.3594"/><text fill="#000000" font-family="Verdana" font-size="13" lengthAdjust="spacing" textLength="104.5205" x="56.0015" y="1224.2935">GET /fritz/status</text></g><g class="message" data-participant-1="docker" data-participant-2="service"><polygon fill="#000000" points="1042.2593,1254.4922,1052.2593,1258.4922,1042.2593,1262.4922,1046.2593,1258.4922" style="stroke:#000000;stroke-width:1;"/><line style="stroke:#000000;stroke-width:1;" x1="680.6157" x2="1048.2593" y1="1258.4922" y2="1258.4922"/><text fill="#000000" font-family="Verdana" font-size="13" lengthAdjust="spacing" textLength="109.8906" x="687.6157" y="1253.4263">get_fritz_status()</text></g><g class="message" data-participant-1="service" data-participant-2="config"><polygon fill="#000000" points="839.0356,1283.625,829.0356,1287.625,839.0356,1291.625,835.0356,1287.625" style="stroke:#000000;stroke-width:1;"/><line style="stroke:#000000;stroke-width:1;" x1="833.0356" x2="1053.2593" y1="1287.625" y2="1287.625"/><text fill="#000000" font-family="Verdana" font-size="13" lengthAdjust="spacing" textLength="89.832" x="845.0356" y="1282.5591">get_settings()</text></g><g class="message" data-participant-1="config" data-participant-2="service"><polygon fill="#000000" points="1042.2593,1312.7578,1052.2593,1316.7578,1042.2593,1320.7578,1046.2593,1316.7578" style="stroke:#000000;stroke-width:1;"/><line style="stroke:#000000;stroke-width:1;stroke-dasharray:2,2;" x1="828.0356" x2="1048.2593" y1="1316.7578" y2="1316.7578"/><text fill="#000000" font-family="Verdana" font-size="13" lengthAdjust="spacing" textLength="202.2236" x="835.0356" y="1311.6919">Settings(fritzbox_devices=[...])</text></g><rect fill="#FFFFFF" height="3" style="stroke:#FFFFFF;stroke-width:1;" width="1559.1221" x="5" y="1345.3242"/><line style="stroke:#000000;stroke-width:0.5;" x1="5" x2="1564.1221" y1="1345.3242" y2="1345.3242"/><line style="stroke:#000000;stroke-width:0.5;" x1="5" x2="1564.1221" y1="1348.3242" y2="1348.3242"/><rect fill="#FFFFFF" height="23.1328" style="stroke:#000000;stroke-width:1;" width="152.2646" x="708.4287" y="1334.7578"/><text fill="#000000" font-family="Verdana" font-size="13" font-weight="bold" lengthAdjust="spacing" textLength="133.7388" x="714.4287" y="1350.8247">Device Monitoring</text><g class="message" data-participant-1="service" data-participant-2="fritz1"><polygon fill="#000000" points="1203.333,1385.0234,1213.333,1389.0234,1203.333,1393.0234,1207.333,1389.0234" style="stroke:#000000;stroke-width:1;"/><line style="stroke:#000000;stroke-width:1;" x1="1064.2593" x2="1209.333" y1="1389.0234" y2="1389.0234"/><text fill="#000000" font-family="Verdana" font-size="13" lengthAdjust="spacing" textLength="119.3232" x="1071.2593" y="1383.9575">ping 192.168.10.1</text></g><g class="message" data-participant-1="fritz1" data-participant-2="service"><polygon fill="#000000" points="1075.2593,1414.1563,1065.2593,1418.1563,1075.2593,1422.1563,1071.2593,1418.1563" style="stroke:#000000;stroke-width:1;"/><line style="stroke:#000000;stroke-width:1;stroke-dasharray:2,2;" x1="1069.2593" x2="1219.333" y1="1418.1563" y2="1418.1563"/><text fill="#000000" font-family="Verdana" font-size="13" lengthAdjust="spacing" textLength="127.0737" x="1081.2593" y="1413.0903">ICMP Reply (2.5ms)</text></g><g class="message" data-participant-1="service" data-participant-2="fritz2"><polygon fill="#000000" points="1340.8486,1443.2891,1350.8486,1447.2891,1340.8486,1451.2891,1344.8486,1447.2891" style="stroke:#000000;stroke-width:1;"/><line style="stroke:#000000;stroke-width:1;" x1="1064.2593" x2="1346.8486" y1="1447.2891" y2="1447.2891"/><text fill="#000000" font-family="Verdana" font-size="13" lengthAdjust="spacing" textLength="119.3232" x="1071.2593" y="1442.2231">ping 192.168.20.1</text></g><g class="message" data-participant-1="fritz2" data-participant-2="service"><polygon fill="#000000" points="1075.2593,1472.4219,1065.2593,1476.4219,1075.2593,1480.4219,1071.2593,1476.4219" style="stroke:#000000;stroke-width:1;"/><line style="stroke:#000000;stroke-width:1;stroke-dasharray:2,2;" x1="1069.2593" x2="1356.8486" y1="1476.4219" y2="1476.4219"/><text fill="#000000" font-family="Verdana" font-size="13" lengthAdjust="spacing" textLength="127.0737" x="1081.2593" y="1471.356">ICMP Reply (3.1ms)</text></g><g class="message" data-participant-1="service" data-participant-2="fritz3"><polygon fill="#000000" points="1483.3643,1501.5547,1493.3643,1505.5547,1483.3643,1509.5547,1487.3643,1505.5547" style="stroke:#000000;stroke-width:1;"/><line style="stroke:#000000;stroke-width:1;" x1="1064.2593" x2="1489.3643" y1="1505.5547" y2="1505.5547"/><text fill="#000000" font-family="Verdana" font-size="13" lengthAdjust="spacing" textLength="119.3232" x="1071.2593" y="1500.4888">ping 192.168.30.1</text></g><g class="message" data-participant-1="fritz3" data-participant-2="service"><polygon fill="#000000" points="1075.2593,1530.6875,1065.2593,1534.6875,1075.2593,1538.6875,1071.2593,1534.6875" style="stroke:#000000;stroke-width:1;"/><line style="stroke:#000000;stroke-width:1;stroke-dasharray:2,2;" x1="1069.2593" x2="1494.3643" y1="1534.6875" y2="1534.6875"/><text fill="#000000" font-family="Verdana" font-size="13" lengthAdjust="spacing" textLength="127.0737" x="1081.2593" y="1529.6216">ICMP Reply (3.1ms)</text></g><rect fill="#FFFFFF" height="3" style="stroke:#FFFFFF;stroke-width:1;" width="1559.1221" x="5" y="1563.2539"/><line style="stroke:#000000;stroke-width:0.5;" x1="5" x2="1564.1221" y1="1563.2539" y2="1563.2539"/><line style="stroke:#000000;stroke-width:0.5;" x1="5" x2="1564.1221" y1="1566.2539" y2="1566.2539"/><rect fill="#FFFFFF" height="23.1328" style="stroke:#000000;stroke-width:1;" width="89.1372" x="739.9924" y="1552.6875"/><text fill="#000000" font-family="Verdana" font-size="13" font-weight="bold" lengthAdjust="spacing" textLength="70.6113" x="745.9924" y="1568.7544">Response</text><g class="message" data-participant-1="service" data-participant-2="docker"><polygon fill="#000000" points="691.6157,1602.9531,681.6157,1606.9531,691.6157,1610.9531,687.6157,1606.9531" style="stroke:#000000;stroke-width:1;"/><line style="stroke:#000000;stroke-width:1;stroke-dasharray:2,2;" x1="685.6157" x2="1058.2593" y1="1606.9531" y2="1606.9531"/><text fill="#000000" font-family="Verdana" font-size="13" lengthAdjust="spacing" textLength="132.2471" x="697.6157" y="1601.8872">List[FritzHostStatus]</text></g><g class="message" data-participant-1="docker" data-participant-2="dev"><polygon fill="#000000" points="60.0015,1632.0859,50.0015,1636.0859,60.0015,1640.0859,56.0015,1636.0859" style="stroke:#000000;stroke-width:1;"/><line style="stroke:#000000;stroke-width:1;stroke-dasharray:2,2;" x1="54.0015" x2="674.6157" y1="1636.0859" y2="1636.0859"/><text fill="#000000" font-family="Verdana" font-size="13" lengthAdjust="spacing" textLength="99.1948" x="66.0015" y="1631.02">JSON Response</text></g><!--SRC=[jLRDRkCs4BxhAHZtOX-YZIHqqHfGqJI9kocIjM6bswBhXS58j4r48haYvQnRzDXpxqKFVOm-pxv0Nw53Yf95sKdRGtMIoPdvHjytFpvH6r8G979CcISVA1Eun0Mwn-d3kkGLoovupalqoSGydgUeoWbAI5eIXIOvVnoZISaBv1EsHOh33wf-lESVq0LdZAIAShPWmwdGB-XyZ6QaFBqaMveIT56IZ315SIv7deTJ1JW3k2Cv5wGS82nHHhOU9AHeIWLc2Wqqp89DQ4xCFVnoxpEUFW12oWl1PMrZtrsxIsEtO92bWYzluCofQvbojg9hN-mMB25AKRQMDgm-TsrN-kEN1MSKliLOILBgRtNDMew21Gi-3_tWvMT-SEO7niF429vm2FSEeUCGFk4GxHqYno7ol3X6rv0fy0zwgagWEFOyO1oTVg69HMEj45QardRLgEoJ3xWGET6AqQs-roem3YybNMyKuYjpWk2PpA_lVlXg-lqoMBwQ9dTnzslx1jycL_FNvxTNCSuAgCNUxUmyIRwRpY_ZklI24y-r25s0y00WV1OWx0E4VO381OWE0A9d0Q8-G7JY4POXpPkd-Jq5rZNvO_JnzryiyrbFZtHJy0ozF3ipGXnnW-ugg9JGQxhqbD6uBN6KAAWHLsVR7E3kTWwgn5xVfeEQkpQVES6PVbske27RTFOnvr1M9KCFP7UwnNa5OmRJKdhTG3Kis9haT5VPP1-fsXYOBGQNDXVRecwvsKDD-FvhIv8IkYLo_BzNuhygHD_twuhw-DiVV_tvAtf39Rs7KKfPmm5bKi34t9U5PoyCfthQ04spdTh09CL28AaParsPp4IociDhLM8pTcyupc1k6Trje6x8PgpvkiMNGFbmrEFNHjRPtt0k44Kn2lIq3yvgTlMpuLB1EPV-cYWTPJLeIVc9_cne6OnQSxeo7dj__LGmBnc6VVHCd4QTJYpz22pb8o-pvrmRwNgk_uHu12qpAqpwe0F8DMpcRRtPXg3rQDJHyGZfRt1ECwsQgVFPBeEvJTDZbb_cPRLCSReXms3K6dHRHtT-8oBAGMmzEA0ApcVNq8BlAwA5sVTyw_VrrHrwORR12wWbLSbEmTd51LR0oR9URBKHL4TRSirwynhpRkBQKTgqXaxc- -1DsiELPN1fcOtV0edlHkOxxF-5stglDfNSWQnt9eGJ-j9fxJPLkrUjgPl5zSNj39WI-GuDG__J0lwFPAJlUG0OzW73Gy3GiwPF0qP-S0mmF0IC-e3Hau3HVmUi_n7CYHImFOXBSRTgRgXKRqt1luB-JKnDlEj6QugYAQPsGtsJJ5-t05qFExyx9tRYE2Vr4keSGQl-3G00]--></g></svg>