<svg xmlns="http://www.w3.org/2000/svg" xmlns:xlink="http://www.w3.org/1999/xlink" contentStyleType="text/css" data-diagram-type="SEQUENCE" height="1616px" preserveAspectRatio="none" style="width:1433px;height:1616px;background:#FFFFFF;" version="1.1" viewBox="0 0 1433 1616" width="1433px" zoomAndPan="magnify"><title>Secret Flow: From .env to Fritzbox Connection
(Option A: Per-Device Credentials)</title><defs/><g><text fill="#000000" font-family="Verdana" font-size="22" font-weight="bold" lengthAdjust="spacing" textLength="576.8555" x="426.8755" y="35.4209">Secret Flow: From .env to Fritzbox Connection</text><text fill="#000000" font-family="Verdana" font-size="22" font-weight="bold" lengthAdjust="spacing" textLength="428.0332" x="501.2866" y="61.0303">(Option A: Per-Device Credentials)</text><g><title>.env</title><rect fill="#FFFFFF" height="1288.5078" style="stroke:#000000;stroke-width:1;" width="10" x="270.8599" y="228.7813"/></g><g><title>docker-compose</title><rect fill="#FFFFFF" height="1002.9141" style="stroke:#000000;stroke-width:1;" width="10" x="452.4429" y="514.375"/></g><g><title>Docker</title><rect fill="#FFFFFF" height="915.5156" style="stroke:#000000;stroke-width:1;" width="10" x="670.6157" y="601.7734"/></g><g><title>config.py</title><rect fill="#FFFFFF" height="745.3203" style="stroke:#000000;stroke-width:1;" width="10" x="818.0356" y="771.9688"/></g><g><title>fritz_monitor</title><rect fill="#FFFFFF" height="290.1953" style="stroke:#000000;stroke-width:1;" width="10" x="1054.2593" y="1197.9609"/></g><g><title>Fritzbox 1</title><rect fill="#FFFFFF" height="29.1328" style="stroke:#000000;stroke-width:1;" width="10" x="1215.333" y="1328.4922"/></g><g><title>Fritzbox 2</title><rect fill="#FFFFFF" height="29.1328" style="stroke:#000000;stroke-width:1;" width="10" x="1352.8486" y="1386.7578"/></g><g><title>Developer</title><rect fill="#000000" fill-opacity="0.00000" height="1380.7734" width="8" x="45.0015" y="154.5156"/><line style="stroke:#000000;stroke-width:1;stroke-dasharray:5,5;" x1="49" x2="49" y1="154.5156" y2="1535.2891"/></g><g><title>.env</title><rect fill="#000000" fill-opacity="0.00000" height="1380.7734" width="8" x="271.8599" y="154.5156"/><line style="stroke:#000000;stroke-width:1;stroke-dasharray:5,5;" x1="275.749" x2="275.749" y1="154.5156" y2="1535.2891"/></g><g><title>docker-compose</title><rect fill="#000000" fill-opacity="0.00000" height="1380.7734" width="8" x="453.4429" y="154.5156"/><line style="stroke:#000000;stroke-width:1;stroke-dasharray:5,5;" x1="456.4741" x2="456.4741" y1="154.5156" y2="1535.2891"/></g><g><title>Docker</title><rect fill="#000000" fill-opacity="0.00000" height="1380.7734" width="8" x="671.6157" y="154.5156"/><line style="stroke:#000000;stroke-width:1;stroke-dasharray:5,5;" x1="675.4087" x2="675.4087" y1="154.5156" y2="1535.2891"/></g><g><title>config.py</title><rect fill="#000000" fill-opacity="0.00000" height="1380.7734" width="8" x="819.0356" y="154.5156"/><line style="stroke:#000000;stroke-width:1;stroke-dasharray:5,5;" x1="822.8042" x2="822.8042" y1="154.5156" y2="1535.2891"/></g><g><title>fritz_monitor</title><rect fill="#000000" fill-opacity="0.00000" height="1380.7734" width="8" x="1055.2593" y="154.5156"/><line style="stroke:#000000;stroke-width:1;stroke-dasharray:5,5;" x1="1058.665" x2="1058.665" y1="154.5156" y2="1535.2891"/></g><g><title>Fritzbox 1</title><rect fill="#000000" fill-opacity="0.00000" height="1380.7734" width="8" x="1216.333" y="154.5156"/><line style="stroke:#000000;stroke-width:1;stroke-dasharray:5,5;" x1="1219.5752" x2="1219.5752" y1="154.5156" y2="1535.2891"/></g><g><title>Fritzbox 2</title><rect fill="#000000" fill-opacity="0.00000" height="1380.7734" width="8" x="1353.8486" y="154.5156"/><line style="stroke:#000000;stroke-width:1;stroke-dasharray:5,5;" x1="1357.0908" x2="1357.0908" y1="154.5156" y2="1535.2891"/></g><g class="participant participant-head" data-participant="dev"><text fill="#000000" font-family="Verdana" font-size="14" lengthAdjust="spacing" textLength="72.0029" x="10" y="151.2139">Developer</text><ellipse cx="49.0015" cy="86.2188" fill="#FFFFFF" rx="8" ry="8" style="stroke:#000000;stroke-width:1;"/><path d="M49.0015,94.2188 L49.0015,121.2188 M36.0015,102.2188 L62.0015,102.2188 M49.0015,121.2188 L36.0015,136.2188 M49.0015,121.2188 L62.0015,136.2188" fill="none" style="stroke:#000000;stroke-width:1;"/></g><g class="participant participant-tail" data-participant="dev"><text fill="#000000" font-family="Verdana" font-size="14" lengthAdjust="spacing" textLength="72.0029" x="10" y="1547.2842">Developer</text><ellipse cx="49.0015" cy="1559.5859" fill="#FFFFFF" rx="8" ry="8" style="stroke:#000000;stroke-width:1;"/><path d="M49.0015,1567.5859 L49.0015,1594.5859 M36.0015,1575.5859 L62.0015,1575.5859 M49.0015,1594.5859 L36.0015,1609.5859 M49.0015,1594.5859 L62.0015,1609.5859" fill="none" style="stroke:#000000;stroke-width:1;"/></g><g class="participant participant-head" data-participant="env"><rect fill="#FFFFFF" height="46.5938" rx="2.5" ry="2.5" style="stroke:#000000;stroke-width:1;" width="44.2217" x="253.749" y="106.9219"/><text fill="#000000" font-family="Verdana" font-size="14" lengthAdjust="spacing" textLength="30.2217" x="260.749" y="126.917">.env</text><text fill="#000000" font-family="Verdana" font-size="14" lengthAdjust="spacing" textLength="24.4453" x="263.6372" y="143.2139">File</text></g><g class="participant participant-tail" data-participant="env"><rect fill="#FFFFFF" height="46.5938" rx="2.5" ry="2.5" style="stroke:#000000;stroke-width:1;" width="44.2217" x="253.749" y="1534.2891"/><text fill="#000000" font-family="Verdana" font-size="14" lengthAdjust="spacing" textLength="30.2217" x="260.749" y="1554.2842">.env</text><text fill="#000000" font-family="Verdana" font-size="14" lengthAdjust="spacing" textLength="24.4453" x="263.6372" y="1570.5811">File</text></g><g class="participant participant-head" data-participant="compose"><rect fill="#FFFFFF" height="30.2969" rx="2.5" ry="2.5" style="stroke:#000000;stroke-width:1;" width="129.9375" x="392.4741" y="123.2188"/><text fill="#000000" font-family="Verdana" font-size="14" lengthAdjust="spacing" textLength="115.9375" x="399.4741" y="143.2139">docker-compose</text></g><g class="participant participant-tail" data-participant="compose"><rect fill="#FFFFFF" height="30.2969" rx="2.5" ry="2.5" style="stroke:#000000;stroke-width:1;" width="129.9375" x="392.4741" y="1534.2891"/><text fill="#000000" font-family="Verdana" font-size="14" lengthAdjust="spacing" textLength="115.9375" x="399.4741" y="1554.2842">docker-compose</text></g><g class="participant participant-head" data-participant="docker"><rect fill="#FFFFFF" height="46.5938" rx="2.5" ry="2.5" style="stroke:#000000;stroke-width:1;" width="82.4141" x="634.4087" y="106.9219"/><text fill="#000000" font-family="Verdana" font-size="14" lengthAdjust="spacing" textLength="49.5195" x="650.856" y="126.917">Docker</text><text fill="#000000" font-family="Verdana" font-size="14" lengthAdjust="spacing" textLength="68.4141" x="641.4087" y="143.2139">Container</text></g><g class="participant participant-tail" data-participant="docker"><rect fill="#FFFFFF" height="46.5938" rx="2.5" ry="2.5" style="stroke:#000000;stroke-width:1;" width="82.4141" x="634.4087" y="1534.2891"/><text fill="#000000" font-family="Verdana" font-size="14" lengthAdjust="spacing" textLength="49.5195" x="650.856" y="1554.2842">Docker</text><text fill="#000000" font-family="Verdana" font-size="14" lengthAdjust="spacing" textLength="68.4141" x="641.4087" y="1570.5811">Container</text></g><g class="participant participant-head" data-participant="config"><rect fill="#FFFFFF" height="46.5938" rx="2.5" ry="2.5" style="stroke:#000000;stroke-width:1;" width="78.4629" x="783.8042" y="106.9219"/><text fill="#000000" font-family="Verdana" font-size="14" lengthAdjust="spacing" textLength="64.4629" x="790.8042" y="126.917">config.py</text><text fill="#000000" font-family="Verdana" font-size="14" lengthAdjust="spacing" textLength="57.4219" x="794.3247" y="143.2139">Settings</text></g><g class="participant participant-tail" data-participant="config"><rect fill="#FFFFFF" height="46.5938" rx="2.5" ry="2.5" style="stroke:#000000;stroke-width:1;" width="78.4629" x="783.8042" y="1534.2891"/><text fill="#000000" font-family="Verdana" font-size="14" lengthAdjust="spacing" textLength="64.4629" x="790.8042" y="1554.2842">config.py</text><text fill="#000000" font-family="Verdana" font-size="14" lengthAdjust="spacing" textLength="57.4219" x="794.3247" y="1570.5811">Settings</text></g><g class="participant participant-head" data-participant="service"><rect fill="#FFFFFF" height="30.2969" rx="2.5" ry="2.5" style="stroke:#000000;stroke-width:1;" width="103.1885" x="1007.665" y="123.2188"/><text fill="#000000" font-family="Verdana" font-size="14" lengthAdjust="spacing" textLength="89.1885" x="1014.665" y="143.2139">fritz_monitor</text></g><g class="participant participant-tail" data-participant="service"><rect fill="#FFFFFF" height="30.2969" rx="2.5" ry="2.5" style="stroke:#000000;stroke-width:1;" width="103.1885" x="1007.665" y="1534.2891"/><text fill="#000000" font-family="Verdana" font-size="14" lengthAdjust="spacing" textLength="89.1885" x="1014.665" y="1554.2842">fritz_monitor</text></g><g class="participant participant-head" data-participant="fritz1"><rect fill="#FFFFFF" height="46.5938" rx="2.5" ry="2.5" style="stroke:#000000;stroke-width:1;" width="107.5156" x="1166.5752" y="106.9219"/><text fill="#000000" font-family="Verdana" font-size="14" lengthAdjust="spacing" textLength="69.6309" x="1185.5176" y="126.917">Fritzbox 1</text><text fill="#000000" font-family="Verdana" font-size="14" lengthAdjust="spacing" textLength="93.5156" x="1173.5752" y="143.2139">192.168.10.1</text></g><g class="participant participant-tail" data-participant="fritz1"><rect fill="#FFFFFF" height="46.5938" rx="2.5" ry="2.5" style="stroke:#000000;stroke-width:1;" width="107.5156" x="1166.5752" y="1534.2891"/><text fill="#000000" font-family="Verdana" font-size="14" lengthAdjust="spacing" textLength="69.6309" x="1185.5176" y="1554.2842">Fritzbox 1</text><text fill="#000000" font-family="Verdana" font-size="14" lengthAdjust="spacing" textLength="93.5156" x="1173.5752" y="1570.5811">192.168.10.1</text></g><g class="participant participant-head" data-participant="fritz2"><rect fill="#FFFFFF" height="46.5938" rx="2.5" ry="2.5" style="stroke:#000000;stroke-width:1;" width="107.5156" x="1304.0908" y="106.9219"/><text fill="#000000" font-family="Verdana" font-size="14" lengthAdjust="spacing" textLength="69.6309" x="1323.0332" y="126.917">Fritzbox 2</text><text fill="#000000" font-family="Verdana" font-size="14" lengthAdjust="spacing" textLength="93.5156" x="1311.0908" y="143.2139">192.168.20.1</text></g><g class="participant participant-tail" data-participant="fritz2"><rect fill="#FFFFFF" height="46.5938" rx="2.5" ry="2.5" style="stroke:#000000;stroke-width:1;" width="107.5156" x="1304.0908" y="1534.2891"/><text fill="#000000" font-family="Verdana" font-size="14" lengthAdjust="spacing" textLength="69.6309" x="1323.0332" y="1554.2842">Fritzbox 2</text><text fill="#000000" font-family="Verdana" font-size="14" lengthAdjust="spacing" textLength="93.5156" x="1311.0908" y="1570.5811">192.168.20.1</text></g><g><title>.env</title><rect fill="#FFFFFF" height="1288.5078" style="stroke:#000000;stroke-width:1;" width="10" x="270.8599" y="228.7813"/></g><g><title>docker-compose</title><rect fill="#FFFFFF" height="1002.9141" style="stroke:#000000;stroke-width:1;" width="10" x="452.4429" y="514.375"/></g><g><title>Docker</title><rect fill="#FFFFFF" height="915.5156" style="stroke:#000000;stroke-width:1;" width="10" x="670.6157" y="601.7734"/></g><g><title>config.py</title><rect fill="#FFFFFF" height="745.3203" style="stroke:#000000;stroke-width:1;" width="10" x="818.0356" y="771.9688"/></g><g><title>fritz_monitor</title><rect fill="#FFFFFF" height="290.1953" style="stroke:#000000;stroke-width:1;" width="10" x="1054.2593" y="1197.9609"/></g><g><title>Fritzbox 1</title><rect fill="#FFFFFF" height="29.1328" style="stroke:#000000;stroke-width:1;" width="10" x="1215.333" y="1328.4922"/></g><g><title>Fritzbox 2</title><rect fill="#FFFFFF" height="29.1328" style="stroke:#000000;stroke-width:1;" width="10" x="1352.8486" y="1386.7578"/></g><rect fill="#FFFFFF" height="3" style="stroke:#FFFFFF;stroke-width:1;" width="1421.6064" x="5" y="185.082"/><line style="stroke:#000000;stroke-width:0.5;" x1="5" x2="1426.6064" y1="185.082" y2="185.082"/><line style="stroke:#000000;stroke-width:0.5;" x1="5" x2="1426.6064" y1="188.082" y2="188.082"/><rect fill="#FFFFFF" height="23.1328" style="stroke:#000000;stroke-width:1;" width="108.4531" x="661.5767" y="174.5156"/><text fill="#000000" font-family="Verdana" font-size="13" font-weight="bold" lengthAdjust="spacing" textLength="89.9272" x="667.5767" y="190.5825">Initial Setup</text><g class="message" data-participant-1="dev" data-participant-2="env"><polygon fill="#000000" points="258.8599,224.7813,268.8599,228.7813,258.8599,232.7813,262.8599,228.7813" style="stroke:#000000;stroke-width:1;"/><line style="stroke:#000000;stroke-width:1;" x1="49.0015" x2="264.8599" y1="228.7813" y2="228.7813"/><text fill="#000000" font-family="Verdana" font-size="13" lengthAdjust="spacing" textLength="202.8584" x="56.0015" y="223.7153">Create .env from .env.example</text></g><path d="M285,241.7813 L285,356.7813 L534,356.7813 L534,251.7813 L524,241.7813 L285,241.7813" fill="#FFFFFF" style="stroke:#000000;stroke-width:1;"/><path d="M524,241.7813 L524,251.7813 L534,251.7813 L524,241.7813" fill="#FFFFFF" style="stroke:#000000;stroke-width:1;"/><text fill="#000000" font-family="Verdana" font-size="13" lengthAdjust="spacing" textLength="220.4478" x="291" y="258.8481">FRITZBOX_1_HOST=192.168.10.1</text><text fill="#000000" font-family="Verdana" font-size="13" lengthAdjust="spacing" textLength="211.2056" x="291" y="273.981">FRITZBOX_1_USERNAME=admin</text><text fill="#000000" font-family="Verdana" font-size="13" lengthAdjust="spacing" textLength="228.0967" x="291" y="289.1138">FRITZBOX_1_PASSWORD=Secret1!</text><text fill="#000000" font-family="Verdana" font-size="13" lengthAdjust="spacing" textLength="4.1323" x="291" y="304.2466">&#160;</text><text fill="#000000" font-family="Verdana" font-size="13" lengthAdjust="spacing" textLength="220.4478" x="291" y="319.3794">FRITZBOX_2_HOST=192.168.20.1</text><text fill="#000000" font-family="Verdana" font-size="13" lengthAdjust="spacing" textLength="211.2056" x="291" y="334.5122">FRITZBOX_2_USERNAME=admin</text><text fill="#000000" font-family="Verdana" font-size="13" lengthAdjust="spacing" textLength="228.0967" x="291" y="349.645">FRITZBOX_2_PASSWORD=Secret2!</text><g class="message" data-participant-1="env" data-participant-2="dev"><polygon fill="#000000" points="60.0015,379.8438,50.0015,383.8438,60.0015,387.8438,56.0015,383.8438" style="stroke:#000000;stroke-width:1;"/><line style="stroke:#000000;stroke-width:1;stroke-dasharray:2,2;" x1="54.0015" x2="269.8599" y1="383.8438" y2="383.8438"/><text fill="#000000" font-family="Verdana" font-size="13" lengthAdjust="spacing" textLength="63.667" x="66.0015" y="378.7778">&#9989; Created</text></g><g class="message" data-participant-1="dev" data-participant-2="env"><polygon fill="#000000" points="258.8599,408.9766,268.8599,412.9766,258.8599,416.9766,262.8599,412.9766" style="stroke:#000000;stroke-width:1;"/><line style="stroke:#000000;stroke-width:1;" x1="49.0015" x2="264.8599" y1="412.9766" y2="412.9766"/><text fill="#000000" font-family="Verdana" font-size="13" lengthAdjust="spacing" textLength="105.3965" x="56.0015" y="407.9106">chmod 600 .env</text></g><g class="message" data-participant-1="env" data-participant-2="dev"><polygon fill="#000000" points="60.0015,438.1094,50.0015,442.1094,60.0015,446.1094,56.0015,442.1094" style="stroke:#000000;stroke-width:1;"/><line style="stroke:#000000;stroke-width:1;stroke-dasharray:2,2;" x1="54.0015" x2="269.8599" y1="442.1094" y2="442.1094"/><text fill="#000000" font-family="Verdana" font-size="13" lengthAdjust="spacing" textLength="113.5151" x="66.0015" y="437.0435">&#9989; Permissions set</text></g><rect fill="#FFFFFF" height="3" style="stroke:#FFFFFF;stroke-width:1;" width="1421.6064" x="5" y="470.6758"/><line style="stroke:#000000;stroke-width:0.5;" x1="5" x2="1426.6064" y1="470.6758" y2="470.6758"/><line style="stroke:#000000;stroke-width:0.5;" x1="5" x2="1426.6064" y1="473.6758" y2="473.6758"/><rect fill="#FFFFFF" height="23.1328" style="stroke:#000000;stroke-width:1;" width="150.2397" x="640.6833" y="460.1094"/><text fill="#000000" font-family="Verdana" font-size="13" font-weight="bold" lengthAdjust="spacing" textLength="131.7139" x="646.6833" y="476.1763">Container Startup</text><g class="message" data-participant-1="dev" data-participant-2="compose"><polygon fill="#000000" points="440.4429,510.375,450.4429,514.375,440.4429,518.375,444.4429,514.375" style="stroke:#000000;stroke-width:1;"/><line style="stroke:#000000;stroke-width:1;" x1="49.0015" x2="446.4429" y1="514.375" y2="514.375"/><text fill="#000000" font-family="Verdana" font-size="13" lengthAdjust="spacing" textLength="128.2798" x="56.0015" y="509.3091">docker-compose up</text></g><g class="message" data-participant-1="compose" data-participant-2="env"><polygon fill="#000000" points="291.8599,539.5078,281.8599,543.5078,291.8599,547.5078,287.8599,543.5078" style="stroke:#000000;stroke-width:1;"/><line style="stroke:#000000;stroke-width:1;" x1="285.8599" x2="451.4429" y1="543.5078" y2="543.5078"/><text fill="#000000" font-family="Verdana" font-size="13" lengthAdjust="spacing" textLength="87.6104" x="297.8599" y="538.4419">Read env_file</text></g><g class="message" data-participant-1="env" data-participant-2="compose"><polygon fill="#000000" points="440.4429,568.6406,450.4429,572.6406,440.4429,576.6406,444.4429,572.6406" style="stroke:#000000;stroke-width:1;"/><line style="stroke:#000000;stroke-width:1;stroke-dasharray:2,2;" x1="280.8599" x2="446.4429" y1="572.6406" y2="572.6406"/><text fill="#000000" font-family="Verdana" font-size="13" lengthAdjust="spacing" textLength="147.583" x="287.8599" y="567.5747">Return key-value pairs</text></g><g class="message" data-participant-1="compose" data-participant-2="docker"><polygon fill="#000000" points="658.6157,597.7734,668.6157,601.7734,658.6157,605.7734,662.6157,601.7734" style="stroke:#000000;stroke-width:1;"/><line style="stroke:#000000;stroke-width:1;" x1="462.4429" x2="664.6157" y1="601.7734" y2="601.7734"/><text fill="#000000" font-family="Verdana" font-size="13" lengthAdjust="spacing" textLength="189.1729" x="469.4429" y="596.7075">Start container with env vars</text></g><path d="M685,614.7734 L685,745.7734 L934,745.7734 L934,624.7734 L924,614.7734 L685,614.7734" fill="#FFFFFF" style="stroke:#000000;stroke-width:1;"/><path d="M924,614.7734 L924,624.7734 L934,624.7734 L924,614.7734" fill="#FFFFFF" style="stroke:#000000;stroke-width:1;"/><text fill="#000000" font-family="Verdana" font-size="13" lengthAdjust="spacing" textLength="126.604" x="691" y="631.8403">Container receives:</text><text fill="#000000" font-family="Verdana" font-size="13" lengthAdjust="spacing" textLength="220.4478" x="691" y="646.9731">FRITZBOX_1_HOST=192.168.10.1</text><text fill="#000000" font-family="Verdana" font-size="13" lengthAdjust="spacing" textLength="211.2056" x="691" y="662.106">FRITZBOX_1_USERNAME=admin</text><text fill="#000000" font-family="Verdana" font-size="13" lengthAdjust="spacing" textLength="228.0967" x="691" y="677.2388">FRITZBOX_1_PASSWORD=Secret1!</text><text fill="#000000" font-family="Verdana" font-size="13" lengthAdjust="spacing" textLength="220.4478" x="691" y="692.3716">FRITZBOX_2_HOST=192.168.20.1</text><text fill="#000000" font-family="Verdana" font-size="13" lengthAdjust="spacing" textLength="12.397" x="691" y="707.5044">...</text><text fill="#000000" font-family="Verdana" font-size="13" lengthAdjust="spacing" textLength="4.1323" x="691" y="722.6372">&#160;</text><text fill="#000000" font-family="Verdana" font-size="13" lengthAdjust="spacing" textLength="174.1289" x="691" y="737.77">&#9888;&#65039; Visible in docker inspect</text><g class="message" data-participant-1="docker" data-participant-2="config"><polygon fill="#000000" points="806.0356,767.9688,816.0356,771.9688,806.0356,775.9688,810.0356,771.9688" style="stroke:#000000;stroke-width:1;"/><line style="stroke:#000000;stroke-width:1;" x1="680.6157" x2="812.0356" y1="771.9688" y2="771.9688"/><text fill="#000000" font-family="Verdana" font-size="13" lengthAdjust="spacing" textLength="114.8481" x="687.6157" y="766.9028">Python app starts</text></g><rect fill="#FFFFFF" height="3" style="stroke:#FFFFFF;stroke-width:1;" width="1421.6064" x="5" y="800.5352"/><line style="stroke:#000000;stroke-width:0.5;" x1="5" x2="1426.6064" y1="800.5352" y2="800.5352"/><line style="stroke:#000000;stroke-width:0.5;" x1="5" x2="1426.6064" y1="803.5352" y2="803.5352"/><rect fill="#FFFFFF" height="23.1328" style="stroke:#000000;stroke-width:1;" width="181.8003" x="624.9031" y="789.9688"/><text fill="#000000" font-family="Verdana" font-size="13" font-weight="bold" lengthAdjust="spacing" textLength="163.2744" x="630.9031" y="806.0356">Configuration Loading</text><g class="message" data-participant-1="config" data-participant-2="config"><line style="stroke:#000000;stroke-width:1;" x1="828.0356" x2="870.0356" y1="844.2344" y2="844.2344"/><line style="stroke:#000000;stroke-width:1;" x1="870.0356" x2="870.0356" y1="844.2344" y2="857.2344"/><line style="stroke:#000000;stroke-width:1;" x1="829.0356" x2="870.0356" y1="857.2344" y2="857.2344"/><polygon fill="#000000" points="839.0356,853.2344,829.0356,857.2344,839.0356,861.2344,835.0356,857.2344" style="stroke:#000000;stroke-width:1;"/><text fill="#000000" font-family="Verdana" font-size="13" lengthAdjust="spacing" textLength="128.5654" x="835.0356" y="839.1685">Settings.from_env()</text></g><path d="M833,870.2344 L833,985.2344 L1233,985.2344 L1233,880.2344 L1223,870.2344 L833,870.2344" fill="#FFFFFF" style="stroke:#000000;stroke-width:1;"/><path d="M1223,870.2344 L1223,880.2344 L1233,880.2344 L1223,870.2344" fill="#FFFFFF" style="stroke:#000000;stroke-width:1;"/><text fill="#000000" font-family="Verdana" font-size="13" lengthAdjust="spacing" textLength="108.8115" x="839" y="887.3013">Loop i = 1 to 10:</text><text fill="#000000" font-family="Verdana" font-size="13" lengthAdjust="spacing" textLength="272.6382" x="855.5293" y="902.4341">host = os.getenv(f"FRITZBOX_{i}_HOST")</text><text fill="#000000" font-family="Verdana" font-size="13" lengthAdjust="spacing" textLength="44.7637" x="855.5293" y="917.5669">if host:</text><text fill="#000000" font-family="Verdana" font-size="13" lengthAdjust="spacing" textLength="346.6582" x="872.0586" y="932.6997">username = os.getenv(f"FRITZBOX_{i}_USERNAME")</text><text fill="#000000" font-family="Verdana" font-size="13" lengthAdjust="spacing" textLength="345.687" x="872.0586" y="947.8325">password = os.getenv(f"FRITZBOX_{i}_PASSWORD")</text><text fill="#000000" font-family="Verdana" font-size="13" lengthAdjust="spacing" textLength="283.2896" x="872.0586" y="962.9653">name = os.getenv(f"FRITZBOX_{i}_NAME")</text><text fill="#000000" font-family="Verdana" font-size="13" lengthAdjust="spacing" textLength="231.9624" x="872.0586" y="978.0981">devices.append(FritzboxDevice(...))</text><g class="message" data-participant-1="config" data-participant-2="config"><line style="stroke:#000000;stroke-width:1;" x1="828.0356" x2="870.0356" y1="1012.2969" y2="1012.2969"/><line style="stroke:#000000;stroke-width:1;" x1="870.0356" x2="870.0356" y1="1012.2969" y2="1025.2969"/><line style="stroke:#000000;stroke-width:1;" x1="829.0356" x2="870.0356" y1="1025.2969" y2="1025.2969"/><polygon fill="#000000" points="839.0356,1021.2969,829.0356,1025.2969,839.0356,1029.2969,835.0356,1025.2969" style="stroke:#000000;stroke-width:1;"/><text fill="#000000" font-family="Verdana" font-size="13" lengthAdjust="spacing" textLength="145.0884" x="835.0356" y="1007.231">Validate with Pydantic</text></g><g class="message" data-participant-1="config" data-participant-2="config"><line style="stroke:#000000;stroke-width:1;" x1="828.0356" x2="870.0356" y1="1054.4297" y2="1054.4297"/><line style="stroke:#000000;stroke-width:1;" x1="870.0356" x2="870.0356" y1="1054.4297" y2="1067.4297"/><line style="stroke:#000000;stroke-width:1;" x1="829.0356" x2="870.0356" y1="1067.4297" y2="1067.4297"/><polygon fill="#000000" points="839.0356,1063.4297,829.0356,1067.4297,839.0356,1071.4297,835.0356,1067.4297" style="stroke:#000000;stroke-width:1;"/><text fill="#000000" font-family="Verdana" font-size="13" lengthAdjust="spacing" textLength="93.6089" x="835.0356" y="1049.3638">@lru_cache(1)</text></g><g class="message" data-participant-1="config" data-participant-2="docker"><polygon fill="#000000" points="691.6157,1092.5625,681.6157,1096.5625,691.6157,1100.5625,687.6157,1096.5625" style="stroke:#000000;stroke-width:1;"/><line style="stroke:#000000;stroke-width:1;stroke-dasharray:2,2;" x1="685.6157" x2="817.0356" y1="1096.5625" y2="1096.5625"/><text fill="#000000" font-family="Verdana" font-size="13" lengthAdjust="spacing" textLength="113.4199" x="697.6157" y="1091.4966">&#9989; Settings loaded</text></g><rect fill="#FFFFFF" height="3" style="stroke:#FFFFFF;stroke-width:1;" width="1421.6064" x="5" y="1125.1289"/><line style="stroke:#000000;stroke-width:0.5;" x1="5" x2="1426.6064" y1="1125.1289" y2="1125.1289"/><line style="stroke:#000000;stroke-width:0.5;" x1="5" x2="1426.6064" y1="1128.1289" y2="1128.1289"/><rect fill="#FFFFFF" height="23.1328" style="stroke:#000000;stroke-width:1;" width="107.6343" x="661.9861" y="1114.5625"/><text fill="#000000" font-family="Verdana" font-size="13" font-weight="bold" lengthAdjust="spacing" textLength="89.1084" x="667.9861" y="1130.6294">API Request</text><g class="message" data-participant-1="dev" data-participant-2="docker"><polygon fill="#000000" points="658.6157,1164.8281,668.6157,1168.8281,658.6157,1172.8281,662.6157,1168.8281" style="stroke:#000000;stroke-width:1;"/><line style="stroke:#000000;stroke-width:1;" x1="49.0015" x2="664.6157" y1="1168.8281" y2="1168.8281"/><text fill="#000000" font-family="Verdana" font-size="13" lengthAdjust="spacing" textLength="104.5205" x="56.0015" y="1163.7622">GET /fritz/status</text></g><g class="message" data-participant-1="docker" data-participant-2="service"><polygon fill="#000000" points="1042.2593,1193.9609,1052.2593,1197.9609,1042.2593,1201.9609,1046.2593,1197.9609" style="stroke:#000000;stroke-width:1;"/><line style="stroke:#000000;stroke-width:1;" x1="680.6157" x2="1048.2593" y1="1197.9609" y2="1197.9609"/><text fill="#000000" font-family="Verdana" font-size="13" lengthAdjust="spacing" textLength="109.8906" x="687.6157" y="1192.895">get_fritz_status()</text></g><g class="message" data-participant-1="service" data-participant-2="config"><polygon fill="#000000" points="839.0356,1223.0938,829.0356,1227.0938,839.0356,1231.0938,835.0356,1227.0938" style="stroke:#000000;stroke-width:1;"/><line style="stroke:#000000;stroke-width:1;" x1="833.0356" x2="1053.2593" y1="1227.0938" y2="1227.0938"/><text fill="#000000" font-family="Verdana" font-size="13" lengthAdjust="spacing" textLength="89.832" x="845.0356" y="1222.0278">get_settings()</text></g><g class="message" data-participant-1="config" data-participant-2="service"><polygon fill="#000000" points="1042.2593,1252.2266,1052.2593,1256.2266,1042.2593,1260.2266,1046.2593,1256.2266" style="stroke:#000000;stroke-width:1;"/><line style="stroke:#000000;stroke-width:1;stroke-dasharray:2,2;" x1="828.0356" x2="1048.2593" y1="1256.2266" y2="1256.2266"/><text fill="#000000" font-family="Verdana" font-size="13" lengthAdjust="spacing" textLength="202.2236" x="835.0356" y="1251.1606">Settings(fritzbox_devices=[...])</text></g><rect fill="#FFFFFF" height="3" style="stroke:#FFFFFF;stroke-width:1;" width="1421.6064" x="5" y="1284.793"/><line style="stroke:#000000;stroke-width:0.5;" x1="5" x2="1426.6064" y1="1284.793" y2="1284.793"/><line style="stroke:#000000;stroke-width:0.5;" x1="5" x2="1426.6064" y1="1287.793" y2="1287.793"/><rect fill="#FFFFFF" height="23.1328" style="stroke:#000000;stroke-width:1;" width="152.2646" x="639.6709" y="1274.2266"/><text fill="#000000" font-family="Verdana" font-size="13" font-weight="bold" lengthAdjust="spacing" textLength="133.7388" x="645.6709" y="1290.2935">Device Monitoring</text><g class="message" data-participant-1="service" data-participant-2="fritz1"><polygon fill="#000000" points="1203.333,1324.4922,1213.333,1328.4922,1203.333,1332.4922,1207.333,1328.4922" style="stroke:#000000;stroke-width:1;"/><line style="stroke:#000000;stroke-width:1;" x1="1064.2593" x2="1209.333" y1="1328.4922" y2="1328.4922"/><text fill="#000000" font-family="Verdana" font-size="13" lengthAdjust="spacing" textLength="119.3232" x="1071.2593" y="1323.4263">ping 192.168.10.1</text></g><g class="message" data-participant-1="fritz1" data-participant-2="service"><polygon fill="#000000" points="1075.2593,1353.625,1065.2593,1357.625,1075.2593,1361.625,1071.2593,1357.625" style="stroke:#000000;stroke-width:1;"/><line style="stroke:#000000;stroke-width:1;stroke-dasharray:2,2;" x1="1069.2593" x2="1219.333" y1="1357.625" y2="1357.625"/><text fill="#000000" font-family="Verdana" font-size="13" lengthAdjust="spacing" textLength="127.0737" x="1081.2593" y="1352.5591">ICMP Reply (2.5ms)</text></g><g class="message" data-participant-1="service" data-participant-2="fritz2"><polygon fill="#000000" points="1340.8486,1382.7578,1350.8486,1386.7578,1340.8486,1390.7578,1344.8486,1386.7578" style="stroke:#000000;stroke-width:1;"/><line style="stroke:#000000;stroke-width:1;" x1="1064.2593" x2="1346.8486" y1="1386.7578" y2="1386.7578"/><text fill="#000000" font-family="Verdana" font-size="13" lengthAdjust="spacing" textLength="119.3232" x="1071.2593" y="1381.6919">ping 192.168.20.1</text></g><g class="message" data-participant-1="fritz2" data-participant-2="service"><polygon fill="#000000" points="1075.2593,1411.8906,1065.2593,1415.8906,1075.2593,1419.8906,1071.2593,1415.8906" style="stroke:#000000;stroke-width:1;"/><line style="stroke:#000000;stroke-width:1;stroke-dasharray:2,2;" x1="1069.2593" x2="1356.8486" y1="1415.8906" y2="1415.8906"/><text fill="#000000" font-family="Verdana" font-size="13" lengthAdjust="spacing" textLength="127.0737" x="1081.2593" y="1410.8247">ICMP Reply (3.1ms)</text></g><rect fill="#FFFFFF" height="3" style="stroke:#FFFFFF;stroke-width:1;" width="1421.6064" x="5" y="1444.457"/><line style="stroke:#000000;stroke-width:0.5;" x1="5" x2="1426.6064" y1="1444.457" y2="1444.457"/><line style="stroke:#000000;stroke-width:0.5;" x1="5" x2="1426.6064" y1="1447.457" y2="1447.457"/><rect fill="#FFFFFF" height="23.1328" style="stroke:#000000;stroke-width:1;" width="89.1372" x="671.2346" y="1433.8906"/><text fill="#000000" font-family="Verdana" font-size="13" font-weight="bold" lengthAdjust="spacing" textLength="70.6113" x="677.2346" y="1449.9575">Response</text><g class="message" data-participant-1="service" data-participant-2="docker"><polygon fill="#000000" points="691.6157,1484.1563,681.6157,1488.1563,691.6157,1492.1563,687.6157,1488.1563" style="stroke:#000000;stroke-width:1;"/><line style="stroke:#000000;stroke-width:1;stroke-dasharray:2,2;" x1="685.6157" x2="1058.2593" y1="1488.1563" y2="1488.1563"/><text fill="#000000" font-family="Verdana" font-size="13" lengthAdjust="spacing" textLength="132.2471" x="697.6157" y="1483.0903">List[FritzHostStatus]</text></g><g class="message" data-participant-1="docker" data-participant-2="dev"><polygon fill="#000000" points="60.0015,1513.2891,50.0015,1517.2891,60.0015,1521.2891,56.0015,1517.2891" style="stroke:#000000;stroke-width:1;"/><line style="stroke:#000000;stroke-width:1;stroke-dasharray:2,2;" x1="54.0015" x2="674.6157" y1="1517.2891" y2="1517.2891"/><text fill="#000000" font-family="Verdana" font-size="13" lengthAdjust="spacing" textLength="99.1948" x="66.0015" y="1512.2231">JSON Response</text></g><!--SRC=[jLLDSjis5Dxp5C_gHbgOCPb9fj4CEt5jAt77ZZIYatOIPJGm2KaOam12W7BKJfPTTv_98iV8UNA1NA4F84YHik9s4wv0uFtX-pwyTw1NDASWCyAufsuObwGWELoJv6PPY9Ad9o8J1Vmqif_dQQOp2Z5D2gfXb8dR8OmAaODF-Hgqm1-c_xmMx-54S4uJpGIVyVvOcWKS3s52YyDJkcO9XPE2ffHhHZ8ry3oIQCpJmpEQ2KcB7X05ALrxM91c2PE4Q-YPD3C-OXcrv_ZNFKz5SeCP4f5BeIeRj-xQdLgx6SSgDTwyJcTtkvQ9u0kszELcncEgDUDBvSAQ_Qxjmbn-dWlEy2xMIj72tBLhrc0Kp7Zm9FI3np_xmP4VM0yR8_YEGxXr23iEeUT54PnZOeGJwT6bX2ZoF0GG3dynEC7G04uqhQXQrAJvz3t9PKOD0MnjpWseNE2YOCkL1h6mEu3VQ7f-zVhNyH_pOFvy75z5xU9t3Lx6PzCNnvTd4KbpbDREwUGuZdyVJq-ZIad1WTUr2Bi9mZi9mdiJXBi9mWEFyXJCjJnp_KC4nM0pXA-V_dR0f3jm9QjSfF3uwCZYjCSDjPmpfL3PXcXjAMW41R562hiqE2cYUrUdKCej_BLUwxEcdYabgLdE5oZ_ffnjp2coNd2uePl3DSbAVDI45Sfh1whIegqjpcZO5NlBzCgcMHDqQMfn3wAh1hTf0D_Ujg09PMkgXZzSAFzB9xxlLuhw-l7pjo__m2kcs3KsBiPh31XN4llJLXQUEx2OchUDC4qsUeLzYqW9oY2csZJPz-yunsLP4DlaBWH9iKjOtbsWTiYwYVZc1SuHylvW1ryNsLH_8OG41X44fhS6HnMwvbi9fN5VA7z9jOcow3MW_CK-M5XwWyQSBQp7rjzy9NOdJh3xtnEdPgSLotoIA7KhYlG-rvgw7TV_ohWdMse7XlAH1wIhNxV3QexqaUl1eCNZ7j1VaOobXZMhyyacnRRAadsMJxEYd2SaMT5-C6WCsa_7lFoQHCYGRDCuK0N7atDyWkzAQeZPlld6xzdP5JompVe1QacNgYKuDoRG2Z6PLsEaCa9rD9AhXubNcxSBDuxAbTNlLBuDNfVTNpW4vmxPw0s2-7PWx-6cysKrnMebjr9M4mh3INFOUTfDgMwAETDk5USdbnD4IcORw8V-enodVqftFUya37SJXdSJXfup_Nx2XtwmBs4rFwTKIMpcj7lZDeaNJEatLd_FyJd5bgAtxMWrHpMtpS3uBHw_Q1AqFLmxRUsu1j3PgMP2QmjVphy0]--></g></svg>