<svg xmlns="http://www.w3.org/2000/svg" xmlns:xlink="http://www.w3.org/1999/xlink" contentStyleType="text/css" data-diagram-type="DESCRIPTION" height="811px" preserveAspectRatio="none" style="width:1076px;height:811px;background:#FFFFFF;" version="1.1" viewBox="0 0 1076 811" width="1076px" zoomAndPan="magnify"><title>Deployment Architecture: Docker Compose</title><defs/><g><g class="title" data-source-line="4"><text fill="#000000" font-family="sans-serif" font-size="14" font-weight="bold" lengthAdjust="spacing" textLength="341.1885" x="360.691" y="22.9951">Deployment Architecture: Docker Compose</text></g><!--cluster Host System--><g class="cluster" data-entity="Host System" data-source-line="6" data-uid="ent0002" id="cluster_Host System"><path d="M8.5,79.3269 L109.0518,79.3269 A3.75,3.75 0 0 1 111.5518,81.8269 L118.5518,101.6237 L863.5,101.6237 A2.5,2.5 0 0 1 866,104.1237 L866,337.5369 A2.5,2.5 0 0 1 863.5,340.0369 L8.5,340.0369 A2.5,2.5 0 0 1 6,337.5369 L6,81.8269 A2.5,2.5 0 0 1 8.5,79.3269" fill="none" style="stroke:#000000;stroke-width:1.5;"/><line style="stroke:#000000;stroke-width:1.5;" x1="6" x2="118.5518" y1="101.6237" y2="101.6237"/><text fill="#000000" font-family="sans-serif" font-size="14" font-weight="bold" lengthAdjust="spacing" textLength="99.5518" x="10" y="94.322">Host System</text></g><!--cluster Project Files--><g class="cluster" data-entity="Project Files" data-source-line="12" data-uid="ent0006" id="cluster_Project Files"><path d="M310.5,122.3269 L409.4316,122.3269 A3.75,3.75 0 0 1 411.9316,124.8269 L418.9316,144.6237 L713.5,144.6237 A2.5,2.5 0 0 1 716,147.1237 L716,207.1169 A2.5,2.5 0 0 1 713.5,209.6169 L310.5,209.6169 A2.5,2.5 0 0 1 308,207.1169 L308,124.8269 A2.5,2.5 0 0 1 310.5,122.3269" fill="none" style="stroke:#000000;stroke-width:1.5;"/><line style="stroke:#000000;stroke-width:1.5;" x1="308" x2="418.9316" y1="144.6237" y2="144.6237"/><text fill="#000000" font-family="sans-serif" font-size="14" font-weight="bold" lengthAdjust="spacing" textLength="97.9316" x="312" y="137.322">Project Files</text></g><!--cluster Documentation--><g class="cluster" data-entity="Documentation" data-source-line="18" data-uid="ent0010" id="cluster_Documentation"><path d="M150.5,122.3269 L272.2705,122.3269 A3.75,3.75 0 0 1 274.7705,124.8269 L281.7705,144.6237 L281.5,144.6237 A2.5,2.5 0 0 1 284,147.1237 L284,207.1169 A2.5,2.5 0 0 1 281.5,209.6169 L150.5,209.6169 A2.5,2.5 0 0 1 148,207.1169 L148,124.8269 A2.5,2.5 0 0 1 150.5,122.3269" fill="none" style="stroke:#000000;stroke-width:1.5;"/><line style="stroke:#000000;stroke-width:1.5;" x1="148" x2="281.7705" y1="144.6237" y2="144.6237"/><text fill="#000000" font-family="sans-serif" font-size="14" font-weight="bold" lengthAdjust="spacing" textLength="120.7705" x="152" y="137.322">Documentation</text></g><!--cluster Docker Container--><g class="cluster" data-entity="Docker Container" data-source-line="23" data-uid="ent0012" id="cluster_Docker Container"><path d="M46.5,389.0369 L184.7861,389.0369 A3.75,3.75 0 0 1 187.2861,391.5369 L194.2861,411.3338 L340.5,411.3338 A2.5,2.5 0 0 1 343,413.8338 L343,631.5769 A2.5,2.5 0 0 1 340.5,634.0769 L46.5,634.0769 A2.5,2.5 0 0 1 44,631.5769 L44,391.5369 A2.5,2.5 0 0 1 46.5,389.0369" fill="none" style="stroke:#000000;stroke-width:1.5;"/><line style="stroke:#000000;stroke-width:1.5;" x1="44" x2="194.2861" y1="411.3338" y2="411.3338"/><text fill="#000000" font-family="sans-serif" font-size="14" font-weight="bold" lengthAdjust="spacing" textLength="137.2861" x="48" y="404.032">Docker Container</text></g><!--cluster Network--><g class="cluster" data-entity="Network" data-source-line="29" data-uid="ent0016" id="cluster_Network"><path d="M70.6312,691.457 C81.2684,676.7863 94.6997,676.8428 102.2501,694.4781 C108.4993,679.5022 119.3561,678.5462 130.0967,689.6898 C139.2917,677.1431 153.7175,675.655 161.6824,691.0789 C170.2282,676.6236 179.2273,676.4177 189.3633,689.4792 C198.3706,678.2846 206.6114,678.5182 215.9277,689.1024 C224.2165,673.8526 237.0101,673.9002 246.9483,687.3176 C256.0288,672.6722 269.267,675.5614 276.0157,689.6745 C284.0518,677.0043 295.7204,672.7272 305.6546,687.6345 C315.5028,674.4431 326.3289,672.3319 336.8822,686.8396 C347.7906,675.5155 358.6909,676.5666 365.0282,691.702 C372.3618,677.1939 386.7691,676.2229 395.973,689.6286 C407.214,674.955 416.1215,679.0406 425.0372,692.0683 C432.1674,679.0173 445.4117,677.4507 453.8543,690.6263 C466.7649,675.8236 482.8249,681.1063 489,698.0769 C489.9397,698.6787 489.8025,699.4061 489.0154,700.0216 C512.4324,709.1744 511.0229,723.4124 495.5972,739.1061 C509.4154,757.565 503.173,772.2346 482,778.6669 C482.6537,778.6782 483.0882,779.196 482.6956,779.832 C477.4725,791.5596 465.1176,792.8896 457.654,782.3519 C449.0256,795.1427 433.4087,796.6893 425.9163,781.0823 C419.0848,794.0149 404.321,798.0243 395.88,782.7991 C390.197,796.4405 378.341,798.1261 368.3708,787.6994 C356.7492,800.0006 347.3485,801.1154 338.0854,785.1707 C329.7374,804.1566 319.5253,804.6282 306.349,789.6871 C297.5759,802.2313 287.6955,800.7435 279.3968,789.1572 C268.8454,801.9884 255.777,801.8773 247.3067,786.7671 C235.9581,798.6073 226.4941,799.6305 217.0732,784.5983 C207.9557,799.4896 199.6477,797.154 190.1038,785.0239 C180.8751,796.9627 168.0519,795.9489 160.1143,783.4401 C151.349,800.6628 140.4929,798.9573 128.8924,786.414 C119.1974,798.8152 109.49,798.3524 102.7405,783.5793 C83.5419,798.4519 68.6774,797.164 61,771.6669 C63.3099,769.2857 65.3668,769.9964 66.3763,772.972 C49.4673,766.1757 41.1026,751.1918 58.184,736.7153 C36.6575,716.1902 44.7352,701.9682 68,691.0769 C68.9827,689.8166 70.0259,690.1051 70.6312,691.457" fill="none" style="stroke:#181818;stroke-width:1;"/><text fill="#000000" font-family="sans-serif" font-size="14" font-weight="bold" lengthAdjust="spacing" textLength="66.6709" x="241.6646" y="709.072">Network</text></g><!--entity env--><g class="entity" data-entity="env" data-source-line="8" data-uid="ent0003" id="entity_env"><rect fill="#FFE6E6" height="52.5938" rx="2.5" ry="2.5" style="stroke:#181818;stroke-width:0.5;" width="109.7559" x="22.12" y="149.1769"/><text fill="#000000" font-family="sans-serif" font-size="14" lengthAdjust="spacing" textLength="30.2217" x="32.12" y="172.172">.env</text><text fill="#000000" font-family="sans-serif" font-size="14" lengthAdjust="spacing" textLength="89.7559" x="32.12" y="188.4689">(chmod 600)</text></g><!--entity env_example--><g class="entity" data-entity="env_example" data-source-line="9" data-uid="ent0004" id="entity_env_example"><rect fill="#E6FFE6" height="52.5938" rx="2.5" ry="2.5" style="stroke:#181818;stroke-width:0.5;" width="115.1768" x="734.41" y="149.1769"/><text fill="#000000" font-family="sans-serif" font-size="14" lengthAdjust="spacing" textLength="95.1768" x="744.41" y="172.172">.env.example</text><text fill="#000000" font-family="sans-serif" font-size="14" lengthAdjust="spacing" textLength="77.1846" x="744.41" y="188.4689">(Template)</text></g><!--entity compose--><g class="entity" data-entity="compose" data-source-line="10" data-uid="ent0005" id="entity_compose"><rect fill="#F1F1F1" height="36.2969" rx="2.5" ry="2.5" style="stroke:#181818;stroke-width:0.5;" width="166.2002" x="27.9" y="287.7369"/><text fill="#000000" font-family="sans-serif" font-size="14" lengthAdjust="spacing" textLength="146.2002" x="37.9" y="310.732">docker-compose.yml</text></g><!--entity config--><g class="entity" data-entity="config" data-source-line="13" data-uid="ent0007" id="entity_config"><rect fill="#F1F1F1" height="36.2969" rx="2.5" ry="2.5" style="stroke:#181818;stroke-width:0.5;" width="115.5322" x="324.23" y="157.3269"/><text fill="#000000" font-family="sans-serif" font-size="14" lengthAdjust="spacing" textLength="95.5322" x="334.23" y="180.322">app/config.py</text></g><!--entity services--><g class="entity" data-entity="services" data-source-line="14" data-uid="ent0008" id="entity_services"><rect fill="#F1F1F1" height="36.2969" rx="2.5" ry="2.5" style="stroke:#181818;stroke-width:0.5;" width="113.2285" x="474.39" y="157.3269"/><text fill="#000000" font-family="sans-serif" font-size="14" lengthAdjust="spacing" textLength="93.2285" x="484.39" y="180.322">app/services/</text></g><!--entity api--><g class="entity" data-entity="api" data-source-line="15" data-uid="ent0009" id="entity_api"><rect fill="#F1F1F1" height="36.2969" rx="2.5" ry="2.5" style="stroke:#181818;stroke-width:0.5;" width="77.1416" x="622.43" y="157.3269"/><text fill="#000000" font-family="sans-serif" font-size="14" lengthAdjust="spacing" textLength="57.1416" x="632.43" y="180.322">app/api/</text></g><!--entity docs--><g class="entity" data-entity="docs" data-source-line="19" data-uid="ent0011" id="entity_docs"><rect fill="#F1F1F1" height="36.2969" rx="2.5" ry="2.5" style="stroke:#181818;stroke-width:0.5;" width="91.1348" x="171.43" y="157.3269"/><text fill="#000000" font-family="sans-serif" font-size="14" lengthAdjust="spacing" textLength="71.1348" x="181.43" y="180.322">docs/*.md</text></g><!--entity envvars--><g class="entity" data-entity="envvars" data-source-line="24" data-uid="ent0013" id="entity_envvars"><rect fill="#FFE6E6" height="52.5938" rx="2.5" ry="2.5" style="stroke:#181818;stroke-width:0.5;" width="109.7012" x="60.15" y="424.0369"/><text fill="#000000" font-family="sans-serif" font-size="14" lengthAdjust="spacing" textLength="89.7012" x="70.15" y="447.032">Environment</text><text fill="#000000" font-family="sans-serif" font-size="14" lengthAdjust="spacing" textLength="65.0645" x="70.15" y="463.3289">Variables</text></g><!--entity python--><g class="entity" data-entity="python" data-source-line="25" data-uid="ent0014" id="entity_python"><rect fill="#F1F1F1" height="52.5938" rx="2.5" ry="2.5" style="stroke:#181818;stroke-width:0.5;" width="103.3643" x="223.32" y="565.4769"/><text fill="#000000" font-family="sans-serif" font-size="14" lengthAdjust="spacing" textLength="48.5283" x="233.32" y="588.472">Python</text><text fill="#000000" font-family="sans-serif" font-size="14" lengthAdjust="spacing" textLength="83.3643" x="233.32" y="604.7689">FastAPI App</text></g><!--entity volume--><g class="entity" data-entity="volume" data-source-line="26" data-uid="ent0015" id="entity_volume"><rect fill="#F1F1F1" height="52.5938" rx="2.5" ry="2.5" style="stroke:#181818;stroke-width:0.5;" width="121.4863" x="205.26" y="424.0369"/><text fill="#000000" font-family="sans-serif" font-size="14" lengthAdjust="spacing" textLength="101.4863" x="215.26" y="447.032">Volume Mount</text><text fill="#000000" font-family="sans-serif" font-size="14" lengthAdjust="spacing" textLength="35.5195" x="215.26" y="463.3289">./app</text></g><!--entity fb1--><g class="entity" data-entity="fb1" data-source-line="30" data-uid="ent0017" id="entity_fb1"><rect fill="#F1F1F1" height="52.5938" rx="2.5" ry="2.5" style="stroke:#181818;stroke-width:0.5;" width="113.5156" x="69.24" y="718.0769"/><text fill="#000000" font-family="sans-serif" font-size="14" lengthAdjust="spacing" textLength="69.6309" x="79.24" y="741.072">Fritzbox 1</text><text fill="#000000" font-family="sans-serif" font-size="14" lengthAdjust="spacing" textLength="93.5156" x="79.24" y="757.3689">192.168.10.1</text></g><!--entity fb2--><g class="entity" data-entity="fb2" data-source-line="31" data-uid="ent0018" id="entity_fb2"><rect fill="#F1F1F1" height="52.5938" rx="2.5" ry="2.5" style="stroke:#181818;stroke-width:0.5;" width="113.5156" x="218.24" y="718.0769"/><text fill="#000000" font-family="sans-serif" font-size="14" lengthAdjust="spacing" textLength="69.6309" x="228.24" y="741.072">Fritzbox 2</text><text fill="#000000" font-family="sans-serif" font-size="14" lengthAdjust="spacing" textLength="93.5156" x="228.24" y="757.3689">192.168.20.1</text></g><!--entity fb3--><g class="entity" data-entity="fb3" data-source-line="32" data-uid="ent0019" id="entity_fb3"><rect fill="#F1F1F1" height="52.5938" rx="2.5" ry="2.5" style="stroke:#181818;stroke-width:0.5;" width="113.5156" x="367.24" y="718.0769"/><text fill="#000000" font-family="sans-serif" font-size="14" lengthAdjust="spacing" textLength="69.6309" x="377.24" y="741.072">Fritzbox 3</text><text fill="#000000" font-family="sans-serif" font-size="14" lengthAdjust="spacing" textLength="93.5156" x="377.24" y="757.3689">192.168.30.1</text></g><!--entity User--><g class="entity" data-entity="User" data-source-line="35" data-uid="ent0020" id="entity_User"><ellipse cx="448.9951" cy="420.6869" fill="#F1F1F1" rx="8" ry="8" style="stroke:#181818;stroke-width:0.5;"/><path d="M448.9951,428.6869 L448.9951,455.6869 M435.9951,436.6869 L461.9951,436.6869 M448.9951,455.6869 L435.9951,470.6869 M448.9951,455.6869 L461.9951,470.6869" fill="none" style="stroke:#181818;stroke-width:0.5;"/><text fill="#000000" font-family="sans-serif" font-size="14" lengthAdjust="spacing" textLength="31.9102" x="433.04" y="485.182">User</text></g><g class="entity" data-entity="GMN29" data-source-line="49" data-uid="ent0030" id="entity_GMN29"><path d="M884.42,140.2069 L884.42,210.7381 L1069.5704,210.7381 L1069.5704,150.2069 L1059.5704,140.2069 L884.42,140.2069" fill="#FEFFDD" style="stroke:#181818;stroke-width:0.5;"/><path d="M1059.5704,140.2069 L1059.5704,150.2069 L1069.5704,150.2069 L1059.5704,140.2069" fill="#FEFFDD" style="stroke:#181818;stroke-width:1;"/><text fill="#000000" font-family="sans-serif" font-size="13" lengthAdjust="spacing" textLength="131.2505" x="890.42" y="157.2738">SECURITY CRITICAL:</text><text fill="#000000" font-family="sans-serif" font-size="13" lengthAdjust="spacing" textLength="139.1279" x="890.42" y="172.4066">- Never commit to git</text><text fill="#000000" font-family="sans-serif" font-size="13" lengthAdjust="spacing" textLength="164.1504" x="890.42" y="187.5394">- chmod 600 permissions</text><text fill="#000000" font-family="sans-serif" font-size="13" lengthAdjust="spacing" textLength="158.6597" x="890.42" y="202.6722">- Backup encrypted only</text></g><g class="entity" data-entity="GMN32" data-source-line="56" data-uid="ent0033" id="entity_GMN32"><path d="M500.03,415.0669 L500.03,485.5981 L689.9602,485.5981 L689.9602,425.0669 L679.9602,415.0669 L500.03,415.0669" fill="#FEFFDD" style="stroke:#181818;stroke-width:0.5;"/><path d="M679.9602,415.0669 L679.9602,425.0669 L689.9602,425.0669 L679.9602,415.0669" fill="#FEFFDD" style="stroke:#181818;stroke-width:1;"/><text fill="#000000" font-family="sans-serif" font-size="13" lengthAdjust="spacing" textLength="79.0728" x="506.03" y="432.1338">LIMITATION:</text><text fill="#000000" font-family="sans-serif" font-size="13" lengthAdjust="spacing" textLength="167.1655" x="506.03" y="447.2666">- Visible in docker inspect</text><text fill="#000000" font-family="sans-serif" font-size="13" lengthAdjust="spacing" textLength="148.2939" x="506.03" y="462.3994">- Not encrypted at rest</text><text fill="#000000" font-family="sans-serif" font-size="13" lengthAdjust="spacing" textLength="168.9302" x="506.03" y="477.5322">- Consider Docker Secrets</text></g><!--link env to compose--><g class="link" data-entity-1="env" data-entity-2="compose" data-source-line="37" data-uid="lnk21" id="link_env_compose"><path d="M83.8,202.1469 C90.5,227.4769 99.0349,259.6866 104.8549,281.6766" fill="none" id="env-to-compose" style="stroke:#181818;stroke-width:1;"/><polygon fill="#181818" points="106.39,287.4769,107.9542,277.753,105.1107,282.6433,100.2204,279.7999,106.39,287.4769" style="stroke:#181818;stroke-width:1;"/><text fill="#000000" font-family="sans-serif" font-size="13" lengthAdjust="spacing" textLength="50.229" x="100" y="253.8038">env_file</text></g><!--link compose to envvars--><g class="link" data-entity-1="compose" data-entity-2="envvars" data-source-line="38" data-uid="lnk22" id="link_compose_envvars"><path d="M111.49,324.3569 C112.19,349.2369 113.3129,389.0692 114.1129,417.7792" fill="none" id="compose-to-envvars" style="stroke:#181818;stroke-width:1;"/><polygon fill="#181818" points="114.28,423.7769,118.0278,414.669,114.1407,418.7788,110.0309,414.8918,114.28,423.7769" style="stroke:#181818;stroke-width:1;"/><text fill="#000000" font-family="sans-serif" font-size="13" lengthAdjust="spacing" textLength="91.3872" x="114" y="369.1038">Load env vars</text></g><!--link envvars to python--><g class="link" data-entity-1="envvars" data-entity-2="python" data-source-line="39" data-uid="lnk23" id="link_envvars_python"><path d="M144.35,476.9069 C173.13,501.9869 212.2369,536.0746 241.0469,561.1846" fill="none" id="envvars-to-python" style="stroke:#181818;stroke-width:1;"/><polygon fill="#181818" points="245.57,565.1269,241.4135,556.1981,241.8007,561.8417,236.1571,562.2289,245.57,565.1269" style="stroke:#181818;stroke-width:1;"/><text fill="#000000" font-family="sans-serif" font-size="13" lengthAdjust="spacing" textLength="74.2803" x="210" y="531.5438">os.getenv()</text></g><!--link config to python--><g class="link" data-entity-1="config" data-entity-2="python" data-source-line="40" data-uid="lnk24" id="link_config_python"><path d="M382.68,194.0469 C383.97,242.6269 383.7,382.1469 344,488.4769 C333.29,517.1769 316.7747,541.0649 300.9647,560.6849" fill="none" id="config-to-python" style="stroke:#181818;stroke-width:1;"/><polygon fill="#181818" points="297.2,565.3569,305.9617,560.8588,300.3372,561.4636,299.7324,555.8392,297.2,565.3569" style="stroke:#181818;stroke-width:1;"/><text fill="#000000" font-family="sans-serif" font-size="13" lengthAdjust="spacing" textLength="56.9956" x="375" y="369.1038">Mounted</text></g><!--link python to fb1--><g class="link" data-entity-1="python" data-entity-2="fb1" data-source-line="42" data-uid="lnk25" id="link_python_fb1"><path d="M240.62,618.3069 C228.6,627.7969 215.3,638.9669 204,650.0769 C182.32,671.3869 164.0299,693.4979 148.9499,712.9179" fill="none" id="python-to-fb1" style="stroke:#181818;stroke-width:1;"/><polygon fill="#181818" points="145.27,717.6569,153.9492,713.0017,148.3366,713.7077,147.6306,708.0951,145.27,717.6569" style="stroke:#181818;stroke-width:1;"/><text fill="#000000" font-family="sans-serif" font-size="13" lengthAdjust="spacing" textLength="61.5659" x="205" y="663.1438">ping / API</text></g><!--link python to fb2--><g class="link" data-entity-1="python" data-entity-2="fb2" data-source-line="43" data-uid="lnk26" id="link_python_fb2"><path d="M275,618.3269 C275,646.0169 275,683.9569 275,711.6969" fill="none" id="python-to-fb2" style="stroke:#181818;stroke-width:1;"/><polygon fill="#181818" points="275,717.6969,279,708.6969,275,712.6969,271,708.6969,275,717.6969" style="stroke:#181818;stroke-width:1;"/><text fill="#000000" font-family="sans-serif" font-size="13" lengthAdjust="spacing" textLength="61.5659" x="276" y="663.1438">ping / API</text></g><!--link python to fb3--><g class="link" data-entity-1="python" data-entity-2="fb3" data-source-line="44" data-uid="lnk27" id="link_python_fb3"><path d="M309.38,618.3069 C321.4,627.7969 334.7,638.9669 346,650.0769 C367.68,671.3869 385.9701,693.4979 401.0501,712.9179" fill="none" id="python-to-fb3" style="stroke:#181818;stroke-width:1;"/><polygon fill="#181818" points="404.73,717.6569,402.3694,708.0951,401.6634,713.7077,396.0508,713.0017,404.73,717.6569" style="stroke:#181818;stroke-width:1;"/><text fill="#000000" font-family="sans-serif" font-size="13" lengthAdjust="spacing" textLength="61.5659" x="363" y="663.1438">ping / API</text></g><!--link User to python--><g class="link" data-entity-1="User" data-entity-2="python" data-source-line="46" data-uid="lnk28" id="link_User_python"><path d="M436.45,488.9569 C429.55,504.9869 419.58,522.8569 406,535.4769 C383.94,555.9869 358.865,567.6488 332.675,576.1788" fill="none" id="User-to-python" style="stroke:#181818;stroke-width:1;"/><polygon fill="#181818" points="326.97,578.0369,336.7663,579.0531,331.7242,576.4884,334.2888,571.4464,326.97,578.0369" style="stroke:#181818;stroke-width:1;"/><text fill="#000000" font-family="sans-serif" font-size="13" lengthAdjust="spacing" textLength="75.0928" x="420" y="531.5438">HTTP :8000</text></g><!--link env to GMN29--><g class="link" data-entity-1="env" data-entity-2="GMN29" data-source-line="49" data-uid="lnk31" id="link_env_GMN29"><path d="M88.03,148.9269 C102.32,118.8169 130.48,71.8669 172.5,56.3269 C207.72,43.2969 813.28,43.2969 848.5,56.3269 C891.59,72.2569 928.55,110.8469 951.63,139.8269" fill="none" id="env-GMN29" style="stroke:#181818;stroke-width:1;stroke-dasharray:7,7;"/></g><!--link envvars to GMN32--><g class="link" data-entity-1="envvars" data-entity-2="GMN32" data-source-line="56" data-uid="lnk34" id="link_envvars_GMN32"><path d="M133.83,423.7169 C150.13,403.1869 175.72,376.3569 205.5,364.5369 C258.99,343.2969 409.36,348.0369 464.5,364.5369 C497.62,374.4469 530.12,395.7669 554.4,414.6769" fill="none" id="envvars-GMN32" style="stroke:#181818;stroke-width:1;stroke-dasharray:7,7;"/></g><!--SRC=[VLHjYnen4Fw-lsBO-t9NS7q3kVgXO3tb1CzAzOI2K68shgcxIKYYlRro_xsJx8jMjFcmR6QUUUR9p2HcpuKYccH0PQQaOC8kR9uoq8nQ8fAK1QQ6R0ZT9reUH3oKgTHmD_Oh22ot6FB4L2hp32bWeEcEMwGuQDQ79qdtJCFGPJ0i21Joa8H1-2oDXKLkBCj2-1C4WAjE3674n74jxkakap7qMgs748W1DBhCezweToqWOcyaKod3m2N37s9P7VUpzC7TgESOBkDZBxH12w5HdgK-abR27RmMFzVo5uR2cAVCEFbGhZD2ebIJIh7bIQJoailjRc4DqqTEcMbwRBMxXIQA5q3yyPYF2ubO-8Fh1x5SYXiIySoc-IdAOi_aTYNLnrcZwWuY5nTCLrndF2Dnv5eAbsujLaHpil5rAIf_9DhSwjeyjpifrc9CZ1tC9p1GoeSfRxz4hsIAPu8N74DC564H2lJHsvrgcif33E6CsTzIxwz87MjktpVo3TfhqVxSYTgznwZTYjgUPxjftyHtJlZE2T-vYU-UyDqJlkj44chn1hrYYuF0JNIZyQMQC-X3w8PrYuCL1fNH0Qf28c0gIUolWZE4GULngA9k3YHDb32Blli7H-GcxmBXoyZY47jTs9mRI-1yYei4ce0j2V_rTlxhxLvw0tVAYxpFo-KS-e-jLWlzGbfyS7Yoio2txb2-e8lHyFNxPFa3XlYT30VJlZStOCQEo8TroRW5Ao7XjlJKBmKefZDk38wzANrVSPOF2jcfpXKU6QH8SwnR32xz5H6kdZvsEdcPB0VBoRTPfM353SVf1YwWU3BmpoWSW4gXj6U9YCNXC9KFxv3XCOQKTsh1g6RMr4h-0W00]--></g></svg>