<svg xmlns="http://www.w3.org/2000/svg" xmlns:xlink="http://www.w3.org/1999/xlink" contentStyleType="text/css" data-diagram-type="SEQUENCE" height="930px" preserveAspectRatio="none" style="width:984px;height:930px;background:#FFFFFF;" version="1.1" viewBox="0 0 984 930" width="984px" zoomAndPan="magnify"><title>Option A Security: Per-Device Credential Isolation</title><defs/><g><text fill="#000000" font-family="Verdana" font-size="22" font-weight="bold" lengthAdjust="spacing" textLength="620.4795" x="180.5876" y="35.4209">Option A Security: Per-Device Credential Isolation</text><g><title>.env File</title><rect fill="#FFFFFF" height="47.2656" style="stroke:#000000;stroke-width:1;" width="10" x="381.4683" y="221.3047"/></g><g><title>.env File</title><rect fill="#FFFFFF" height="29.1328" style="stroke:#000000;stroke-width:1;" width="10" x="381.4683" y="663.2969"/></g><g><title>Fritzbox 1</title><rect fill="#FFFFFF" height="32.1328" style="stroke:#000000;stroke-width:1;" width="10" x="489.8423" y="297.7031"/></g><g><title>Fritzbox 1</title><rect fill="#FFFFFF" height="32.1328" style="stroke:#000000;stroke-width:1;" width="10" x="489.8423" y="599.0313"/></g><g><title>Fritzbox 1</title><rect fill="#FFFFFF" height="29.1328" style="stroke:#000000;stroke-width:1;" width="10" x="489.8423" y="721.5625"/></g><g><title>Fritzbox 2</title><rect fill="#FFFFFF" height="32.1328" style="stroke:#000000;stroke-width:1;" width="10" x="603.4731" y="361.9688"/></g><g><title>Fritzbox 3</title><rect fill="#FFFFFF" height="32.1328" style="stroke:#000000;stroke-width:1;" width="10" x="717.104" y="426.2344"/></g><g><title>Attacker</title><rect fill="#000000" fill-opacity="0.00000" height="720.3203" width="8" x="45.6543" y="128.9063"/><line style="stroke:#000000;stroke-width:1;stroke-dasharray:5,5;" x1="49" x2="49" y1="128.9063" y2="849.2266"/></g><g><title>Admin</title><rect fill="#000000" fill-opacity="0.00000" height="720.3203" width="8" x="113.7407" y="128.9063"/><line style="stroke:#000000;stroke-width:1;stroke-dasharray:5,5;" x1="117.3086" x2="117.3086" y1="128.9063" y2="849.2266"/></g><g><title>.env File</title><rect fill="#000000" fill-opacity="0.00000" height="720.3203" width="8" x="382.4683" y="128.9063"/><line style="stroke:#000000;stroke-width:1;stroke-dasharray:5,5;" x1="385.9097" x2="385.9097" y1="128.9063" y2="849.2266"/></g><g><title>Fritzbox 1</title><rect fill="#000000" fill-opacity="0.00000" height="720.3203" width="8" x="490.8423" y="128.9063"/><line style="stroke:#000000;stroke-width:1;stroke-dasharray:5,5;" x1="494.0269" x2="494.0269" y1="128.9063" y2="849.2266"/></g><g><title>Fritzbox 2</title><rect fill="#000000" fill-opacity="0.00000" height="720.3203" width="8" x="604.4731" y="128.9063"/><line style="stroke:#000000;stroke-width:1;stroke-dasharray:5,5;" x1="607.6577" x2="607.6577" y1="128.9063" y2="849.2266"/></g><g><title>Fritzbox 3</title><rect fill="#000000" fill-opacity="0.00000" height="720.3203" width="8" x="718.104" y="128.9063"/><line style="stroke:#000000;stroke-width:1;stroke-dasharray:5,5;" x1="721.2886" x2="721.2886" y1="128.9063" y2="849.2266"/></g><g class="participant participant-head" data-participant="Attacker"><text fill="#000000" font-family="Verdana" font-size="14" lengthAdjust="spacing" textLength="59.3086" x="17" y="125.6045">Attacker</text><ellipse cx="49.6543" cy="60.6094" fill="#FFFFFF" rx="8" ry="8" style="stroke:#000000;stroke-width:1;"/><path d="M49.6543,68.6094 L49.6543,95.6094 M36.6543,76.6094 L62.6543,76.6094 M49.6543,95.6094 L36.6543,110.6094 M49.6543,95.6094 L62.6543,110.6094" fill="none" style="stroke:#000000;stroke-width:1;"/></g><g class="participant participant-tail" data-participant="Attacker"><text fill="#000000" font-family="Verdana" font-size="14" lengthAdjust="spacing" textLength="59.3086" x="17" y="861.2217">Attacker</text><ellipse cx="49.6543" cy="873.5234" fill="#FFFFFF" rx="8" ry="8" style="stroke:#000000;stroke-width:1;"/><path d="M49.6543,881.5234 L49.6543,908.5234 M36.6543,889.5234 L62.6543,889.5234 M49.6543,908.5234 L36.6543,923.5234 M49.6543,908.5234 L62.6543,923.5234" fill="none" style="stroke:#000000;stroke-width:1;"/></g><g class="participant participant-head" data-participant="Admin"><text fill="#000000" font-family="Verdana" font-size="14" lengthAdjust="spacing" textLength="44.8643" x="92.3086" y="125.6045">Admin</text><ellipse cx="117.7407" cy="60.6094" fill="#FFFFFF" rx="8" ry="8" style="stroke:#000000;stroke-width:1;"/><path d="M117.7407,68.6094 L117.7407,95.6094 M104.7407,76.6094 L130.7407,76.6094 M117.7407,95.6094 L104.7407,110.6094 M117.7407,95.6094 L130.7407,110.6094" fill="none" style="stroke:#000000;stroke-width:1;"/></g><g class="participant participant-tail" data-participant="Admin"><text fill="#000000" font-family="Verdana" font-size="14" lengthAdjust="spacing" textLength="44.8643" x="92.3086" y="861.2217">Admin</text><ellipse cx="117.7407" cy="873.5234" fill="#FFFFFF" rx="8" ry="8" style="stroke:#000000;stroke-width:1;"/><path d="M117.7407,881.5234 L117.7407,908.5234 M104.7407,889.5234 L130.7407,889.5234 M117.7407,908.5234 L104.7407,923.5234 M117.7407,908.5234 L130.7407,923.5234" fill="none" style="stroke:#000000;stroke-width:1;"/></g><g class="participant participant-head" data-participant="Env"><rect fill="#FFFFFF" height="30.2969" rx="2.5" ry="2.5" style="stroke:#000000;stroke-width:1;" width="73.1172" x="349.9097" y="97.6094"/><text fill="#000000" font-family="Verdana" font-size="14" lengthAdjust="spacing" textLength="59.1172" x="356.9097" y="117.6045">.env File</text></g><g class="participant participant-tail" data-participant="Env"><rect fill="#FFFFFF" height="30.2969" rx="2.5" ry="2.5" style="stroke:#000000;stroke-width:1;" width="73.1172" x="349.9097" y="848.2266"/><text fill="#000000" font-family="Verdana" font-size="14" lengthAdjust="spacing" textLength="59.1172" x="356.9097" y="868.2217">.env File</text></g><g class="participant participant-head" data-participant="FB1"><rect fill="#FFFFFF" height="30.2969" rx="2.5" ry="2.5" style="stroke:#000000;stroke-width:1;" width="83.6309" x="453.0269" y="97.6094"/><text fill="#000000" font-family="Verdana" font-size="14" lengthAdjust="spacing" textLength="69.6309" x="460.0269" y="117.6045">Fritzbox 1</text></g><g class="participant participant-tail" data-participant="FB1"><rect fill="#FFFFFF" height="30.2969" rx="2.5" ry="2.5" style="stroke:#000000;stroke-width:1;" width="83.6309" x="453.0269" y="848.2266"/><text fill="#000000" font-family="Verdana" font-size="14" lengthAdjust="spacing" textLength="69.6309" x="460.0269" y="868.2217">Fritzbox 1</text></g><g class="participant participant-head" data-participant="FB2"><rect fill="#FFFFFF" height="30.2969" rx="2.5" ry="2.5" style="stroke:#000000;stroke-width:1;" width="83.6309" x="566.6577" y="97.6094"/><text fill="#000000" font-family="Verdana" font-size="14" lengthAdjust="spacing" textLength="69.6309" x="573.6577" y="117.6045">Fritzbox 2</text></g><g class="participant participant-tail" data-participant="FB2"><rect fill="#FFFFFF" height="30.2969" rx="2.5" ry="2.5" style="stroke:#000000;stroke-width:1;" width="83.6309" x="566.6577" y="848.2266"/><text fill="#000000" font-family="Verdana" font-size="14" lengthAdjust="spacing" textLength="69.6309" x="573.6577" y="868.2217">Fritzbox 2</text></g><g class="participant participant-head" data-participant="FB3"><rect fill="#FFFFFF" height="30.2969" rx="2.5" ry="2.5" style="stroke:#000000;stroke-width:1;" width="83.6309" x="680.2886" y="97.6094"/><text fill="#000000" font-family="Verdana" font-size="14" lengthAdjust="spacing" textLength="69.6309" x="687.2886" y="117.6045">Fritzbox 3</text></g><g class="participant participant-tail" data-participant="FB3"><rect fill="#FFFFFF" height="30.2969" rx="2.5" ry="2.5" style="stroke:#000000;stroke-width:1;" width="83.6309" x="680.2886" y="848.2266"/><text fill="#000000" font-family="Verdana" font-size="14" lengthAdjust="spacing" textLength="69.6309" x="687.2886" y="868.2217">Fritzbox 3</text></g><g><title>.env File</title><rect fill="#FFFFFF" height="47.2656" style="stroke:#000000;stroke-width:1;" width="10" x="381.4683" y="221.3047"/></g><g><title>.env File</title><rect fill="#FFFFFF" height="29.1328" style="stroke:#000000;stroke-width:1;" width="10" x="381.4683" y="663.2969"/></g><g><title>Fritzbox 1</title><rect fill="#FFFFFF" height="32.1328" style="stroke:#000000;stroke-width:1;" width="10" x="489.8423" y="297.7031"/></g><g><title>Fritzbox 1</title><rect fill="#FFFFFF" height="32.1328" style="stroke:#000000;stroke-width:1;" width="10" x="489.8423" y="599.0313"/></g><g><title>Fritzbox 1</title><rect fill="#FFFFFF" height="29.1328" style="stroke:#000000;stroke-width:1;" width="10" x="489.8423" y="721.5625"/></g><g><title>Fritzbox 2</title><rect fill="#FFFFFF" height="32.1328" style="stroke:#000000;stroke-width:1;" width="10" x="603.4731" y="361.9688"/></g><g><title>Fritzbox 3</title><rect fill="#FFFFFF" height="32.1328" style="stroke:#000000;stroke-width:1;" width="10" x="717.104" y="426.2344"/></g><rect fill="#FFFFFF" height="3" style="stroke:#FFFFFF;stroke-width:1;" width="972.6548" x="5" y="159.4727"/><line style="stroke:#000000;stroke-width:0.5;" x1="5" x2="977.6548" y1="159.4727" y2="159.4727"/><line style="stroke:#000000;stroke-width:0.5;" x1="5" x2="977.6548" y1="162.4727" y2="162.4727"/><rect fill="#FFFFFF" height="23.1328" style="stroke:#000000;stroke-width:1;" width="216.814" x="382.9204" y="148.9063"/><text fill="#000000" font-family="Verdana" font-size="13" font-weight="bold" lengthAdjust="spacing" textLength="198.2881" x="388.9204" y="164.9731">Attack: Credentials Leaked</text><g class="message" data-participant-1="Attacker" data-participant-2="Env"><polygon fill="#000000" points="369.4683,217.3047,379.4683,221.3047,369.4683,225.3047,373.4683,221.3047" style="stroke:#000000;stroke-width:1;"/><line style="stroke:#000000;stroke-width:1;" x1="49.6543" x2="375.4683" y1="221.3047" y2="221.3047"/><text fill="#000000" font-family="Verdana" font-size="13" lengthAdjust="spacing" textLength="137.8521" x="56.6543" y="216.2388">Leak .env via backup</text></g><path d="M396,187.0391 L396,242.0391 L673,242.0391 L673,197.0391 L663,187.0391 L396,187.0391" fill="#FFFFFF" style="stroke:#000000;stroke-width:1;"/><path d="M663,187.0391 L663,197.0391 L673,197.0391 L663,187.0391" fill="#FFFFFF" style="stroke:#000000;stroke-width:1;"/><text fill="#000000" font-family="Verdana" font-size="13" lengthAdjust="spacing" textLength="256.2549" x="402" y="204.106">FRITZBOX_1_PASSWORD=UniquePass1</text><text fill="#000000" font-family="Verdana" font-size="13" lengthAdjust="spacing" textLength="256.2549" x="402" y="219.2388">FRITZBOX_2_PASSWORD=UniquePass2</text><text fill="#000000" font-family="Verdana" font-size="13" lengthAdjust="spacing" textLength="256.2549" x="402" y="234.3716">FRITZBOX_3_PASSWORD=UniquePass3</text><g class="message" data-participant-1="Env" data-participant-2="Attacker"><polygon fill="#000000" points="60.6543,264.5703,50.6543,268.5703,60.6543,272.5703,56.6543,268.5703" style="stroke:#000000;stroke-width:1;"/><line style="stroke:#000000;stroke-width:1;stroke-dasharray:2,2;" x1="54.6543" x2="385.4683" y1="268.5703" y2="268.5703"/><text fill="#000000" font-family="Verdana" font-size="13" lengthAdjust="spacing" textLength="151.3408" x="66.6543" y="263.5044">All credentials exposed</text></g><g class="message" data-participant-1="Attacker" data-participant-2="FB1"><polygon fill="#000000" points="477.8423,293.7031,487.8423,297.7031,477.8423,301.7031,481.8423,297.7031" style="stroke:#000000;stroke-width:1;"/><line style="stroke:#000000;stroke-width:1;" x1="49.6543" x2="483.8423" y1="297.7031" y2="297.7031"/><text fill="#000000" font-family="Verdana" font-size="13" lengthAdjust="spacing" textLength="172.4023" x="56.6543" y="292.6372">Login: admin:UniquePass1</text></g><g class="message" data-participant-1="FB1" data-participant-2="Attacker"><polygon fill="#000000" points="60.6543,325.8359,50.6543,329.8359,60.6543,333.8359,56.6543,329.8359" style="stroke:#000000;stroke-width:1;"/><line style="stroke:#000000;stroke-width:1;stroke-dasharray:2,2;" x1="54.6543" x2="493.8423" y1="329.8359" y2="329.8359"/><text fill="#000000" font-family="Verdana" font-size="13" lengthAdjust="spacing" textLength="100.0137" x="66.6543" y="324.77">Access granted</text></g><path d="M504,310.7031 L504,335.7031 L624,335.7031 L624,320.7031 L614,310.7031 L504,310.7031" fill="#FFFFFF" style="stroke:#000000;stroke-width:1;"/><path d="M614,310.7031 L614,320.7031 L624,320.7031 L614,310.7031" fill="#FFFFFF" style="stroke:#000000;stroke-width:1;"/><text fill="#000000" font-family="Verdana" font-size="13" lengthAdjust="spacing" textLength="99.1567" x="510" y="327.77">COMPROMISED</text><g class="message" data-participant-1="Attacker" data-participant-2="FB2"><polygon fill="#000000" points="591.4731,357.9688,601.4731,361.9688,591.4731,365.9688,595.4731,361.9688" style="stroke:#000000;stroke-width:1;"/><line style="stroke:#000000;stroke-width:1;" x1="49.6543" x2="597.4731" y1="361.9688" y2="361.9688"/><text fill="#000000" font-family="Verdana" font-size="13" lengthAdjust="spacing" textLength="158.082" x="56.6543" y="356.9028">Try: admin:UniquePass1</text></g><g class="message" data-participant-1="FB2" data-participant-2="Attacker"><polygon fill="#000000" points="60.6543,390.1016,50.6543,394.1016,60.6543,398.1016,56.6543,394.1016" style="stroke:#000000;stroke-width:1;"/><line style="stroke:#000000;stroke-width:1;stroke-dasharray:2,2;" x1="54.6543" x2="607.4731" y1="394.1016" y2="394.1016"/><text fill="#000000" font-family="Verdana" font-size="13" lengthAdjust="spacing" textLength="135.5796" x="66.6543" y="389.0356">Authentication failed</text></g><path d="M618,374.9688 L618,399.9688 L853,399.9688 L853,384.9688 L843,374.9688 L618,374.9688" fill="#FFFFFF" style="stroke:#000000;stroke-width:1;"/><path d="M843,374.9688 L843,384.9688 L853,384.9688 L843,374.9688" fill="#FFFFFF" style="stroke:#000000;stroke-width:1;"/><text fill="#000000" font-family="Verdana" font-size="13" lengthAdjust="spacing" textLength="214.5508" x="624" y="392.0356">PROTECTED (different password)</text><g class="message" data-participant-1="Attacker" data-participant-2="FB3"><polygon fill="#000000" points="705.104,422.2344,715.104,426.2344,705.104,430.2344,709.104,426.2344" style="stroke:#000000;stroke-width:1;"/><line style="stroke:#000000;stroke-width:1;" x1="49.6543" x2="711.104" y1="426.2344" y2="426.2344"/><text fill="#000000" font-family="Verdana" font-size="13" lengthAdjust="spacing" textLength="158.082" x="56.6543" y="421.1685">Try: admin:UniquePass1</text></g><g class="message" data-participant-1="FB3" data-participant-2="Attacker"><polygon fill="#000000" points="60.6543,454.3672,50.6543,458.3672,60.6543,462.3672,56.6543,458.3672" style="stroke:#000000;stroke-width:1;"/><line style="stroke:#000000;stroke-width:1;stroke-dasharray:2,2;" x1="54.6543" x2="721.104" y1="458.3672" y2="458.3672"/><text fill="#000000" font-family="Verdana" font-size="13" lengthAdjust="spacing" textLength="135.5796" x="66.6543" y="453.3013">Authentication failed</text></g><path d="M732,439.2344 L732,464.2344 L967,464.2344 L967,449.2344 L957,439.2344 L732,439.2344" fill="#FFFFFF" style="stroke:#000000;stroke-width:1;"/><path d="M957,439.2344 L957,449.2344 L967,449.2344 L957,439.2344" fill="#FFFFFF" style="stroke:#000000;stroke-width:1;"/><text fill="#000000" font-family="Verdana" font-size="13" lengthAdjust="spacing" textLength="214.5508" x="738" y="456.3013">PROTECTED (different password)</text><path d="M10,474.3672 L10,529.3672 L761,529.3672 L761,484.3672 L751,474.3672 L10,474.3672" fill="#FFFFFF" style="stroke:#000000;stroke-width:1;"/><path d="M751,474.3672 L751,484.3672 L761,484.3672 L751,474.3672" fill="#FFFFFF" style="stroke:#000000;stroke-width:1;"/><text fill="#000000" font-family="Verdana" font-size="13" lengthAdjust="spacing" textLength="176.6997" x="285.8037" y="491.4341">BLAST RADIUS CONTAINED</text><text fill="#000000" font-family="Verdana" font-size="13" lengthAdjust="spacing" textLength="191.312" x="285.8037" y="506.5669">Only Fritzbox 1 compromised</text><text fill="#000000" font-family="Verdana" font-size="13" lengthAdjust="spacing" textLength="188.9189" x="285.8037" y="521.6997">Fritzbox 2 &amp; 3 remain secure</text><rect fill="#FFFFFF" height="3" style="stroke:#FFFFFF;stroke-width:1;" width="972.6548" x="5" y="555.332"/><line style="stroke:#000000;stroke-width:0.5;" x1="5" x2="977.6548" y1="555.332" y2="555.332"/><line style="stroke:#000000;stroke-width:0.5;" x1="5" x2="977.6548" y1="558.332" y2="558.332"/><rect fill="#FFFFFF" height="23.1328" style="stroke:#000000;stroke-width:1;" width="93.5234" x="444.5657" y="544.7656"/><text fill="#000000" font-family="Verdana" font-size="13" font-weight="bold" lengthAdjust="spacing" textLength="74.9976" x="450.5657" y="560.8325">Mitigation</text><g class="message" data-participant-1="Admin" data-participant-2="FB1"><polygon fill="#000000" points="477.8423,595.0313,487.8423,599.0313,477.8423,603.0313,481.8423,599.0313" style="stroke:#000000;stroke-width:1;"/><line style="stroke:#000000;stroke-width:1;" x1="117.7407" x2="483.8423" y1="599.0313" y2="599.0313"/><text fill="#000000" font-family="Verdana" font-size="13" lengthAdjust="spacing" textLength="183.0093" x="124.7407" y="593.9653">Change password on device</text></g><g class="message" data-participant-1="FB1" data-participant-2="Admin"><polygon fill="#000000" points="128.7407,627.1641,118.7407,631.1641,128.7407,635.1641,124.7407,631.1641" style="stroke:#000000;stroke-width:1;"/><line style="stroke:#000000;stroke-width:1;stroke-dasharray:2,2;" x1="122.7407" x2="493.8423" y1="631.1641" y2="631.1641"/><text fill="#000000" font-family="Verdana" font-size="13" lengthAdjust="spacing" textLength="119.7231" x="134.7407" y="626.0981">Password updated</text></g><path d="M504,612.0313 L504,637.0313 L587,637.0313 L587,622.0313 L577,612.0313 L504,612.0313" fill="#FFFFFF" style="stroke:#000000;stroke-width:1;"/><path d="M577,612.0313 L577,622.0313 L587,622.0313 L577,612.0313" fill="#FFFFFF" style="stroke:#000000;stroke-width:1;"/><text fill="#000000" font-family="Verdana" font-size="13" lengthAdjust="spacing" textLength="62.3149" x="510" y="629.0981">SECURED</text><g class="message" data-participant-1="Admin" data-participant-2="Env"><polygon fill="#000000" points="369.4683,659.2969,379.4683,663.2969,369.4683,667.2969,373.4683,663.2969" style="stroke:#000000;stroke-width:1;"/><line style="stroke:#000000;stroke-width:1;" x1="117.7407" x2="375.4683" y1="663.2969" y2="663.2969"/><text fill="#000000" font-family="Verdana" font-size="13" lengthAdjust="spacing" textLength="244.7275" x="124.7407" y="658.231">Update FRITZBOX_1_PASSWORD only</text></g><g class="message" data-participant-1="Env" data-participant-2="Admin"><polygon fill="#000000" points="128.7407,688.4297,118.7407,692.4297,128.7407,696.4297,124.7407,692.4297" style="stroke:#000000;stroke-width:1;"/><line style="stroke:#000000;stroke-width:1;stroke-dasharray:2,2;" x1="122.7407" x2="385.4683" y1="692.4297" y2="692.4297"/><text fill="#000000" font-family="Verdana" font-size="13" lengthAdjust="spacing" textLength="55.3325" x="134.7407" y="687.3638">Updated</text></g><g class="message" data-participant-1="Admin" data-participant-2="FB1"><polygon fill="#000000" points="477.8423,717.5625,487.8423,721.5625,477.8423,725.5625,481.8423,721.5625" style="stroke:#000000;stroke-width:1;"/><line style="stroke:#000000;stroke-width:1;" x1="117.7407" x2="483.8423" y1="721.5625" y2="721.5625"/><text fill="#000000" font-family="Verdana" font-size="13" lengthAdjust="spacing" textLength="173.1069" x="124.7407" y="716.4966">Restart monitoring service</text></g><g class="message" data-participant-1="FB1" data-participant-2="Admin"><polygon fill="#000000" points="128.7407,746.6953,118.7407,750.6953,128.7407,754.6953,124.7407,750.6953" style="stroke:#000000;stroke-width:1;"/><line style="stroke:#000000;stroke-width:1;stroke-dasharray:2,2;" x1="122.7407" x2="493.8423" y1="750.6953" y2="750.6953"/><text fill="#000000" font-family="Verdana" font-size="13" lengthAdjust="spacing" textLength="167.8193" x="134.7407" y="745.6294">Reconnected successfully</text></g><path d="M23,763.6953 L23,833.6953 L211,833.6953 L211,773.6953 L201,763.6953 L23,763.6953" fill="#FFFFFF" style="stroke:#000000;stroke-width:1;"/><path d="M201,763.6953 L201,773.6953 L211,773.6953 L201,763.6953" fill="#FFFFFF" style="stroke:#000000;stroke-width:1;"/><text fill="#000000" font-family="Verdana" font-size="13" lengthAdjust="spacing" textLength="136.5825" x="29" y="780.7622">ISOLATED ROTATION</text><text fill="#000000" font-family="Verdana" font-size="13" lengthAdjust="spacing" textLength="125.144" x="29" y="795.895">- Only FB1 affected</text><text fill="#000000" font-family="Verdana" font-size="13" lengthAdjust="spacing" textLength="167.5654" x="29" y="811.0278">- No impact on FB2 &amp; FB3</text><text fill="#000000" font-family="Verdana" font-size="13" lengthAdjust="spacing" textLength="128.3242" x="29" y="826.1606">- Minimal downtime</text><!--SRC=[jLHDRvj04BtlhvYcKjHATIN3pP8h4Nz8I8wn0AjLBz46ncHbsANBuiJzzPtTu0zSH-cbd82PdVTcvhtzO9wmGgXBBYHhjaBMNFCA7dcsBRHgPJvHfTBmSUuUnemm9K9K6w4a191WrcfXzYDOeHvCSISoX8d67AKHl8ImKIMtkOpnp52Xm1WgZVhmcLU4IvX6PABcqi3DLvGxc8iIRu0tC9ExVdXESByVrGiCNNn-DtmZxdLnxusutyLzniRZZjVeZ7i32-HRp64yPkn06mRVB2KOkI0uhZl1tRpQsZObTjoWeoqLlMXHF1a6zCpZCFrv5_ru63wiWYJv7iNJyLgANoskUDCC-pdUjHold-DVo_4PoXmiDBCy1yJto7q4GLb2TjOXljIgmPpbs6FUQvScRDjLXP0Zu7PVetFQnuDs4pRt4ZBBi6cWq3HzGZeDXMOTtQ_Yw3vCPjDp1hRG1GEF2gLw_mw-nspc9NvB2gTsCoT3s71ILfy6SKXdatGsXK-vs6nGKphKLFnPwVnpdvbtoSp_9sO-ivd_bHd9s1rLEpovx8iBMDNSBO8aXJYOXkk41hzCWt19OxUXI9PxEDaACbNLMbN22iC9xkWek0KVD5PqLq1ZdOydjLaJtGiZYjTkd6diI4uIcZnnMU2HFr1MxYwCDpJaJjCG3lbjdVDB2IMpoJg-9fy3zAjPr-xeDGiIYtBVz-tHDns1TOVxbqdwxSNO6Bfee59IqDKcP44pqk_t5sEcfCIC8A1fdLisRKcaBdiwMw-xDUrkmYHQ15OWf9GW3QEb-pleTaf8d6HZItV_bmf4LLDTEtthbjkZGWQqFYagkhHpzKooh4xB_GC0]--></g></svg>