<svg xmlns="http://www.w3.org/2000/svg" xmlns:xlink="http://www.w3.org/1999/xlink" contentStyleType="text/css" data-diagram-type="DESCRIPTION" height="1356px" preserveAspectRatio="none" style="width:1366px;height:1356px;background:#FFFFFF;" version="1.1" viewBox="0 0 1366 1356" width="1366px" zoomAndPan="magnify"><title>Fritzbox Secret Management Architecture
Current State (Shared) vs. Option A (Per-Device)</title><defs/><g><g class="title" data-source-line="5"><text fill="#000000" font-family="sans-serif" font-size="14" font-weight="bold" lengthAdjust="spacing" textLength="331.7686" x="510.4746" y="22.9951">Fritzbox Secret Management Architecture</text><text fill="#000000" font-family="sans-serif" font-size="14" font-weight="bold" lengthAdjust="spacing" textLength="385.2871" x="483.7153" y="39.292">Current State (Shared) vs. Option A (Per-Device)</text></g><!--cluster Host System--><g class="cluster" data-entity="Host System" data-source-line="7" data-uid="ent0002" id="cluster_Host System"><path d="M461.5,117.3938 L562.0518,117.3938 A3.75,3.75 0 0 1 564.5518,119.8938 L571.5518,139.6906 L1277.5,139.6906 A2.5,2.5 0 0 1 1280,142.1906 L1280,240.2938 A2.5,2.5 0 0 1 1277.5,242.7938 L461.5,242.7938 A2.5,2.5 0 0 1 459,240.2938 L459,119.8938 A2.5,2.5 0 0 1 461.5,117.3938" fill="none" style="stroke:#000000;stroke-width:1.5;"/><line style="stroke:#000000;stroke-width:1.5;" x1="459" x2="571.5518" y1="139.6906" y2="139.6906"/><text fill="#000000" font-family="sans-serif" font-size="14" font-weight="bold" lengthAdjust="spacing" textLength="99.5518" x="463" y="132.3889">Host System</text></g><!--cluster Docker Container--><g class="cluster" data-entity="Docker Container" data-source-line="28" data-uid="ent0011" id="cluster_Docker Container"><path d="M8.5,445.5938 L146.7861,445.5938 A3.75,3.75 0 0 1 149.2861,448.0938 L156.2861,467.8906 L428.5,467.8906 A2.5,2.5 0 0 1 431,470.3906 L431,1188.0038 A2.5,2.5 0 0 1 428.5,1190.5038 L8.5,1190.5038 A2.5,2.5 0 0 1 6,1188.0038 L6,448.0938 A2.5,2.5 0 0 1 8.5,445.5938" fill="none" style="stroke:#000000;stroke-width:1.5;"/><line style="stroke:#000000;stroke-width:1.5;" x1="6" x2="156.2861" y1="467.8906" y2="467.8906"/><text fill="#000000" font-family="sans-serif" font-size="14" font-weight="bold" lengthAdjust="spacing" textLength="137.2861" x="10" y="460.5889">Docker Container</text></g><!--cluster Python Application--><g class="cluster" data-entity="Python Application" data-source-line="40" data-uid="ent0016" id="cluster_Python Application"><path d="M32.5,741.9138 L183.3027,741.9138 A3.75,3.75 0 0 1 185.8027,744.4138 L192.8027,764.2106 L404.5,764.2106 A2.5,2.5 0 0 1 407,766.7106 L407,1164.0038 A2.5,2.5 0 0 1 404.5,1166.5038 L32.5,1166.5038 A2.5,2.5 0 0 1 30,1164.0038 L30,744.4138 A2.5,2.5 0 0 1 32.5,741.9138" fill="none" style="stroke:#000000;stroke-width:1.5;"/><line style="stroke:#000000;stroke-width:1.5;" x1="30" x2="192.8027" y1="764.2106" y2="764.2106"/><text fill="#000000" font-family="sans-serif" font-size="14" font-weight="bold" lengthAdjust="spacing" textLength="149.8027" x="34" y="756.9089">Python Application</text></g><!--cluster Network--><g class="cluster" data-entity="Network" data-source-line="57" data-uid="ent0023" id="cluster_Network"><path d="M470.6397,1053.7016 C479.5811,1038.7767 491.6892,1040.1294 500.2003,1054.1412 C510.0479,1040.7808 520.199,1041.2545 530.7639,1053.2775 C538.2529,1037.5977 551.8896,1039.807 560.7568,1051.7828 C567.332,1037.9206 577.7708,1034.7344 588.4334,1047.5411 C599.3483,1032.4269 609.4867,1033.907 620.2447,1047.7136 C627.1369,1030.2734 641.4385,1029.0754 651.0965,1045.1691 C658.827,1030.111 671.8089,1030.2385 679.2666,1045.4232 C687.4542,1031.4283 702.0182,1031.3248 711.5271,1043.8136 C722.487,1033.248 729.8609,1036.3821 736.7878,1048.3373 C749.2521,1035.1938 760.4717,1034.8991 770.3165,1051.3091 C778.64,1035.7453 790.9778,1035.5854 800.118,1050.5109 C809.8217,1036.4524 820.1694,1038.2987 829.4031,1051.0247 C840.6228,1039.4594 849.9831,1040.2919 858.7151,1053.9192 C871.3026,1040.0097 883.2614,1041.4801 891,1058.9138 C891.8563,1058.2565 892.4898,1058.176 892.9016,1059.3703 C921.0038,1067.0486 924.0529,1088.2422 902.5538,1106.154 C923.5799,1130.849 910.6184,1150.695 884,1158.5038 C885.2124,1156.5795 887.049,1156.7977 887.8153,1158.9239 C881.3409,1173.6463 868.2969,1173.3953 859.1828,1161.7951 C851.2861,1177.6252 839.0758,1175.2669 829.318,1163.8336 C821.2659,1178.7954 806.2576,1180.0195 798.8704,1163.1965 C790.8642,1178.6317 774.7614,1180.4721 765.731,1164.2694 C759.8195,1179.0447 750.4552,1177.2696 740.7604,1168.2374 C731.7225,1181.3715 718.4787,1183.7203 708.6332,1169.1747 C699.6092,1183.1502 688.2021,1184.131 678.0614,1170.4071 C667.2554,1185.3572 655.1076,1180.1737 648.0265,1166.4988 C640.8549,1183.0684 626.8233,1180.6343 618.2922,1167.8773 C607.2387,1182.1744 597.7047,1179.5436 589.1156,1165.3533 C580.4281,1178.532 567.8648,1175.7747 560.9777,1163.3729 C550.3868,1178.0804 541.2634,1174.7407 531.8294,1162.1382 C520.7139,1175.8954 508.738,1176.1406 499.9105,1159.7184 C485.2417,1175.222 469.1845,1174.1218 463,1151.5038 C465.5976,1149.0735 467.9999,1150.3682 468.4812,1153.5651 C446.4327,1145.1048 438.5736,1126.5361 456.9463,1107.8717 C437.8003,1087.031 443.3976,1062.0824 470,1051.9138 C471.151,1052.0856 471.3988,1052.8463 470.6397,1053.7016" fill="none" style="stroke:#181818;stroke-width:1;"/><text fill="#000000" font-family="sans-serif" font-size="14" font-weight="bold" lengthAdjust="spacing" textLength="66.6709" x="643.6646" y="1069.9089">Network</text></g><!--cluster current_state--><g class="cluster" data-entity="current_state" data-source-line="63" data-uid="ent0027" id="cluster_current_state"><rect fill="#FFCCCC" height="249.06" rx="2.5" ry="2.5" style="stroke:#181818;stroke-width:1;" width="484" x="463" y="375.3238"/><text fill="#000000" font-family="sans-serif" font-size="14" font-weight="bold" lengthAdjust="spacing" textLength="128.4883" x="640.7559" y="390.3189">CURRENT STATE</text><text fill="#000000" font-family="sans-serif" font-size="14" font-weight="bold" lengthAdjust="spacing" textLength="151.0195" x="629.4902" y="406.6157">Shared Credentials</text></g><!--cluster option_a--><g class="cluster" data-entity="option_a" data-source-line="76" data-uid="ent0029" id="cluster_option_a"><rect fill="#CCFFCC" height="370.12" rx="2.5" ry="2.5" style="stroke:#181818;stroke-width:1;" width="321" x="987" y="314.7938"/><text fill="#000000" font-family="sans-serif" font-size="14" font-weight="bold" lengthAdjust="spacing" textLength="76.248" x="1109.376" y="329.7889">OPTION A</text><text fill="#000000" font-family="sans-serif" font-size="14" font-weight="bold" lengthAdjust="spacing" textLength="180.4072" x="1057.2964" y="346.0857">Per-Device Credentials</text></g><g class="entity" data-entity="GMN4" data-source-line="13" data-uid="ent0005" id="entity_GMN4"><path d="M1023.54,171.3938 L1023.54,195.0938 L989.45,199.0938 L1023.54,203.0938 L1023.54,226.7922 A0,0 0 0 0 1023.54,226.7922 L1264.4609,226.7922 A0,0 0 0 0 1264.4609,226.7922 L1264.4609,181.3938 L1254.4609,171.3938 L1023.54,171.3938 A0,0 0 0 0 1023.54,171.3938" fill="#FEFFDD" style="stroke:#181818;stroke-width:0.5;"/><path d="M1254.4609,171.3938 L1254.4609,181.3938 L1264.4609,181.3938 L1254.4609,171.3938" fill="#FEFFDD" style="stroke:#181818;stroke-width:0.5;"/><text fill="#000000" font-family="sans-serif" font-size="13" lengthAdjust="spacing" textLength="217.6294" x="1029.54" y="188.4606">&#9888;&#65039; CRITICAL: Unencrypted on disk</text><text fill="#000000" font-family="sans-serif" font-size="13" lengthAdjust="spacing" textLength="218.4673" x="1029.54" y="203.5935">Permissions: chmod 600 required</text><text fill="#000000" font-family="sans-serif" font-size="13" lengthAdjust="spacing" textLength="219.9209" x="1029.54" y="218.7263">Location: /home/user/project/.env</text></g><g class="entity" data-entity="GMN8" data-source-line="22" data-uid="ent0009" id="entity_GMN8"><path d="M625.69,171.3938 L625.69,195.0938 L590.81,199.0938 L625.69,203.0938 L625.69,226.7922 A0,0 0 0 0 625.69,226.7922 L854.3091,226.7922 A0,0 0 0 0 854.3091,226.7922 L854.3091,181.3938 L844.3091,171.3938 L625.69,171.3938 A0,0 0 0 0 625.69,171.3938" fill="#FEFFDD" style="stroke:#181818;stroke-width:0.5;"/><path d="M844.3091,171.3938 L844.3091,181.3938 L854.3091,181.3938 L844.3091,171.3938" fill="#FEFFDD" style="stroke:#181818;stroke-width:0.5;"/><text fill="#000000" font-family="sans-serif" font-size="13" lengthAdjust="spacing" textLength="111.1792" x="631.69" y="188.4606">&#9989; Safe to commit</text><text fill="#000000" font-family="sans-serif" font-size="13" lengthAdjust="spacing" textLength="207.6191" x="631.69" y="203.5935">Contains anonymized examples</text><text fill="#000000" font-family="sans-serif" font-size="13" lengthAdjust="spacing" textLength="132.6152" x="631.69" y="218.7263">User guide for setup</text></g><!--entity env--><g class="entity" data-entity="env" data-source-line="9" data-uid="ent0003" id="entity_env"><rect fill="#FFE6E6" height="52.5938" rx="2.5" ry="2.5" style="stroke:#181818;stroke-width:0.5;" width="99.9873" x="889.01" y="172.7938"/><text fill="#000000" font-family="sans-serif" font-size="14" lengthAdjust="spacing" textLength="59.1172" x="899.01" y="195.7889">.env File</text><text fill="#000000" font-family="sans-serif" font-size="14" lengthAdjust="spacing" textLength="79.9873" x="899.01" y="212.0857">(Plain Text)</text></g><!--entity env_example--><g class="entity" data-entity="env_example" data-source-line="18" data-uid="ent0007" id="entity_env_example"><rect fill="#E6FFE6" height="52.5938" rx="2.5" ry="2.5" style="stroke:#181818;stroke-width:0.5;" width="115.1768" x="475.41" y="172.7938"/><text fill="#000000" font-family="sans-serif" font-size="14" lengthAdjust="spacing" textLength="95.1768" x="485.41" y="195.7889">.env.example</text><text fill="#000000" font-family="sans-serif" font-size="14" lengthAdjust="spacing" textLength="77.1846" x="485.41" y="212.0857">(Template)</text></g><g class="entity" data-entity="GMN13" data-source-line="34" data-uid="ent0014" id="entity_GMN13"><path d="M64.75,499.5938 L64.75,570.125 A0,0 0 0 0 64.75,570.125 L227.2456,570.125 A0,0 0 0 0 227.2456,570.125 L227.2456,538.8538 L261.76,534.8538 L227.2456,530.8538 L227.2456,509.5938 L217.2456,499.5938 L64.75,499.5938 A0,0 0 0 0 64.75,499.5938" fill="#FEFFDD" style="stroke:#181818;stroke-width:0.5;"/><path d="M217.2456,499.5938 L217.2456,509.5938 L227.2456,509.5938 L217.2456,499.5938" fill="#FEFFDD" style="stroke:#181818;stroke-width:0.5;"/><text fill="#000000" font-family="sans-serif" font-size="13" lengthAdjust="spacing" textLength="78.9014" x="70.75" y="516.6606">&#9888;&#65039; Visible in:</text><text fill="#000000" font-family="sans-serif" font-size="13" lengthAdjust="spacing" textLength="104.2983" x="70.75" y="531.7935">- docker inspect</text><text fill="#000000" font-family="sans-serif" font-size="13" lengthAdjust="spacing" textLength="121.4243" x="70.75" y="546.9263">- /proc/PID/environ</text><text fill="#000000" font-family="sans-serif" font-size="13" lengthAdjust="spacing" textLength="141.4956" x="70.75" y="562.0591">- Container processes</text></g><!--entity docker_env--><g class="entity" data-entity="docker_env" data-source-line="30" data-uid="ent0012" id="entity_docker_env"><rect fill="#FFE6E6" height="52.5938" rx="2.5" ry="2.5" style="stroke:#181818;stroke-width:0.5;" width="109.7012" x="262.15" y="508.5538"/><text fill="#000000" font-family="sans-serif" font-size="14" lengthAdjust="spacing" textLength="89.7012" x="272.15" y="531.5489">Environment</text><text fill="#000000" font-family="sans-serif" font-size="14" lengthAdjust="spacing" textLength="65.0645" x="272.15" y="547.8457">Variables</text></g><g class="entity" data-entity="GMN18" data-source-line="46" data-uid="ent0019" id="entity_GMN18"><path d="M239.17,795.9138 L239.17,819.6138 L204.41,823.6138 L239.17,827.6138 L239.17,851.3122 A0,0 0 0 0 239.17,851.3122 L390.8365,851.3122 A0,0 0 0 0 390.8365,851.3122 L390.8365,805.9138 L380.8365,795.9138 L239.17,795.9138 A0,0 0 0 0 239.17,795.9138" fill="#FEFFDD" style="stroke:#181818;stroke-width:0.5;"/><path d="M380.8365,795.9138 L380.8365,805.9138 L390.8365,805.9138 L380.8365,795.9138" fill="#FEFFDD" style="stroke:#181818;stroke-width:0.5;"/><text fill="#000000" font-family="sans-serif" font-size="13" lengthAdjust="spacing" textLength="130.6665" x="245.17" y="812.9806">Pydantic BaseModel</text><text fill="#000000" font-family="sans-serif" font-size="13" lengthAdjust="spacing" textLength="100.02" x="245.17" y="828.1135">Type validation</text><text fill="#000000" font-family="sans-serif" font-size="13" lengthAdjust="spacing" textLength="93.6089" x="245.17" y="843.2463">@lru_cache(1)</text></g><!--entity service--><g class="entity" data-entity="service" data-source-line="51" data-uid="ent0021" id="entity_service"><rect fill="#E6F3FF" height="52.5938" rx="2.5" ry="2.5" style="stroke:#181818;stroke-width:0.5;" width="130.8105" x="260.59" y="928.3138"/><text fill="#000000" font-family="sans-serif" font-size="14" lengthAdjust="spacing" textLength="62.1592" x="270.59" y="951.3089">services/</text><text fill="#000000" font-family="sans-serif" font-size="14" lengthAdjust="spacing" textLength="110.8105" x="270.59" y="967.6057">fritz_monitor.py</text></g><!--entity api--><g class="entity" data-entity="api" data-source-line="53" data-uid="ent0022" id="entity_api"><rect fill="#E6F3FF" height="52.5938" rx="2.5" ry="2.5" style="stroke:#181818;stroke-width:0.5;" width="69.0342" x="245.48" y="1097.9138"/><text fill="#000000" font-family="sans-serif" font-size="14" lengthAdjust="spacing" textLength="26.0723" x="255.48" y="1120.9089">api/</text><text fill="#000000" font-family="sans-serif" font-size="14" lengthAdjust="spacing" textLength="49.0342" x="255.48" y="1137.2057">fritz.py</text></g><!--entity config--><g class="entity" data-entity="config" data-source-line="42" data-uid="ent0017" id="entity_config"><rect fill="#E6F3FF" height="52.5938" rx="2.5" ry="2.5" style="stroke:#181818;stroke-width:0.5;" width="158.4551" x="45.77" y="797.3238"/><text fill="#000000" font-family="sans-serif" font-size="14" lengthAdjust="spacing" textLength="64.4629" x="55.77" y="820.3189">config.py</text><text fill="#000000" font-family="sans-serif" font-size="14" lengthAdjust="spacing" textLength="138.4551" x="55.77" y="836.6157">Settings.from_env()</text></g><!--entity fritz1--><g class="entity" data-entity="fritz1" data-source-line="58" data-uid="ent0024" id="entity_fritz1"><rect fill="#FFE6CC" height="52.5938" rx="2.5" ry="2.5" style="stroke:#181818;stroke-width:0.5;" width="113.5156" x="471.24" y="1097.9138"/><text fill="#000000" font-family="sans-serif" font-size="14" lengthAdjust="spacing" textLength="69.6309" x="481.24" y="1120.9089">Fritzbox 1</text><text fill="#000000" font-family="sans-serif" font-size="14" lengthAdjust="spacing" textLength="93.5156" x="481.24" y="1137.2057">192.168.10.1</text></g><!--entity fritz2--><g class="entity" data-entity="fritz2" data-source-line="59" data-uid="ent0025" id="entity_fritz2"><rect fill="#FFE6CC" height="52.5938" rx="2.5" ry="2.5" style="stroke:#181818;stroke-width:0.5;" width="113.5156" x="620.24" y="1097.9138"/><text fill="#000000" font-family="sans-serif" font-size="14" lengthAdjust="spacing" textLength="69.6309" x="630.24" y="1120.9089">Fritzbox 2</text><text fill="#000000" font-family="sans-serif" font-size="14" lengthAdjust="spacing" textLength="93.5156" x="630.24" y="1137.2057">192.168.20.1</text></g><!--entity fritz3--><g class="entity" data-entity="fritz3" data-source-line="60" data-uid="ent0026" id="entity_fritz3"><rect fill="#FFE6CC" height="52.5938" rx="2.5" ry="2.5" style="stroke:#181818;stroke-width:0.5;" width="113.5156" x="769.24" y="1097.9138"/><text fill="#000000" font-family="sans-serif" font-size="14" lengthAdjust="spacing" textLength="69.6309" x="779.24" y="1120.9089">Fritzbox 3</text><text fill="#000000" font-family="sans-serif" font-size="14" lengthAdjust="spacing" textLength="93.5156" x="779.24" y="1137.2057">192.168.30.1</text></g><g class="entity" data-entity="current_note" data-source-line="65" data-uid="ent0028" id="entity_current_note"><path d="M486.57,469.3238 L486.57,600.3863 L903.4352,600.3863 L903.4352,479.3238 L893.4352,469.3238 L486.57,469.3238" fill="#FEFFDD" style="stroke:#181818;stroke-width:0.5;"/><path d="M893.4352,469.3238 L893.4352,479.3238 L903.4352,479.3238 L893.4352,469.3238" fill="#FEFFDD" style="stroke:#181818;stroke-width:1;"/><text fill="#000000" font-family="sans-serif" font-size="13" lengthAdjust="spacing" textLength="395.8652" x="492.57" y="486.3906">FRITZBOX_HOSTS=192.168.10.1,192.168.20.1,192.168.30.1</text><text fill="#000000" font-family="sans-serif" font-size="13" lengthAdjust="spacing" textLength="196.4346" x="492.57" y="501.5235">FRITZBOX_USERNAME=admin</text><text fill="#000000" font-family="sans-serif" font-size="13" lengthAdjust="spacing" textLength="265.5923" x="492.57" y="516.6563">FRITZBOX_PASSWORD=SharedPassword</text><text fill="#000000" font-family="sans-serif" font-size="13" lengthAdjust="spacing" textLength="4.1323" x="492.57" y="531.7891">&#160;</text><text fill="#000000" font-family="sans-serif" font-size="13" lengthAdjust="spacing" textLength="82.8623" x="492.57" y="546.9219">&#9888;&#65039; PROBLEM:</text><text fill="#000000" font-family="sans-serif" font-size="13" lengthAdjust="spacing" textLength="190.0996" x="492.57" y="562.0547">- 1 Password for all 3 devices</text><text fill="#000000" font-family="sans-serif" font-size="13" lengthAdjust="spacing" textLength="181.5303" x="492.57" y="577.1875">- Breach = all compromised</text><text fill="#000000" font-family="sans-serif" font-size="13" lengthAdjust="spacing" textLength="85.4521" x="492.57" y="592.3203">- No isolation</text></g><g class="entity" data-entity="option_a_note" data-source-line="78" data-uid="ent0030" id="entity_option_a_note"><path d="M1011.44,408.7938 L1011.44,660.9188 L1264.5547,660.9188 L1264.5547,418.7938 L1254.5547,408.7938 L1011.44,408.7938" fill="#FEFFDD" style="stroke:#181818;stroke-width:0.5;"/><path d="M1254.5547,408.7938 L1254.5547,418.7938 L1264.5547,418.7938 L1254.5547,408.7938" fill="#FEFFDD" style="stroke:#181818;stroke-width:1;"/><text fill="#000000" font-family="sans-serif" font-size="13" lengthAdjust="spacing" textLength="220.4478" x="1017.44" y="425.8606">FRITZBOX_1_HOST=192.168.10.1</text><text fill="#000000" font-family="sans-serif" font-size="13" lengthAdjust="spacing" textLength="211.2056" x="1017.44" y="440.9935">FRITZBOX_1_USERNAME=admin</text><text fill="#000000" font-family="sans-serif" font-size="13" lengthAdjust="spacing" textLength="232.1147" x="1017.44" y="456.1263">FRITZBOX_1_PASSWORD=Unique1!</text><text fill="#000000" font-family="sans-serif" font-size="13" lengthAdjust="spacing" textLength="4.1323" x="1017.44" y="471.2591">&#160;</text><text fill="#000000" font-family="sans-serif" font-size="13" lengthAdjust="spacing" textLength="220.4478" x="1017.44" y="486.3919">FRITZBOX_2_HOST=192.168.20.1</text><text fill="#000000" font-family="sans-serif" font-size="13" lengthAdjust="spacing" textLength="211.2056" x="1017.44" y="501.5247">FRITZBOX_2_USERNAME=admin</text><text fill="#000000" font-family="sans-serif" font-size="13" lengthAdjust="spacing" textLength="232.1147" x="1017.44" y="516.6575">FRITZBOX_2_PASSWORD=Unique2!</text><text fill="#000000" font-family="sans-serif" font-size="13" lengthAdjust="spacing" textLength="4.1323" x="1017.44" y="531.7903">&#160;</text><text fill="#000000" font-family="sans-serif" font-size="13" lengthAdjust="spacing" textLength="220.4478" x="1017.44" y="546.9231">FRITZBOX_3_HOST=192.168.30.1</text><text fill="#000000" font-family="sans-serif" font-size="13" lengthAdjust="spacing" textLength="221.3364" x="1017.44" y="562.056">FRITZBOX_3_USERNAME=monitor</text><text fill="#000000" font-family="sans-serif" font-size="13" lengthAdjust="spacing" textLength="232.1147" x="1017.44" y="577.1888">FRITZBOX_3_PASSWORD=Unique3!</text><text fill="#000000" font-family="sans-serif" font-size="13" lengthAdjust="spacing" textLength="4.1323" x="1017.44" y="592.3216">&#160;</text><text fill="#000000" font-family="sans-serif" font-size="13" lengthAdjust="spacing" textLength="83.2876" x="1017.44" y="607.4544">&#9989; SOLUTION:</text><text fill="#000000" font-family="sans-serif" font-size="13" lengthAdjust="spacing" textLength="220.8667" x="1017.44" y="622.5872">- Individual credentials per device</text><text fill="#000000" font-family="sans-serif" font-size="13" lengthAdjust="spacing" textLength="113.3882" x="1017.44" y="637.72">- Breach isolation</text><text fill="#000000" font-family="sans-serif" font-size="13" lengthAdjust="spacing" textLength="183.4473" x="1017.44" y="652.8528">- Different permission levels</text></g><!--link env_example to env--><g class="link" data-entity-1="env_example" data-entity-2="env" data-source-line="97" data-uid="lnk31" id="link_env_example_env"><path d="M548.7,172.3038 C561.97,152.0038 582.82,125.0238 608,109.3938 C631.69,94.6838 641.31,97.9738 669,94.6738 C758.83,83.9938 796.48,59.5938 872,109.3938 C895.85,125.1237 911.452,147.1379 922.932,167.4879" fill="none" id="env_example-to-env" style="stroke:#181818;stroke-width:1;"/><polygon fill="#181818" points="925.88,172.7138,924.9418,162.9097,923.4233,168.3589,917.9741,166.8404,925.88,172.7138" style="stroke:#181818;stroke-width:1;"/><text fill="#000000" font-family="sans-serif" font-size="13" lengthAdjust="spacing" textLength="140.1055" x="670" y="82.4606">cp .env.example .env</text><text fill="#000000" font-family="sans-serif" font-size="13" lengthAdjust="spacing" textLength="71.373" x="704.3662" y="97.5935">edit values</text></g><!--link env to docker_env--><g class="link" data-entity-1="env" data-entity-2="docker_env" data-source-line="98" data-uid="lnk32" id="link_env_docker_env"><path d="M912.09,225.8138 C900.61,235.2838 886.52,245.0738 872,250.7938 C839.57,263.5538 828.63,254.8738 794,258.7938 C650.27,275.0638 593.79,222.3238 471,298.7938 C390.45,348.9538 345.4352,452.9395 327.4852,502.7195" fill="none" id="env-to-docker_env" style="stroke:#181818;stroke-width:1;"/><polygon fill="#181818" points="325.45,508.3638,332.2657,501.2542,327.146,503.6602,324.74,498.5405,325.45,508.3638" style="stroke:#181818;stroke-width:1;"/><text fill="#000000" font-family="sans-serif" font-size="13" lengthAdjust="spacing" textLength="135.7573" x="795" y="271.8606">docker-compose.yml</text><text fill="#000000" font-family="sans-serif" font-size="13" lengthAdjust="spacing" textLength="86.8042" x="819.4766" y="286.9935">env_file: .env</text></g><!--link docker_env to config--><g class="link" data-entity-1="docker_env" data-entity-2="config" data-source-line="99" data-uid="lnk33" id="link_docker_env_config"><path d="M309.15,561.3638 C298.05,595.1038 275.66,655.6038 245,700.9138 C219.81,738.1538 186.9286,769.9864 160.5886,792.9964" fill="none" id="docker_env-to-config" style="stroke:#181818;stroke-width:1;"/><polygon fill="#181818" points="156.07,796.9438,165.4796,794.0351,159.8355,793.6543,160.2164,788.0102,156.07,796.9438" style="stroke:#181818;stroke-width:1;"/><text fill="#000000" font-family="sans-serif" font-size="13" lengthAdjust="spacing" textLength="74.2803" x="238" y="721.9806">os.getenv()</text></g><!--link config to service--><g class="link" data-entity-1="config" data-entity-2="service" data-source-line="100" data-uid="lnk34" id="link_config_service"><path d="M165.19,850.4138 C200.25,872.9138 245.7906,902.1328 280.8306,924.6228" fill="none" id="config-to-service" style="stroke:#181818;stroke-width:1;"/><polygon fill="#181818" points="285.88,927.8638,280.4665,919.6361,281.6722,925.163,276.1453,926.3687,285.88,927.8638" style="stroke:#181818;stroke-width:1;"/><text fill="#000000" font-family="sans-serif" font-size="13" lengthAdjust="spacing" textLength="89.832" x="239" y="894.3806">get_settings()</text></g><!--link service to api--><g class="link" data-entity-1="service" data-entity-2="api" data-source-line="101" data-uid="lnk35" id="link_service_api"><path d="M319.01,981.0638 C310.37,1012.5638 297.3188,1060.1179 288.6388,1091.7279" fill="none" id="service-to-api" style="stroke:#181818;stroke-width:1;"/><polygon fill="#181818" points="287.05,1097.5138,293.2904,1089.8942,288.374,1092.6922,285.5759,1087.7758,287.05,1097.5138" style="stroke:#181818;stroke-width:1;"/><text fill="#000000" font-family="sans-serif" font-size="13" lengthAdjust="spacing" textLength="109.8906" x="311" y="1023.9806">get_fritz_status()</text></g><!--link service to fritz1--><g class="link" data-entity-1="service" data-entity-2="fritz1" data-source-line="103" data-uid="lnk36" id="link_service_fritz1"><path d="M382.51,981.3238 C398.27,989.6938 414.93,999.7538 429,1010.9138 C461.18,1036.4238 487.7428,1068.4292 506.1228,1092.8592" fill="none" id="service-to-fritz1" style="stroke:#181818;stroke-width:1;"/><polygon fill="#181818" points="509.73,1097.6538,507.5156,1088.0571,506.724,1093.6583,501.1228,1092.8667,509.73,1097.6538" style="stroke:#181818;stroke-width:1;"/><text fill="#000000" font-family="sans-serif" font-size="13" lengthAdjust="spacing" textLength="112.1758" x="449" y="1023.9806">ping / TR-064 API</text></g><!--link service to fritz2--><g class="link" data-entity-1="service" data-entity-2="fritz2" data-source-line="104" data-uid="lnk37" id="link_service_fritz2"><path d="M391.75,962.5538 C442.38,969.7538 513.1,983.9138 570,1010.9138 C609.9,1029.8438 639.2058,1065.6492 657.5458,1092.4992" fill="none" id="service-to-fritz2" style="stroke:#181818;stroke-width:1;"/><polygon fill="#181818" points="660.93,1097.4538,659.1567,1087.7658,658.1098,1093.325,652.5507,1092.2781,660.93,1097.4538" style="stroke:#181818;stroke-width:1;"/><text fill="#000000" font-family="sans-serif" font-size="13" lengthAdjust="spacing" textLength="112.1758" x="596" y="1023.9806">ping / TR-064 API</text></g><!--link service to fritz3--><g class="link" data-entity-1="service" data-entity-2="fritz3" data-source-line="105" data-uid="lnk38" id="link_service_fritz3"><path d="M391.84,955.2338 C471.67,956.9238 608.92,966.8338 717,1010.9138 C758.76,1027.9438 788.8743,1065.1098 807.2143,1092.6498" fill="none" id="service-to-fritz3" style="stroke:#181818;stroke-width:1;"/><polygon fill="#181818" points="810.54,1097.6438,808.8808,1087.9357,807.7686,1093.4821,802.2221,1092.3699,810.54,1097.6438" style="stroke:#181818;stroke-width:1;"/><text fill="#000000" font-family="sans-serif" font-size="13" lengthAdjust="spacing" textLength="112.1758" x="747" y="1023.9806">ping / TR-064 API</text></g><!--reverse link env to current_state--><g class="link" data-entity-1="env" data-entity-2="current_state" data-source-line="107" data-uid="lnk40" id="link_env_current_state"><path d="M939,231.7338 C939,250.9663 939,273.3931 939,305.3242 C939,321.2898 939,338.1314 939,355.1378 C939,359.3894 939,363.6512 939,367.9123 C939,370.0429 939,372.1732 939,374.3019" fill="none" id="env-backto-current_state" style="stroke:#181818;stroke-width:1;stroke-dasharray:7,7;"/><polygon fill="#181818" points="939,225.7338,935,234.7338,939,230.7338,943,234.7338,939,225.7338" style="stroke:#181818;stroke-width:1;"/><text fill="#000000" font-family="sans-serif" font-size="13" lengthAdjust="spacing" textLength="86.4106" x="940" y="279.3606">OLD FORMAT</text></g><!--reverse link env to option_a--><g class="link" data-entity-1="env" data-entity-2="option_a" data-source-line="108" data-uid="lnk42" id="link_env_option_a"><path d="M971.4316,229.6013 C982.8216,238.8313 991.95,244.6838 1006,250.7938 C1062.89,275.5338 1239.2,252.9538 1281,298.7938 C1315.76,336.9138 1320.905,394.4538 1317.1675,443.0625 C1316.2331,455.2147 1314.7436,466.8087 1313.0229,477.4015 C1312.1625,482.6979 1311.2443,487.744 1310.3088,492.4844 C1309.8411,494.8546 1309.369,497.1484 1308.8977,499.3589 C1308.662,500.4641 1308.4265,501.5485 1308.1919,502.6112 C1308.1332,502.8768 1308.0746,503.1412 1308.016,503.4041" fill="none" id="env-backto-option_a" style="stroke:#181818;stroke-width:1;stroke-dasharray:7,7;"/><polygon fill="#181818" points="966.77,225.8238,971.244,234.5978,970.6546,228.9717,976.2807,228.3824,966.77,225.8238" style="stroke:#181818;stroke-width:1;"/><text fill="#000000" font-family="sans-serif" font-size="13" lengthAdjust="spacing" textLength="89.7178" x="1269" y="279.3606">NEW FORMAT</text></g><g class="legend" data-source-line="110"><rect fill="none" height="128.0781" rx="7.5" ry="7.5" style="stroke:#000000;stroke-width:1;" width="192.1436" x="1148.5742" y="1208.5038"/><text fill="#000000" font-family="sans-serif" font-size="14" font-weight="bold" lengthAdjust="spacing" textLength="41.2139" x="1158.4482" y="1228.4989">Color</text><text fill="#000000" font-family="sans-serif" font-size="14" font-weight="bold" lengthAdjust="spacing" textLength="67.6279" x="1209.4102" y="1228.4989">Meaning</text><rect fill="#FFE6E6" height="16.2969" style="stroke:none;stroke-width:1;" width="50.9619" x="1153.5742" y="1231.8006"/><text fill="#000000" font-family="sans-serif" font-size="14" lengthAdjust="spacing" textLength="4.4502" x="1153.5742" y="1244.7957">&#160;</text><text fill="#000000" font-family="sans-serif" font-size="14" lengthAdjust="spacing" textLength="107.96" x="1208.9863" y="1244.7957">&#9888;&#65039; Security Risk</text><rect fill="#E6FFE6" height="16.2969" style="stroke:none;stroke-width:1;" width="50.9619" x="1153.5742" y="1248.0975"/><text fill="#000000" font-family="sans-serif" font-size="14" lengthAdjust="spacing" textLength="4.4502" x="1153.5742" y="1261.0926">&#160;</text><text fill="#000000" font-family="sans-serif" font-size="14" lengthAdjust="spacing" textLength="43.8594" x="1208.9863" y="1261.0926">&#9989; Safe</text><rect fill="#E6F3FF" height="16.2969" style="stroke:none;stroke-width:1;" width="50.9619" x="1153.5742" y="1264.3944"/><text fill="#000000" font-family="sans-serif" font-size="14" lengthAdjust="spacing" textLength="4.4502" x="1153.5742" y="1277.3895">&#160;</text><text fill="#000000" font-family="sans-serif" font-size="14" lengthAdjust="spacing" textLength="121.707" x="1208.9863" y="1277.3895">Application Layer</text><rect fill="#FFE6CC" height="16.2969" style="stroke:none;stroke-width:1;" width="50.9619" x="1153.5742" y="1280.6913"/><text fill="#000000" font-family="sans-serif" font-size="14" lengthAdjust="spacing" textLength="4.4502" x="1153.5742" y="1293.6864">&#160;</text><text fill="#000000" font-family="sans-serif" font-size="14" lengthAdjust="spacing" textLength="122.2813" x="1208.9863" y="1293.6864">External Systems</text><rect fill="#FFCCCC" height="16.2969" style="stroke:none;stroke-width:1;" width="50.9619" x="1153.5742" y="1296.9881"/><text fill="#000000" font-family="sans-serif" font-size="14" lengthAdjust="spacing" textLength="4.4502" x="1153.5742" y="1309.9832">&#160;</text><text fill="#000000" font-family="sans-serif" font-size="14" lengthAdjust="spacing" textLength="81.915" x="1208.9863" y="1309.9832">Deprecated</text><rect fill="#CCFFCC" height="16.2969" style="stroke:none;stroke-width:1;" width="50.9619" x="1153.5742" y="1313.285"/><text fill="#000000" font-family="sans-serif" font-size="14" lengthAdjust="spacing" textLength="4.4502" x="1153.5742" y="1326.2801">&#160;</text><text fill="#000000" font-family="sans-serif" font-size="14" lengthAdjust="spacing" textLength="105.752" x="1208.9863" y="1326.2801">Recommended</text><line style="stroke:#000000;stroke-width:1;" x1="1153.5742" x2="1335.7178" y1="1215.5038" y2="1215.5038"/><line style="stroke:#000000;stroke-width:1;" x1="1153.5742" x2="1335.7178" y1="1231.8006" y2="1231.8006"/><line style="stroke:#000000;stroke-width:1;" x1="1153.5742" x2="1335.7178" y1="1248.0975" y2="1248.0975"/><line style="stroke:#000000;stroke-width:1;" x1="1153.5742" x2="1335.7178" y1="1264.3944" y2="1264.3944"/><line style="stroke:#000000;stroke-width:1;" x1="1153.5742" x2="1335.7178" y1="1280.6913" y2="1280.6913"/><line style="stroke:#000000;stroke-width:1;" x1="1153.5742" x2="1335.7178" y1="1296.9881" y2="1296.9881"/><line style="stroke:#000000;stroke-width:1;" x1="1153.5742" x2="1335.7178" y1="1313.285" y2="1313.285"/><line style="stroke:#000000;stroke-width:1;" x1="1153.5742" x2="1335.7178" y1="1329.5819" y2="1329.5819"/><line style="stroke:#000000;stroke-width:1;" x1="1153.5742" x2="1153.5742" y1="1215.5038" y2="1329.5819"/><line style="stroke:#000000;stroke-width:1;" x1="1204.5361" x2="1204.5361" y1="1215.5038" y2="1329.5819"/><line style="stroke:#000000;stroke-width:1;" x1="1335.7178" x2="1335.7178" y1="1215.5038" y2="1329.5819"/></g><!--SRC=[ZLRDRY974BxFKrJmnPQMmS3AIgnu5Jo05ias2F1k526Xzam37SzqptRti6RZFUQSUvH37YFFanV8AwIwPnXw0CUP0pzJNtNLLrLTLUgHyPH8aa0eabHmolL4Rs8AaeQQy6LCFLL27aZuk9GYur4WOY7Xf6yV1w5M91AV6L_2WiIAUfvc6W_hIwQ_F8WdcD1GKWstX9CbJT0OT6IuOXgDPPBEU919QTvEDD4KJYSh8cbq1clbmp3LJ73emEc8odgNhbb8ppmlHP_mBAYz5mhrDahJf0Q_U1xWKvA0ca_v6leiHYEdevWm3bFwfCzgG1GO4NBfNVGkKDCeVitrkK0l95kkD8Y5WTctvldxzp__-Uit2CQ3wI3et5p2FOOkb9jKqmZGpOYfnnAC3YTCANHVNKAuIaG45-VdwDsdZ26_4dSZGc98Na9Z9HBQo1ILZLIAdv56mz-QfpooZXsbwDCdagIMvPJY3mnZoN5UoE2aTs7Oli9r2zzn_kDNc9051IrCjIHCbw90S8qnLK2uu9k4VS4e5Egg1DqZ7LXcBAAmmEfHL6TfbT5N9vzT4JuYlZYPocD9xV4rauARGfhn3qGoye06BT_8gi__ExKnNLYsE_1-WZymnV1COFoo5DKBFBvKAJhZ24osmiPeq6tGt3L7LZ810w9A5Q6fvhFaFzhebQdtD8rPNXPb1FQY40g-O4i_tSpuX6gDjq_v2oaIm-SqptuEiOblz_j599ne71P0hb4ARHbl8i8r2-6QA7eh8XfNnDDDIc5DOXPPRoko7sAPpKCIhkXfywoKL9dliS9YCLTSDMPyOTh7F16SQI6HfwLKoBUSZfv1KhPLtwhXgr8b3m2688n55a7jZkhFGZxMYlWu1vKDh3dZpUzQVlFYMxzvxZVjaVRyPbvcGV2YQckdsggejbvLRUzKsnNLTgcAB1pDu7uyxjrDOJBjJ7jO5hQFGe0VU5KOjkQyAl9kErUss-990Ju5ULiD3iRcQHlYFhQzdww7FyxV3oVJoPKRaJSknpUkruVQzvFU-AvpsxiYKSBueNpKcKm-3iVTgzp_4L4AynDv-vTqD1vUt_HktHlQX2tQzXeInz26o0uDvS2k9SMYX2iBC1CGhmrJJakkmvq0faIygsctMpaX7uwcW-4TT6PyDvyE8Yxi49iJE0a24-wzO6_5BqIxQUDT2VSnq6jXRUu2Uy_Pfumsl_4EKQsgiTPHOwrNZRNsZRME6MjNZHqlb_REMD4BZc7spBKTStQ03M_kJQBSOXdmYArPb16iWLt28CLMdPVCOSLKIo8NTTbYGUtwafO37qVCciRge73SSLotJRV-pkuXbzZFKt17kVqpupHYshJN30USKOSwQZXJ3XNpVtMxoIdgRv8OrT3G0jUUItjCpNCqp075O41beVmbrVd8y8hN1h7jimX1-LmL4yQWjY83CtsrWEJjsZILpC8gkA9P8ZGrQs83fkFw-SLRw8m6jKDWw_y2soy0lMgFyxFKB-CylEb2VpY-xKnhNdanAuYxtiSIuSLqQJ9easNp-Nm5-HwCFsufuSRwSoxvljWvti7pjadXwfkXfniOusgum-MhcCLjrojNXcFAo9mj06x81WkpOYW83AZtfAdaMCJv5gnSZEdi1jEbAVOiOhRKKfgt8YCTKxFN8Kihnk-Syxy0]--></g></svg>