<svg xmlns="http://www.w3.org/2000/svg" xmlns:xlink="http://www.w3.org/1999/xlink" contentStyleType="text/css" data-diagram-type="STATE" height="2323px" preserveAspectRatio="none" style="width:1280px;height:2323px;background:#FFFFFF;" version="1.1" viewBox="0 0 1280 2323" width="1280px" zoomAndPan="magnify"><title>Configuration Parsing State Machine
Option A: Per-Device Variables</title><defs/><g><g class="title" data-source-line="4"><text fill="#000000" font-family="Verdana" font-size="22" font-weight="bold" lengthAdjust="spacing" textLength="457.0264" x="407.4603" y="35.4209">Configuration Parsing State Machine</text><text fill="#000000" font-family="Verdana" font-size="22" font-weight="bold" lengthAdjust="spacing" textLength="382.5508" x="444.6981" y="61.0303">Option A: Per-Device Variables</text></g><!--cluster LoadingConfig--><g class="cluster" data-entity="LoadingConfig" data-source-line="8" data-uid="ent0002" id="cluster_LoadingConfig"><path d="M24.5,174.2188 L911.5,174.2188 A12.5,12.5 0 0 1 924,186.7188 L924,195.5156 L12,195.5156 L12,186.7188 A12.5,12.5 0 0 1 24.5,174.2188" fill="#FFFFFF"/><path d="M12,195.5156 L924,195.5156 L924,2297.8388 A12.5,12.5 0 0 1 911.5,2310.3388 L24.5,2310.3388 A12.5,12.5 0 0 1 12,2297.8388 L12,195.5156" fill="#FFFFFF"/><rect fill="none" height="2136.12" rx="12.5" ry="12.5" style="stroke:#000000;stroke-width:1;" width="912" x="12" y="174.2188"/><line style="stroke:#000000;stroke-width:1;" x1="12" x2="924" y1="195.5156" y2="195.5156"/><text fill="#000000" font-family="Verdana" font-size="14" lengthAdjust="spacing" textLength="100.3994" x="417.8003" y="191.2139">LoadingConfig</text></g><!--cluster LoopDevices--><g class="cluster" data-entity="LoopDevices" data-source-line="12" data-uid="ent0003" id="cluster_LoopDevices"><path d="M64.5,435.2188 L508.5,435.2188 A12.5,12.5 0 0 1 521,447.7188 L521,456.5156 L52,456.5156 L52,447.7188 A12.5,12.5 0 0 1 64.5,435.2188" fill="#FFFFFF"/><path d="M52,456.5156 L521,456.5156 L521,1391.0088 A12.5,12.5 0 0 1 508.5,1403.5088 L64.5,1403.5088 A12.5,12.5 0 0 1 52,1391.0088 L52,456.5156" fill="#FFFFFF"/><rect fill="none" height="968.29" rx="12.5" ry="12.5" style="stroke:#000000;stroke-width:1;" width="469" x="52" y="435.2188"/><line style="stroke:#000000;stroke-width:1;" x1="52" x2="521" y1="456.5156" y2="456.5156"/><text fill="#000000" font-family="Verdana" font-size="14" lengthAdjust="spacing" textLength="88.9902" x="242.0049" y="452.2139">LoopDevices</text></g><!--cluster CheckBackwardCompat--><g class="cluster" data-entity="CheckBackwardCompat" data-source-line="32" data-uid="ent0005" id="cluster_CheckBackwardCompat"><path d="M573.5,1301.5088 L799.5,1301.5088 A12.5,12.5 0 0 1 812,1314.0088 L812,1322.8056 L561,1322.8056 L561,1314.0088 A12.5,12.5 0 0 1 573.5,1301.5088" fill="#FFFFFF"/><path d="M561,1322.8056 L812,1322.8056 L812,1921.5388 A12.5,12.5 0 0 1 799.5,1934.0388 L573.5,1934.0388 A12.5,12.5 0 0 1 561,1921.5388 L561,1322.8056" fill="#FFFFFF"/><rect fill="none" height="632.53" rx="12.5" ry="12.5" style="stroke:#000000;stroke-width:1;" width="251" x="561" y="1301.5088"/><line style="stroke:#000000;stroke-width:1;" x1="561" x2="812" y1="1322.8056" y2="1322.8056"/><text fill="#000000" font-family="Verdana" font-size="14" lengthAdjust="spacing" textLength="166.6602" x="603.1699" y="1318.5039">CheckBackwardCompat</text></g><path d="M684.18,1989.0388 L817.8265,1989.0388 A12.5,12.5 0 0 1 830.3265,2001.5388 L830.3265,2015.3356 L671.68,2015.3356 L671.68,2001.5388 A12.5,12.5 0 0 1 684.18,1989.0388" fill="#FFFFFF"/><path d="M671.68,2015.3356 L830.3265,2015.3356 L830.3265,2273.8356 A12.5,12.5 0 0 1 817.8265,2286.3356 L684.18,2286.3356 A12.5,12.5 0 0 1 671.68,2273.8356 L671.68,2015.3356" fill="#FFFFFF"/><rect fill="none" height="297.2969" rx="12.5" ry="12.5" style="stroke:#000000;stroke-width:1;" width="158.6465" x="671.68" y="1989.0388"/><line style="stroke:#000000;stroke-width:1;" x1="671.68" x2="830.3265" y1="2015.3356" y2="2015.3356"/><text fill="#000000" font-family="Verdana" font-size="14" lengthAdjust="spacing" textLength="101.5137" x="700.2464" y="2007.0339">SettingsReady</text><ellipse cx="752.5" cy="2036.3356" fill="#FFFFFF" rx="10" ry="10" style="stroke:#000000;stroke-width:1;"/><g id="LoadingConfig.SettingsReady.ValidatePydantic"><rect fill="#FFFFFF" height="50" rx="12.5" ry="12.5" style="stroke:#000000;stroke-width:1;" width="137.6465" x="683.68" y="2082.3356"/><line style="stroke:#000000;stroke-width:1;" x1="683.68" x2="821.3265" y1="2108.6325" y2="2108.6325"/><text fill="#000000" font-family="Verdana" font-size="14" lengthAdjust="spacing" textLength="117.6465" x="693.68" y="2100.3307">ValidatePydantic</text></g><g id="LoadingConfig.SettingsReady.CacheSettings"><rect fill="#FFFFFF" height="50" rx="12.5" ry="12.5" style="stroke:#000000;stroke-width:1;" width="120.96" x="692.02" y="2168.3356"/><line style="stroke:#000000;stroke-width:1;" x1="692.02" x2="812.98" y1="2194.6325" y2="2194.6325"/><text fill="#000000" font-family="Verdana" font-size="14" lengthAdjust="spacing" textLength="100.96" x="702.02" y="2186.3307">CacheSettings</text></g><ellipse cx="752.5" cy="2265.3356" fill="none" rx="11" ry="11" style="stroke:#000000;stroke-width:1;"/><ellipse cx="752.5" cy="2265.3356" fill="#FFFFFF" rx="6" ry="6" style="stroke:#000000;stroke-width:1;"/><!--link *start*SettingsReady to ValidatePydantic--><g class="link" data-entity-1=".start.SettingsReady" data-entity-2="ValidatePydantic" data-source-line="44" data-uid="lnk46" id="link_.start.SettingsReady_ValidatePydantic"><path d="M752.5,2046.6456 C752.5,2055.6856 752.5,2063.8256 752.5,2076.0656" fill="none" id="*start*SettingsReady-to-ValidatePydantic" style="stroke:#000000;stroke-width:1;"/><polygon fill="#000000" points="752.5,2082.0656,756.5,2073.0656,752.5,2077.0656,748.5,2073.0656,752.5,2082.0656" style="stroke:#000000;stroke-width:1;"/></g><!--link ValidatePydantic to CacheSettings--><g class="link" data-entity-1="ValidatePydantic" data-entity-2="CacheSettings" data-source-line="45" data-uid="lnk48" id="link_ValidatePydantic_CacheSettings"><path d="M752.5,2132.6356 C752.5,2143.7756 752.5,2150.9556 752.5,2162.0956" fill="none" id="ValidatePydantic-to-CacheSettings" style="stroke:#000000;stroke-width:1;"/><polygon fill="#000000" points="752.5,2168.0956,756.5,2159.0956,752.5,2163.0956,748.5,2159.0956,752.5,2168.0956" style="stroke:#000000;stroke-width:1;"/></g><!--link CacheSettings to *end*SettingsReady--><g class="link" data-entity-1="CacheSettings" data-entity-2=".end.SettingsReady" data-source-line="46" data-uid="lnk50" id="link_CacheSettings_.end.SettingsReady"><path d="M752.5,2218.8156 C752.5,2230.8056 752.5,2238.6056 752.5,2247.8356" fill="none" id="CacheSettings-to-*end*SettingsReady" style="stroke:#000000;stroke-width:1;"/><polygon fill="#000000" points="752.5,2253.8356,756.5,2244.8356,752.5,2248.8356,748.5,2244.8356,752.5,2253.8356" style="stroke:#000000;stroke-width:1;"/></g><ellipse cx="513" cy="227.2188" fill="#FFFFFF" rx="10" ry="10" style="stroke:#000000;stroke-width:1;"/><g id="LoadingConfig.InitDeviceList"><rect fill="#FFFFFF" height="50" rx="12.5" ry="12.5" style="stroke:#000000;stroke-width:1;" width="114.7324" x="455.63" y="314.2188"/><line style="stroke:#000000;stroke-width:1;" x1="455.63" x2="570.3624" y1="340.5156" y2="340.5156"/><text fill="#000000" font-family="Verdana" font-size="14" lengthAdjust="spacing" textLength="94.7324" x="465.63" y="332.2139">InitDeviceList</text></g><path d="M214.29,478.2188 L337.7099,478.2188 A12.5,12.5 0 0 1 350.2099,490.7188 L350.2099,504.5156 L201.79,504.5156 L201.79,490.7188 A12.5,12.5 0 0 1 214.29,478.2188" fill="#FFFFFF"/><path d="M201.79,504.5156 L350.2099,504.5156 L350.2099,1107.0156 A12.5,12.5 0 0 1 337.7099,1119.5156 L214.29,1119.5156 A12.5,12.5 0 0 1 201.79,1107.0156 L201.79,504.5156" fill="#FFFFFF"/><rect fill="none" height="641.2969" rx="12.5" ry="12.5" style="stroke:#000000;stroke-width:1;" width="148.4199" x="201.79" y="478.2188"/><line style="stroke:#000000;stroke-width:1;" x1="201.79" x2="350.2099" y1="504.5156" y2="504.5156"/><text fill="#000000" font-family="Verdana" font-size="14" lengthAdjust="spacing" textLength="75.127" x="238.4365" y="496.2139">HostFound</text><ellipse cx="277.5" cy="525.5156" fill="#FFFFFF" rx="10" ry="10" style="stroke:#000000;stroke-width:1;"/><g id="LoadingConfig.LoopDevices.HostFound.ReadHost"><rect fill="#FFFFFF" height="50" rx="12.5" ry="12.5" style="stroke:#000000;stroke-width:1;" width="87.6826" x="233.66" y="571.5156"/><line style="stroke:#000000;stroke-width:1;" x1="233.66" x2="321.3426" y1="597.8125" y2="597.8125"/><text fill="#000000" font-family="Verdana" font-size="14" lengthAdjust="spacing" textLength="67.6826" x="243.66" y="589.5107">ReadHost</text></g><g id="LoadingConfig.LoopDevices.HostFound.ReadUsername"><rect fill="#FFFFFF" height="50" rx="12.5" ry="12.5" style="stroke:#000000;stroke-width:1;" width="127.4199" x="213.79" y="657.5156"/><line style="stroke:#000000;stroke-width:1;" x1="213.79" x2="341.2099" y1="683.8125" y2="683.8125"/><text fill="#000000" font-family="Verdana" font-size="14" lengthAdjust="spacing" textLength="107.4199" x="223.79" y="675.5107">ReadUsername</text></g><g id="LoadingConfig.LoopDevices.HostFound.ReadPassword"><rect fill="#FFFFFF" height="50" rx="12.5" ry="12.5" style="stroke:#000000;stroke-width:1;" width="122.0742" x="216.46" y="743.5156"/><line style="stroke:#000000;stroke-width:1;" x1="216.46" x2="338.5342" y1="769.8125" y2="769.8125"/><text fill="#000000" font-family="Verdana" font-size="14" lengthAdjust="spacing" textLength="102.0742" x="226.46" y="761.5107">ReadPassword</text></g><g id="LoadingConfig.LoopDevices.HostFound.ReadName"><rect fill="#FFFFFF" height="50" rx="12.5" ry="12.5" style="stroke:#000000;stroke-width:1;" width="97.1094" x="228.95" y="829.5156"/><line style="stroke:#000000;stroke-width:1;" x1="228.95" x2="326.0594" y1="855.8125" y2="855.8125"/><text fill="#000000" font-family="Verdana" font-size="14" lengthAdjust="spacing" textLength="77.1094" x="238.95" y="847.5107">ReadName</text></g><g id="LoadingConfig.LoopDevices.HostFound.CreateDevice"><rect fill="#FFFFFF" height="50" rx="12.5" ry="12.5" style="stroke:#000000;stroke-width:1;" width="114.7051" x="220.15" y="915.5156"/><line style="stroke:#000000;stroke-width:1;" x1="220.15" x2="334.8551" y1="941.8125" y2="941.8125"/><text fill="#000000" font-family="Verdana" font-size="14" lengthAdjust="spacing" textLength="94.7051" x="230.15" y="933.5107">CreateDevice</text></g><g id="LoadingConfig.LoopDevices.HostFound.AppendDevice"><rect fill="#FFFFFF" height="50" rx="12.5" ry="12.5" style="stroke:#000000;stroke-width:1;" width="121.6025" x="216.7" y="1001.5156"/><line style="stroke:#000000;stroke-width:1;" x1="216.7" x2="338.3025" y1="1027.8125" y2="1027.8125"/><text fill="#000000" font-family="Verdana" font-size="14" lengthAdjust="spacing" textLength="101.6025" x="226.7" y="1019.5107">AppendDevice</text></g><ellipse cx="277.5" cy="1098.5156" fill="none" rx="11" ry="11" style="stroke:#000000;stroke-width:1;"/><ellipse cx="277.5" cy="1098.5156" fill="#FFFFFF" rx="6" ry="6" style="stroke:#000000;stroke-width:1;"/><!--link *start*HostFound to ReadHost--><g class="link" data-entity-1=".start.HostFound" data-entity-2="ReadHost" data-source-line="18" data-uid="lnk16" id="link_.start.HostFound_ReadHost"><path d="M277.5,535.8256 C277.5,544.8656 277.5,553.0056 277.5,565.2456" fill="none" id="*start*HostFound-to-ReadHost" style="stroke:#000000;stroke-width:1;"/><polygon fill="#000000" points="277.5,571.2456,281.5,562.2456,277.5,566.2456,273.5,562.2456,277.5,571.2456" style="stroke:#000000;stroke-width:1;"/></g><!--link ReadHost to ReadUsername--><g class="link" data-entity-1="ReadHost" data-entity-2="ReadUsername" data-source-line="19" data-uid="lnk18" id="link_ReadHost_ReadUsername"><path d="M277.5,621.8156 C277.5,632.9556 277.5,640.1356 277.5,651.2756" fill="none" id="ReadHost-to-ReadUsername" style="stroke:#000000;stroke-width:1;"/><polygon fill="#000000" points="277.5,657.2756,281.5,648.2756,277.5,652.2756,273.5,648.2756,277.5,657.2756" style="stroke:#000000;stroke-width:1;"/></g><!--link ReadUsername to ReadPassword--><g class="link" data-entity-1="ReadUsername" data-entity-2="ReadPassword" data-source-line="20" data-uid="lnk20" id="link_ReadUsername_ReadPassword"><path d="M277.5,707.8156 C277.5,718.9556 277.5,726.1356 277.5,737.2756" fill="none" id="ReadUsername-to-ReadPassword" style="stroke:#000000;stroke-width:1;"/><polygon fill="#000000" points="277.5,743.2756,281.5,734.2756,277.5,738.2756,273.5,734.2756,277.5,743.2756" style="stroke:#000000;stroke-width:1;"/></g><!--link ReadPassword to ReadName--><g class="link" data-entity-1="ReadPassword" data-entity-2="ReadName" data-source-line="21" data-uid="lnk22" id="link_ReadPassword_ReadName"><path d="M277.5,793.8156 C277.5,804.9556 277.5,812.1356 277.5,823.2756" fill="none" id="ReadPassword-to-ReadName" style="stroke:#000000;stroke-width:1;"/><polygon fill="#000000" points="277.5,829.2756,281.5,820.2756,277.5,824.2756,273.5,820.2756,277.5,829.2756" style="stroke:#000000;stroke-width:1;"/></g><!--link ReadName to CreateDevice--><g class="link" data-entity-1="ReadName" data-entity-2="CreateDevice" data-source-line="22" data-uid="lnk24" id="link_ReadName_CreateDevice"><path d="M277.5,879.8156 C277.5,890.9556 277.5,898.1356 277.5,909.2756" fill="none" id="ReadName-to-CreateDevice" style="stroke:#000000;stroke-width:1;"/><polygon fill="#000000" points="277.5,915.2756,281.5,906.2756,277.5,910.2756,273.5,906.2756,277.5,915.2756" style="stroke:#000000;stroke-width:1;"/></g><!--link CreateDevice to AppendDevice--><g class="link" data-entity-1="CreateDevice" data-entity-2="AppendDevice" data-source-line="23" data-uid="lnk26" id="link_CreateDevice_AppendDevice"><path d="M277.5,965.8156 C277.5,976.9556 277.5,984.1356 277.5,995.2756" fill="none" id="CreateDevice-to-AppendDevice" style="stroke:#000000;stroke-width:1;"/><polygon fill="#000000" points="277.5,1001.2756,281.5,992.2756,277.5,996.2756,273.5,992.2756,277.5,1001.2756" style="stroke:#000000;stroke-width:1;"/></g><!--link AppendDevice to *end*HostFound--><g class="link" data-entity-1="AppendDevice" data-entity-2=".end.HostFound" data-source-line="24" data-uid="lnk28" id="link_AppendDevice_.end.HostFound"><path d="M277.5,1051.9956 C277.5,1063.9856 277.5,1071.7856 277.5,1081.0156" fill="none" id="AppendDevice-to-*end*HostFound" style="stroke:#000000;stroke-width:1;"/><polygon fill="#000000" points="277.5,1087.0156,281.5,1078.0156,277.5,1082.0156,273.5,1078.0156,277.5,1087.0156" style="stroke:#000000;stroke-width:1;"/></g><ellipse cx="318" cy="1205.5088" fill="#FFFFFF" rx="10" ry="10" style="stroke:#000000;stroke-width:1;"/><g id="LoadingConfig.LoopDevices.CheckHost"><rect fill="#FFFFFF" height="50" rx="12.5" ry="12.5" style="stroke:#000000;stroke-width:1;" width="94.9424" x="290.53" y="1329.5088"/><line style="stroke:#000000;stroke-width:1;" x1="290.53" x2="385.4724" y1="1355.8056" y2="1355.8056"/><text fill="#000000" font-family="Verdana" font-size="14" lengthAdjust="spacing" textLength="74.9424" x="300.53" y="1347.5039">CheckHost</text></g><g id="LoadingConfig.LoopDevices.IncrementLoop"><rect fill="#FFFFFF" height="50" rx="12.5" ry="12.5" style="stroke:#000000;stroke-width:1;" width="125.499" x="363.25" y="1180.5088"/><line style="stroke:#000000;stroke-width:1;" x1="363.25" x2="488.749" y1="1206.8056" y2="1206.8056"/><text fill="#000000" font-family="Verdana" font-size="14" lengthAdjust="spacing" textLength="105.499" x="373.25" y="1198.5039">IncrementLoop</text></g><ellipse cx="707" cy="1354.5088" fill="#FFFFFF" rx="10" ry="10" style="stroke:#000000;stroke-width:1;"/><g id="LoadingConfig.CheckBackwardCompat.CheckEmpty"><rect fill="#FFFFFF" height="50" rx="12.5" ry="12.5" style="stroke:#000000;stroke-width:1;" width="108.2109" x="652.89" y="1458.5088"/><line style="stroke:#000000;stroke-width:1;" x1="652.89" x2="761.1009" y1="1484.8056" y2="1484.8056"/><text fill="#000000" font-family="Verdana" font-size="14" lengthAdjust="spacing" textLength="88.2109" x="662.89" y="1476.5039">CheckEmpty</text></g><g id="LoadingConfig.CheckBackwardCompat.CheckLegacy"><rect fill="#FFFFFF" height="50" rx="12.5" ry="12.5" style="stroke:#000000;stroke-width:1;" width="112.9277" x="642.54" y="1595.7788"/><line style="stroke:#000000;stroke-width:1;" x1="642.54" x2="755.4677" y1="1622.0756" y2="1622.0756"/><text fill="#000000" font-family="Verdana" font-size="14" lengthAdjust="spacing" textLength="92.9277" x="652.54" y="1613.7739">CheckLegacy</text></g><g id="LoadingConfig.CheckBackwardCompat.ParseLegacy"><rect fill="#FFFFFF" height="50" rx="12.5" ry="12.5" style="stroke:#000000;stroke-width:1;" width="108.5459" x="584.73" y="1733.0388"/><line style="stroke:#000000;stroke-width:1;" x1="584.73" x2="693.2759" y1="1759.3356" y2="1759.3356"/><text fill="#000000" font-family="Verdana" font-size="14" lengthAdjust="spacing" textLength="88.5459" x="594.73" y="1751.0339">ParseLegacy</text></g><g id="LoadingConfig.CheckBackwardCompat.LogDeprecation"><rect fill="#FFFFFF" height="50" rx="12.5" ry="12.5" style="stroke:#000000;stroke-width:1;" width="130.9951" x="584.5" y="1860.0388"/><line style="stroke:#000000;stroke-width:1;" x1="584.5" x2="715.4951" y1="1886.3356" y2="1886.3356"/><text fill="#000000" font-family="Verdana" font-size="14" lengthAdjust="spacing" textLength="110.9951" x="594.5" y="1878.0339">LogDeprecation</text></g><ellipse cx="916" cy="93.2188" fill="#FFFFFF" rx="10" ry="10" style="stroke:#000000;stroke-width:1;"/><g id="ReturnSettings"><rect fill="#FFFFFF" height="50" rx="12.5" ry="12.5" style="stroke:#000000;stroke-width:1;" width="124.7539" x="1098.62" y="314.2188"/><line style="stroke:#000000;stroke-width:1;" x1="1098.62" x2="1223.3739" y1="340.5156" y2="340.5156"/><text fill="#000000" font-family="Verdana" font-size="14" lengthAdjust="spacing" textLength="104.7539" x="1108.62" y="332.2139">ReturnSettings</text></g><ellipse cx="1236" cy="798.8587" fill="none" rx="11" ry="11" style="stroke:#000000;stroke-width:1;"/><ellipse cx="1236" cy="798.8587" fill="#FFFFFF" rx="6" ry="6" style="stroke:#000000;stroke-width:1;"/><g class="entity" data-entity="GMN2" data-source-line="54" data-uid="ent0003" id="entity_GMN2"><path d="M947.8,748.4688 L947.8,849.2656 L1190.2063,849.2656 L1190.2063,758.4688 L1180.2063,748.4688 L947.8,748.4688" fill="#FFFFFF" style="stroke:#000000;stroke-width:1;"/><path d="M1180.2063,748.4688 L1180.2063,758.4688 L1190.2063,758.4688 L1180.2063,748.4688" fill="#FFFFFF" style="stroke:#000000;stroke-width:1;"/><text fill="#000000" font-family="Verdana" font-size="13" lengthAdjust="spacing" textLength="220.4478" x="953.8" y="765.5356">FRITZBOX_1_HOST=192.168.10.1</text><text fill="#000000" font-family="Verdana" font-size="13" lengthAdjust="spacing" textLength="211.2056" x="953.8" y="780.6685">FRITZBOX_1_USERNAME=admin</text><text fill="#000000" font-family="Verdana" font-size="13" lengthAdjust="spacing" textLength="221.4063" x="953.8" y="795.8013">FRITZBOX_1_PASSWORD=secret1</text><text fill="#000000" font-family="Verdana" font-size="13" lengthAdjust="spacing" textLength="4.1323" x="953.8" y="810.9341">&#160;</text><text fill="#000000" font-family="Verdana" font-size="13" lengthAdjust="spacing" textLength="220.4478" x="953.8" y="826.0669">FRITZBOX_2_HOST=192.168.20.1</text><text fill="#000000" font-family="Verdana" font-size="13" lengthAdjust="spacing" textLength="12.397" x="953.8" y="841.1997">...</text></g><g class="entity" data-entity="GMN5" data-source-line="63" data-uid="ent0006" id="entity_GMN5"><path d="M948.05,1585.5088 L948.05,1616.7788 L755.73,1620.7788 L948.05,1624.7788 L948.05,1656.04 A0,0 0 0 0 948.05,1656.04 L1273.947,1656.04 A0,0 0 0 0 1273.947,1656.04 L1273.947,1595.5088 L1263.947,1585.5088 L948.05,1585.5088 A0,0 0 0 0 948.05,1585.5088" fill="#FFFFFF" style="stroke:#000000;stroke-width:1;"/><path d="M1263.947,1585.5088 L1263.947,1595.5088 L1273.947,1595.5088 L1263.947,1585.5088" fill="#FFFFFF" style="stroke:#000000;stroke-width:1;"/><text fill="#000000" font-family="Verdana" font-size="13" lengthAdjust="spacing" textLength="98.4141" x="954.05" y="1602.5756">Legacy format:</text><text fill="#000000" font-family="Verdana" font-size="13" lengthAdjust="spacing" textLength="304.897" x="954.05" y="1617.7085">FRITZBOX_HOSTS=192.168.10.1,192.168.20.1</text><text fill="#000000" font-family="Verdana" font-size="13" lengthAdjust="spacing" textLength="4.1323" x="954.05" y="1632.8413">&#160;</text><text fill="#000000" font-family="Verdana" font-size="13" lengthAdjust="spacing" textLength="103.2319" x="954.05" y="1647.9741">&#9888;&#65039; DEPRECATED</text></g><!--link *start* to LoadingConfig--><g class="link" data-entity-1=".start." data-entity-2="LoadingConfig" data-source-line="6" data-uid="lnk3" id="link_.start._LoadingConfig"><path d="M916,103.7087 C916,111.1562 916,122.3575 916,135.0139 C916,141.3421 916,148.0341 916,154.8026 C916,158.1868 916,161.5901 916,164.9767 C916,166.6699 916,168.359 916,170.0394 C916,170.8796 916,171.7176 916,172.5529 C916,172.9705 916,167.3875 916,167.8037" fill="none" id="*start*-to-LoadingConfig" style="stroke:#000000;stroke-width:1;"/><polygon fill="#000000" points="916,173.8037,920,164.8037,916,168.8037,912,164.8037,916,173.8037" style="stroke:#000000;stroke-width:1;"/><text fill="#000000" font-family="Verdana" font-size="13" lengthAdjust="spacing" textLength="128.5654" x="917" y="146.2856">Settings.from_env()</text></g><!--link *start*LoadingConfig to InitDeviceList--><g class="link" data-entity-1=".start.LoadingConfig" data-entity-2="InitDeviceList" data-source-line="9" data-uid="lnk6" id="link_.start.LoadingConfig_InitDeviceList"><path d="M513,237.5887 C513,254.3187 513,283.8087 513,307.8387" fill="none" id="*start*LoadingConfig-to-InitDeviceList" style="stroke:#000000;stroke-width:1;"/><polygon fill="#000000" points="513,313.8387,517,304.8387,513,308.8387,509,304.8387,513,313.8387" style="stroke:#000000;stroke-width:1;"/><text fill="#000000" font-family="Verdana" font-size="13" lengthAdjust="spacing" textLength="78.7744" x="514" y="280.2856">devices = []</text></g><!--link InitDeviceList to LoopDevices--><g class="link" data-entity-1="InitDeviceList" data-entity-2="LoopDevices" data-source-line="10" data-uid="lnk7" id="link_InitDeviceList_LoopDevices"><path d="M513,364.4988 C513,376.2325 513,391.7217 513,409.8544 C513,414.3875 513,419.0859 513,423.9321 C513,426.3552 513,428.8153 513,431.3102 C513,432.5576 513,427.8137 513,429.0783" fill="none" id="InitDeviceList-to-LoopDevices" style="stroke:#000000;stroke-width:1;"/><polygon fill="#000000" points="513,435.0783,517,426.0783,513,430.0783,509,426.0783,513,435.0783" style="stroke:#000000;stroke-width:1;"/><text fill="#000000" font-family="Verdana" font-size="13" lengthAdjust="spacing" textLength="31.04" x="514" y="407.2856">i = 1</text></g><!--link *start*LoopDevices to CheckHost--><g class="link" data-entity-1=".start.LoopDevices" data-entity-2="CheckHost" data-source-line="13" data-uid="lnk10" id="link_.start.LoopDevices_CheckHost"><path d="M318.28,1215.7388 C318.78,1229.3188 320.06,1255.4587 323,1277.5088 C325.33,1294.9788 327.9264,1308.6055 331.1564,1323.4755" fill="none" id="*start*LoopDevices-to-CheckHost" style="stroke:#000000;stroke-width:1;"/><polygon fill="#000000" points="332.43,1329.3388,334.4285,1319.6948,331.3687,1324.4527,326.6108,1321.3929,332.43,1329.3388" style="stroke:#000000;stroke-width:1;"/></g><!--link CheckHost to HostFound--><g class="link" data-entity-1="CheckHost" data-entity-2="HostFound" data-source-line="14" data-uid="lnk11" id="link_CheckHost_HostFound"><path d="M290.4,1340.8587 C239.89,1324.6087 162.67,1290.9988 128,1230.5088 C65.49,1121.4587 134.259,986.6399 197.969,896.4199" fill="none" id="CheckHost-to-HostFound" style="stroke:#000000;stroke-width:1;"/><polygon fill="#000000" points="201.43,891.5188,192.971,896.5631,198.5458,895.603,199.5059,901.1778,201.43,891.5188" style="stroke:#000000;stroke-width:1;"/><text fill="#000000" font-family="Verdana" font-size="13" lengthAdjust="spacing" textLength="160.1387" x="129" y="1210.0756">FRITZBOX_i_HOST exists</text></g><!--link CheckHost to IncrementLoop--><g class="link" data-entity-1="CheckHost" data-entity-2="IncrementLoop" data-source-line="15" data-uid="lnk13" id="link_CheckHost_IncrementLoop"><path d="M354.33,1329.1387 C364.08,1314.3687 376.55,1295.0388 387,1277.5088 C396.14,1262.1687 402.972,1249.8651 410.402,1236.0251" fill="none" id="CheckHost-to-IncrementLoop" style="stroke:#000000;stroke-width:1;"/><polygon fill="#000000" points="413.24,1230.7388,405.4588,1236.7763,410.875,1235.1441,412.5073,1240.5603,413.24,1230.7388" style="stroke:#000000;stroke-width:1;"/><text fill="#000000" font-family="Verdana" font-size="13" lengthAdjust="spacing" textLength="33.9155" x="397" y="1273.5756">None</text></g><!--link IncrementLoop to CheckHost--><g class="link" data-entity-1="IncrementLoop" data-entity-2="CheckHost" data-source-line="28" data-uid="lnk30" id="link_IncrementLoop_CheckHost"><path d="M380.82,1230.8487 C369.77,1238.8787 359.09,1248.8188 352,1260.5088 C339.39,1281.3188 336.7321,1303.4088 336.6921,1323.2588" fill="none" id="IncrementLoop-to-CheckHost" style="stroke:#000000;stroke-width:1;"/><polygon fill="#000000" points="336.68,1329.2588,340.6981,1320.2668,336.6901,1324.2588,332.6981,1320.2507,336.68,1329.2588" style="stroke:#000000;stroke-width:1;"/><text fill="#000000" font-family="Verdana" font-size="13" lengthAdjust="spacing" textLength="25.397" x="353" y="1273.5756">i++</text></g><!--link HostFound to IncrementLoop--><g class="link" data-entity-1="HostFound" data-entity-2="IncrementLoop" data-source-line="27" data-uid="lnk29" id="link_HostFound_IncrementLoop"><path d="M350.55,1112.5888 C351.68,1114.9087 352.83,1117.2188 354,1119.5088 C365.59,1142.2588 380.1805,1159.8536 395.6505,1175.7136" fill="none" id="HostFound-to-IncrementLoop" style="stroke:#000000;stroke-width:1;"/><polygon fill="#000000" points="399.84,1180.0088,396.4192,1170.7731,396.3487,1176.4295,390.6923,1176.3591,399.84,1180.0088" style="stroke:#000000;stroke-width:1;"/></g><!--link IncrementLoop to CheckBackwardCompat--><g class="link" data-entity-1="IncrementLoop" data-entity-2="CheckBackwardCompat" data-source-line="29" data-uid="lnk31" id="link_IncrementLoop_CheckBackwardCompat"><path d="M489.23,1211.2788 C583.85,1219.7988 755.53,1241.0788 796,1285.5088 C798.4813,1288.2337 800.4789,1291.2959 802.0737,1294.5737 C802.8711,1296.2126 803.5678,1297.9053 804.1739,1299.6368 C804.3254,1300.0697 804.4712,1300.5049 804.6116,1300.9424 C804.6467,1301.0518 802.8851,1295.4365 802.9195,1295.5461" fill="none" id="IncrementLoop-to-CheckBackwardCompat" style="stroke:#000000;stroke-width:1;"/><polygon fill="#000000" points="804.7158,1301.2709,805.8379,1291.4862,803.2189,1296.5002,798.2048,1293.8813,804.7158,1301.2709" style="stroke:#000000;stroke-width:1;"/><text fill="#000000" font-family="Verdana" font-size="13" lengthAdjust="spacing" textLength="39.311" x="785" y="1273.5756">i &gt; 10</text></g><!--link *start*CheckBackwardCompat to CheckEmpty--><g class="link" data-entity-1=".start.CheckBackwardCompat" data-entity-2="CheckEmpty" data-source-line="33" data-uid="lnk34" id="link_.start.CheckBackwardCompat_CheckEmpty"><path d="M707,1364.6487 C707,1383.9787 707,1423.6087 707,1452.0888" fill="none" id="*start*CheckBackwardCompat-to-CheckEmpty" style="stroke:#000000;stroke-width:1;"/><polygon fill="#000000" points="707,1458.0888,711,1449.0888,707,1453.0888,703,1449.0888,707,1458.0888" style="stroke:#000000;stroke-width:1;"/></g><!--link CheckEmpty to CheckLegacy--><g class="link" data-entity-1="CheckEmpty" data-entity-2="CheckLegacy" data-source-line="34" data-uid="lnk36" id="link_CheckEmpty_CheckLegacy"><path d="M652.65,1501.4787 C635.29,1509.7487 617.99,1521.6788 608,1538.5088 C594.32,1561.5488 611.1442,1578.7386 636.9642,1593.1886" fill="none" id="CheckEmpty-to-CheckLegacy" style="stroke:#000000;stroke-width:1;"/><polygon fill="#000000" points="642.2,1596.1187,636.2997,1588.2329,637.8368,1593.6769,632.3928,1595.214,642.2,1596.1187" style="stroke:#000000;stroke-width:1;"/><text fill="#000000" font-family="Verdana" font-size="13" lengthAdjust="spacing" textLength="89.667" x="609" y="1551.5756">devices == []</text></g><!--link CheckEmpty to SettingsReady--><g class="link" data-entity-1="CheckEmpty" data-entity-2="SettingsReady" data-source-line="35" data-uid="lnk37" id="link_CheckEmpty_SettingsReady"><path d="M727.76,1508.8587 C743.05,1528.2788 762.88,1556.8787 773,1585.5088 C819.16,1716.0987 807.1835,1869.1402 787.1235,1982.7302" fill="none" id="CheckEmpty-to-SettingsReady" style="stroke:#000000;stroke-width:1;"/><polygon fill="#000000" points="786.08,1988.6387,791.5842,1980.4715,786.9495,1983.7149,783.7061,1979.0803,786.08,1988.6387" style="stroke:#000000;stroke-width:1;"/><text fill="#000000" font-family="Verdana" font-size="13" lengthAdjust="spacing" textLength="90.8667" x="806" y="1762.6056">devices found</text></g><!--link CheckLegacy to ParseLegacy--><g class="link" data-entity-1="CheckLegacy" data-entity-2="ParseLegacy" data-source-line="37" data-uid="lnk39" id="link_CheckLegacy_ParseLegacy"><path d="M642.22,1629.7988 C581.39,1639.6988 490.77,1658.6487 470,1686.0388 C437.17,1729.3487 517.3548,1745.8235 578.3748,1752.4235" fill="none" id="CheckLegacy-to-ParseLegacy" style="stroke:#000000;stroke-width:1;"/><polygon fill="#000000" points="584.34,1753.0688,575.8223,1748.1241,579.369,1752.5311,574.9621,1756.0777,584.34,1753.0688" style="stroke:#000000;stroke-width:1;"/><text fill="#000000" font-family="Verdana" font-size="13" lengthAdjust="spacing" textLength="158.2788" x="471" y="1699.1056">FRITZBOX_HOSTS exists</text></g><!--link ParseLegacy to LogDeprecation--><g class="link" data-entity-1="ParseLegacy" data-entity-2="LogDeprecation" data-source-line="38" data-uid="lnk41" id="link_ParseLegacy_LogDeprecation"><path d="M641.15,1783.4387 C643.09,1805.4688 645.3932,1831.7219 647.3332,1853.7319" fill="none" id="ParseLegacy-to-LogDeprecation" style="stroke:#000000;stroke-width:1;"/><polygon fill="#000000" points="647.86,1859.7087,651.0543,1850.3923,647.421,1854.7281,643.0852,1851.0947,647.86,1859.7087" style="stroke:#000000;stroke-width:1;"/></g><!--link LogDeprecation to SettingsReady--><g class="link" data-entity-1="LogDeprecation" data-entity-2="SettingsReady" data-source-line="39" data-uid="lnk42" id="link_LogDeprecation_SettingsReady"><path d="M659.87,1910.5288 C667.61,1929.7488 676.859,1952.683 689.079,1983.033" fill="none" id="LogDeprecation-to-SettingsReady" style="stroke:#000000;stroke-width:1;"/><polygon fill="#000000" points="691.32,1988.5987,691.669,1978.7561,689.4525,1983.9606,684.248,1981.7441,691.32,1988.5987" style="stroke:#000000;stroke-width:1;"/></g><!--link CheckLegacy to SettingsReady--><g class="link" data-entity-1="CheckLegacy" data-entity-2="SettingsReady" data-source-line="40" data-uid="lnk43" id="link_CheckLegacy_SettingsReady"><path d="M701.37,1646.2687 C705.33,1685.3188 714.05,1764.0288 726,1830.0388 C728.44,1843.5188 730.99,1846.4988 733,1860.0388 C739.16,1901.5788 742.8285,1940.9509 745.4885,1982.7009" fill="none" id="CheckLegacy-to-SettingsReady" style="stroke:#000000;stroke-width:1;"/><polygon fill="#000000" points="745.87,1988.6887,749.2897,1979.4526,745.5521,1983.6989,741.3058,1979.9613,745.87,1988.6887" style="stroke:#000000;stroke-width:1;"/><text fill="#000000" font-family="Verdana" font-size="13" lengthAdjust="spacing" textLength="64.4795" x="727" y="1826.1056">No legacy</text></g><!--link LoadingConfig to ReturnSettings--><g class="link" data-entity-1="LoadingConfig" data-entity-2="ReturnSettings" data-source-line="50" data-uid="lnk52" id="link_LoadingConfig_ReturnSettings"><path d="M924.2063,231.9043 C924.4633,232.0197 924.7259,232.1375 924.9938,232.2578 C926.0657,232.739 927.2245,233.2592 928.4653,233.8162 C930.947,234.9303 933.757,236.1917 936.8564,237.5831 C949.2541,243.1488 966.2831,250.7938 985.4613,259.4038 C1023.8175,276.6238 1065.2964,295.2461 1100.9864,311.2711" fill="none" id="LoadingConfig-to-ReturnSettings" style="stroke:#000000;stroke-width:1;"/><polygon fill="#000000" points="1106.46,313.7288,1099.8881,306.3932,1101.8987,311.6807,1096.6112,313.6913,1106.46,313.7288" style="stroke:#000000;stroke-width:1;"/></g><!--link ReturnSettings to *end*--><g class="link" data-entity-1="ReturnSettings" data-entity-2=".end." data-source-line="51" data-uid="lnk54" id="link_ReturnSettings_.end."><path d="M1179.42,364.4087 C1189.74,379.3587 1201.76,399.4287 1208,419.2188 C1252.18,559.4087 1241.1339,736.6991 1237.4239,781.6191" fill="none" id="ReturnSettings-to-*end*" style="stroke:#000000;stroke-width:1;"/><polygon fill="#000000" points="1236.93,787.5987,1241.6572,778.9585,1237.3416,782.6157,1233.6844,778.3,1236.93,787.5987" style="stroke:#000000;stroke-width:1;"/></g><!--link LoopDevices to GMN2--><g class="link" data-entity-1="LoopDevices" data-entity-2="GMN2" data-source-line="54" data-uid="lnk4" id="link_LoopDevices_GMN2"><path d="M522.2815,798.8587 C522.8462,798.8587 523.411,798.8587 523.9758,798.8587 C525.1053,798.8587 526.2348,798.8587 527.3644,798.8587 C531.8825,798.8587 536.4006,798.8587 540.9187,798.8587 C549.955,798.8587 558.9912,798.8587 568.0275,798.8587 C586.1,798.8587 604.1725,798.8587 622.245,798.8587 C658.39,798.8587 694.535,798.8587 730.68,798.8587 C802.97,798.8587 875.26,798.8587 947.55,798.8587" fill="none" id="LoopDevices-GMN2" style="stroke:#000000;stroke-width:1;stroke-dasharray:7,7;"/></g><!--SRC=[XPJTRjem5CVl_HIUThEj8sguc3OaAb4-L2GA4Q7TjAv2Rd802s97jccBfZx3xdUrnzZpx0Ns2dCSuiG1j5mbFh_pFoVdmw_K2XB0wOPGXkIQifG8ak074gsNWczPtEKRBl3hWNaGKbHj07SvMz3bLX15ESC14PAo9GuLKO2lIRIY3BwnIMgidHOEG3Hwy4WZmBT4KFAm0OdGtRjxt6XSu14diNRFDN4BXw2K_fRUGl1a3kpnpLk4fD5sqUy8wwUG6JAgyY0ZAfNMYSs7n6ryTs_86f77vcblpxKmrQoF35l4Ayrvj6h4xWgYzHMNobhiYR5dBuEiXbfwC1tElbvElipf_6eIpZ0ywnJa2SSXYuJk2bDPVEqyvWoGPVFKIl4oiMfoKo2narls58UMk94W64dWW2eCbWo8b4zSn0TaOR3a-9ZUkD3g2j3fvqLrgAh1a9qq1HOV8Qi6G-f_ji1BMQYoH0T5jOnRQgUhsK2SdVsFlDIRyaI4tfCa9SO7Ns3_75LooHjsZ3unK_qaLJjtDinHIOnWIQ9TTSZjb1znAJOgQqJLQP4L1xbUU-NCBTjhi97i16Vp6zO7kChcYxNiGIeWCbU4nTpZm-HEvbB_XJ776sCzBBIB7fRubcnehC5W5nEcQ6I1kY4ljxxEe90iqwkUEZFuWdGoxZsLBuRQ2cPrt4yhW1ZNFo3eSgKmNrIl7wDjM-2R9hJzJqtF__3HyyyzlmxSXFtfk7FTRvCueQnk3JfX-7aoxRKbwAbM-qlF0arNlrdeUvw7zEhXBCrwifME6NRVl0KN2L4jLz-Ca9F-UoUMeV_y_FNtzm_SwmVJVhSpw_Tiw7y0]--></g></svg>